OHamburgC-Regular.ufo
<glyph name="exclam" format="2">
  <advance width="212"/>
  <unicode hex="0021"/>
  <outline>
    <contour>
      <point x="109" y="-6" type="curve" smooth="yes"/>
      <point x="131" y="-6"/>
      <point x="145" y="12"/>
      <point x="149" y="34" type="curve" smooth="yes"/>
      <point x="153" y="56"/>
      <point x="135" y="74"/>
      <point x="109" y="74" type="curve" smooth="yes"/>
      <point x="87" y="74"/>
      <point x="69" y="56"/>
      <point x="69" y="34" type="curve" smooth="yes"/>
      <point x="69" y="12"/>
      <point x="87" y="-6"/>
    </contour>
    <contour>
      <point x="79" y="176" type="curve"/>
      <point x="135" y="190" type="line"/>
      <point x="129" y="325"/>
      <point x="132" y="501"/>
      <point x="158" y="636" type="curve"/>
      <point x="54" y="618" type="line"/>
      <point x="86" y="487"/>
      <point x="79" y="307"/>
    </contour>
  </outline>
</glyph>
<glyph name="quotedbl" format="2">
  <advance width="361"/>
  <unicode hex="0022"/>
  <outline>
    <contour>
      <point x="72" y="428" type="line"/>
      <point x="93" y="428" type="line"/>
      <point x="143" y="606" type="line"/>
      <point x="152" y="640"/>
      <point x="137" y="664"/>
      <point x="109" y="664" type="curve" smooth="yes"/>
      <point x="80" y="664"/>
      <point x="62" y="640"/>
      <point x="63" y="606" type="curve"/>
    </contour>
    <contour>
      <point x="224" y="428" type="line"/>
      <point x="245" y="428" type="line"/>
      <point x="295" y="606" type="line"/>
      <point x="304" y="640"/>
      <point x="289" y="664"/>
      <point x="261" y="664" type="curve" smooth="yes"/>
      <point x="232" y="664"/>
      <point x="214" y="640"/>
      <point x="215" y="606" type="curve"/>
    </contour>
  </outline>
</glyph>
<glyph name="numbersign" format="2">
  <advance width="554"/>
  <unicode hex="0023"/>
  <outline>
    <contour>
      <point x="53" y="-28" type="line"/>
      <point x="122" y="8" type="line"/>
      <point x="157" y="158" type="line"/>
      <point x="320" y="158" type="line"/>
      <point x="276" y="-28" type="line"/>
      <point x="343" y="8" type="line"/>
      <point x="375" y="158" type="line"/>
      <point x="478" y="158" type="line"/>
      <point x="504" y="220" type="line"/>
      <point x="389" y="220" type="line"/>
      <point x="426" y="381" type="line"/>
      <point x="520" y="381" type="line"/>
      <point x="545" y="445" type="line"/>
      <point x="438" y="445" type="line"/>
      <point x="484" y="642" type="line"/>
      <point x="418" y="619" type="line"/>
      <point x="382" y="445" type="line"/>
      <point x="232" y="445" type="line"/>
      <point x="280" y="642" type="line"/>
      <point x="207" y="619" type="line"/>
      <point x="167" y="445" type="line"/>
      <point x="62" y="445" type="line"/>
      <point x="41" y="381" type="line"/>
      <point x="153" y="381" type="line"/>
      <point x="112" y="220" type="line"/>
      <point x="30" y="220" type="line"/>
      <point x="9" y="158" type="line"/>
      <point x="99" y="158" type="line"/>
    </contour>
    <contour>
      <point x="170" y="221" type="line"/>
      <point x="209" y="377" type="line"/>
      <point x="370" y="377" type="line"/>
      <point x="333" y="221" type="line"/>
    </contour>
  </outline>
</glyph>
<glyph name="dollar" format="2">
  <advance width="492"/>
  <unicode hex="0024"/>
  <outline>
    <contour>
      <point x="235" y="-116" type="line"/>
      <point x="275" y="-116" type="line"/>
      <point x="275" y="784" type="line"/>
      <point x="235" y="784" type="line"/>
    </contour>
    <component base="S" xOffset="9"/>
  </outline>
</glyph>
<glyph name="ampersand" format="2">
  <advance width="761"/>
  <unicode hex="0026"/>
  <outline>
    <contour>
      <point x="264" y="-11" type="curve" smooth="yes"/>
      <point x="431" y="-11"/>
      <point x="532" y="157"/>
      <point x="641" y="309" type="curve" smooth="yes"/>
      <point x="662" y="339"/>
      <point x="702" y="353"/>
      <point x="735" y="353" type="curve"/>
      <point x="735" y="384" type="line"/>
      <point x="535" y="384" type="line"/>
      <point x="535" y="354" type="line"/>
      <point x="577" y="347"/>
      <point x="588" y="340"/>
      <point x="588" y="326" type="curve" smooth="yes"/>
      <point x="588" y="312"/>
      <point x="576" y="290"/>
      <point x="555" y="254" type="curve" smooth="yes"/>
      <point x="520" y="193"/>
      <point x="404" y="43"/>
      <point x="305" y="43" type="curve" smooth="yes"/>
      <point x="213" y="43"/>
      <point x="143" y="106"/>
      <point x="143" y="199" type="curve" smooth="yes"/>
      <point x="143" y="359"/>
      <point x="415" y="380"/>
      <point x="415" y="532" type="curve" smooth="yes"/>
      <point x="415" y="584"/>
      <point x="362" y="627"/>
      <point x="285" y="627" type="curve" smooth="yes"/>
      <point x="207" y="627"/>
      <point x="151" y="568"/>
      <point x="151" y="484" type="curve" smooth="yes"/>
      <point x="151" y="417"/>
      <point x="211" y="305"/>
      <point x="296" y="213" type="curve" smooth="yes"/>
      <point x="419" y="80"/>
      <point x="557" y="-14"/>
      <point x="628" y="-14" type="curve" smooth="yes"/>
      <point x="675" y="-14"/>
      <point x="721" y="-5"/>
      <point x="743" y="8" type="curve"/>
      <point x="734" y="37" type="line"/>
      <point x="726" y="32"/>
      <point x="717" y="29"/>
      <point x="705" y="28" type="curve" smooth="yes"/>
      <point x="632" y="20"/>
      <point x="490" y="124"/>
      <point x="361" y="258" type="curve" smooth="yes"/>
      <point x="275" y="346"/>
      <point x="215" y="451"/>
      <point x="215" y="511" type="curve" smooth="yes"/>
      <point x="215" y="561"/>
      <point x="237" y="597"/>
      <point x="267" y="597" type="curve" smooth="yes"/>
      <point x="316" y="597"/>
      <point x="335" y="545"/>
      <point x="335" y="500" type="curve" smooth="yes"/>
      <point x="335" y="381"/>
      <point x="63" y="371"/>
      <point x="63" y="153" type="curve" smooth="yes"/>
      <point x="63" y="51"/>
      <point x="147" y="-11"/>
    </contour>
  </outline>
</glyph>
<glyph name="quotesingle" format="2">
  <advance width="227"/>
  <unicode hex="0027"/>
  <outline>
    <contour>
      <point x="81" y="428" type="line"/>
      <point x="102" y="428" type="line"/>
      <point x="152" y="606" type="line"/>
      <point x="161" y="640"/>
      <point x="146" y="664"/>
      <point x="118" y="664" type="curve" smooth="yes"/>
      <point x="89" y="664"/>
      <point x="71" y="640"/>
      <point x="72" y="606" type="curve"/>
    </contour>
  </outline>
</glyph>
<glyph name="parenleft" format="2">
  <advance width="294"/>
  <unicode hex="0028"/>
  <outline>
    <contour>
      <point x="149" y="281" type="curve" smooth="yes"/>
      <point x="149" y="437"/>
      <point x="203" y="607"/>
      <point x="267" y="692" type="curve"/>
      <point x="242" y="720" type="line"/>
      <point x="149" y="634"/>
      <point x="81" y="452"/>
      <point x="81" y="281" type="curve" smooth="yes"/>
      <point x="81" y="110"/>
      <point x="149" y="-72"/>
      <point x="242" y="-158" type="curve"/>
      <point x="267" y="-130" type="line"/>
      <point x="203" y="-45"/>
      <point x="149" y="125"/>
    </contour>
  </outline>
</glyph>
<glyph name="parenright" format="2">
  <advance width="294"/>
  <unicode hex="0029"/>
  <outline>
    <contour>
      <point x="145" y="281" type="curve" smooth="yes"/>
      <point x="145" y="125"/>
      <point x="91" y="-45"/>
      <point x="27" y="-130" type="curve"/>
      <point x="52" y="-158" type="line"/>
      <point x="145" y="-72"/>
      <point x="213" y="110"/>
      <point x="213" y="281" type="curve" smooth="yes"/>
      <point x="213" y="452"/>
      <point x="145" y="634"/>
      <point x="52" y="720" type="curve"/>
      <point x="27" y="692" type="line"/>
      <point x="91" y="607"/>
      <point x="145" y="437"/>
    </contour>
  </outline>
</glyph>
<glyph name="asterisk" format="2">
  <advance width="316"/>
  <unicode hex="002A"/>
  <outline>
    <contour>
      <point x="155" y="533" type="curve" smooth="yes"/>
      <point x="161" y="533" type="line"/>
      <point x="161" y="540"/>
      <point x="181" y="582"/>
      <point x="181" y="597" type="curve" smooth="yes"/>
      <point x="181" y="613"/>
      <point x="171" y="624"/>
      <point x="156" y="624" type="curve" smooth="yes"/>
      <point x="141" y="624"/>
      <point x="130" y="614"/>
      <point x="130" y="598" type="curve" smooth="yes"/>
      <point x="130" y="586"/>
      <point x="155" y="541"/>
    </contour>
    <contour>
      <point x="178" y="527" type="curve" smooth="yes"/>
      <point x="183" y="522" type="line"/>
      <point x="188" y="527"/>
      <point x="231" y="542"/>
      <point x="242" y="554" type="curve"/>
      <point x="253" y="565"/>
      <point x="254" y="580"/>
      <point x="243" y="591" type="curve" smooth="yes"/>
      <point x="233" y="601"/>
      <point x="217" y="601"/>
      <point x="207" y="590" type="curve" smooth="yes"/>
      <point x="198" y="582"/>
      <point x="183" y="532"/>
    </contour>
    <contour>
      <point x="189" y="505" type="curve" smooth="yes"/>
      <point x="189" y="498" type="line"/>
      <point x="196" y="498"/>
      <point x="237" y="478"/>
      <point x="253" y="478" type="curve" smooth="yes"/>
      <point x="269" y="478"/>
      <point x="280" y="489"/>
      <point x="280" y="504" type="curve" smooth="yes"/>
      <point x="280" y="518"/>
      <point x="269" y="529"/>
      <point x="254" y="529" type="curve" smooth="yes"/>
      <point x="241" y="529"/>
      <point x="197" y="505"/>
    </contour>
    <contour>
      <point x="183" y="483" type="curve" smooth="yes"/>
      <point x="178" y="478" type="line"/>
      <point x="183" y="473"/>
      <point x="198" y="430"/>
      <point x="209" y="418" type="curve" smooth="yes"/>
      <point x="221" y="407"/>
      <point x="236" y="406"/>
      <point x="247" y="417" type="curve" smooth="yes"/>
      <point x="257" y="428"/>
      <point x="257" y="443"/>
      <point x="246" y="454" type="curve" smooth="yes"/>
      <point x="237" y="463"/>
      <point x="188" y="477"/>
    </contour>
    <contour>
      <point x="162" y="472" type="curve" smooth="yes"/>
      <point x="155" y="472" type="line"/>
      <point x="155" y="464"/>
      <point x="135" y="423"/>
      <point x="135" y="407" type="curve" smooth="yes"/>
      <point x="135" y="391"/>
      <point x="146" y="380"/>
      <point x="161" y="380" type="curve" smooth="yes"/>
      <point x="176" y="380"/>
      <point x="186" y="390"/>
      <point x="186" y="406" type="curve" smooth="yes"/>
      <point x="186" y="418"/>
      <point x="162" y="463"/>
    </contour>
    <contour>
      <point x="139" y="477" type="curve" smooth="yes"/>
      <point x="134" y="482" type="line"/>
      <point x="129" y="477"/>
      <point x="86" y="462"/>
      <point x="75" y="451" type="curve"/>
      <point x="63" y="439"/>
      <point x="63" y="424"/>
      <point x="73" y="413" type="curve" smooth="yes"/>
      <point x="84" y="403"/>
      <point x="99" y="403"/>
      <point x="110" y="414" type="curve" smooth="yes"/>
      <point x="119" y="423"/>
      <point x="133" y="472"/>
    </contour>
    <contour>
      <point x="128" y="500" type="curve" smooth="yes"/>
      <point x="128" y="506" type="line"/>
      <point x="121" y="506"/>
      <point x="79" y="526"/>
      <point x="64" y="526" type="curve" smooth="yes"/>
      <point x="47" y="526"/>
      <point x="36" y="515"/>
      <point x="36" y="500" type="curve" smooth="yes"/>
      <point x="36" y="486"/>
      <point x="47" y="475"/>
      <point x="63" y="475" type="curve" smooth="yes"/>
      <point x="75" y="475"/>
      <point x="120" y="500"/>
    </contour>
    <contour>
      <point x="134" y="522" type="curve" smooth="yes"/>
      <point x="139" y="526" type="line"/>
      <point x="133" y="532"/>
      <point x="119" y="574"/>
      <point x="107" y="586" type="curve" smooth="yes"/>
      <point x="96" y="597"/>
      <point x="80" y="598"/>
      <point x="70" y="587" type="curve" smooth="yes"/>
      <point x="59" y="577"/>
      <point x="59" y="561"/>
      <point x="71" y="550" type="curve" smooth="yes"/>
      <point x="79" y="542"/>
      <point x="128" y="527"/>
    </contour>
  </outline>
</glyph>
<glyph name="plus" format="2">
  <advance width="608"/>
  <unicode hex="002B"/>
  <outline>
    <contour>
      <point x="278" y="28" type="line"/>
      <point x="328" y="28" type="line"/>
      <point x="328" y="256" type="line"/>
      <point x="554" y="256" type="line"/>
      <point x="554" y="306" type="line"/>
      <point x="328" y="306" type="line"/>
      <point x="328" y="528" type="line"/>
      <point x="278" y="528" type="line"/>
      <point x="278" y="306" type="line"/>
      <point x="54" y="306" type="line"/>
      <point x="54" y="256" type="line"/>
      <point x="278" y="256" type="line"/>
    </contour>
  </outline>
</glyph>
<glyph name="comma" format="2">
  <advance width="245"/>
  <unicode hex="002C"/>
  <outline>
    <contour>
      <point x="54" y="-138" type="curve"/>
      <point x="64" y="-165" type="line"/>
      <point x="139" y="-135"/>
      <point x="191" y="-63"/>
      <point x="191" y="8" type="curve" smooth="yes"/>
      <point x="191" y="54"/>
      <point x="157" y="91"/>
      <point x="107" y="91" type="curve" smooth="yes"/>
      <point x="71" y="91"/>
      <point x="45" y="67"/>
      <point x="45" y="38" type="curve" smooth="yes"/>
      <point x="45" y="16"/>
      <point x="59" y="-5"/>
      <point x="79" y="-5" type="curve" smooth="yes"/>
      <point x="97" y="-5"/>
      <point x="100" y="2"/>
      <point x="115" y="2" type="curve" smooth="yes"/>
      <point x="129" y="2"/>
      <point x="137" y="-14"/>
      <point x="137" y="-37" type="curve" smooth="yes"/>
      <point x="137" y="-86"/>
      <point x="102" y="-125"/>
    </contour>
  </outline>
</glyph>
<glyph name="hyphen" format="2">
  <advance width="326"/>
  <unicode hex="002D"/>
  <outline>
    <contour>
      <point x="39" y="186" type="line"/>
      <point x="287" y="190" type="line"/>
      <point x="290" y="253" type="line"/>
      <point x="241" y="253" type="line"/>
      <point x="77" y="239" type="line"/>
      <point x="36" y="231" type="line"/>
    </contour>
  </outline>
</glyph>
<glyph name="period" format="2">
  <advance width="222"/>
  <unicode hex="002E"/>
  <outline>
    <contour>
      <point x="111" y="-6" type="curve" smooth="yes"/>
      <point x="142" y="-6"/>
      <point x="168" y="20"/>
      <point x="168" y="51" type="curve" smooth="yes"/>
      <point x="168" y="82"/>
      <point x="142" y="108"/>
      <point x="111" y="108" type="curve" smooth="yes"/>
      <point x="80" y="108"/>
      <point x="54" y="82"/>
      <point x="54" y="51" type="curve" smooth="yes"/>
      <point x="54" y="20"/>
      <point x="80" y="-6"/>
    </contour>
  </outline>
</glyph>
<glyph name="slash" format="2">
  <advance width="409"/>
  <unicode hex="002F"/>
  <outline>
    <contour>
      <point x="36" y="-162" type="line"/>
      <point x="89" y="-162" type="line"/>
      <point x="373" y="694" type="line"/>
      <point x="320" y="694" type="line"/>
    </contour>
  </outline>
</glyph>
<glyph name="zero" format="2">
  <advance width="495"/>
  <unicode hex="0030"/>
  <outline>
    <contour>
      <point x="247" y="-11" type="curve" smooth="yes"/>
      <point x="372" y="-11"/>
      <point x="459" y="81"/>
      <point x="459" y="212" type="curve" smooth="yes"/>
      <point x="459" y="343"/>
      <point x="372" y="435"/>
      <point x="247" y="435" type="curve" smooth="yes"/>
      <point x="124" y="435"/>
      <point x="36" y="344"/>
      <point x="36" y="213" type="curve" smooth="yes"/>
      <point x="36" y="82"/>
      <point x="124" y="-11"/>
    </contour>
    <contour>
      <point x="247" y="17" type="curve" smooth="yes"/>
      <point x="170" y="17"/>
      <point x="124" y="86"/>
      <point x="124" y="210" type="curve" smooth="yes"/>
      <point x="124" y="337"/>
      <point x="170" y="407"/>
      <point x="247" y="407" type="curve" smooth="yes"/>
      <point x="326" y="407"/>
      <point x="371" y="339"/>
      <point x="371" y="217" type="curve" smooth="yes"/>
      <point x="371" y="88"/>
      <point x="326" y="17"/>
    </contour>
  </outline>
</glyph>
<glyph name="one" format="2">
  <advance width="504"/>
  <unicode hex="0031"/>
  <outline>
    <contour>
      <point x="141" y="0" type="line"/>
      <point x="382" y="0" type="line"/>
      <point x="382" y="20" type="line"/>
      <point x="333" y="39"/>
      <point x="302" y="25"/>
      <point x="300" y="89" type="curve" smooth="yes"/>
      <point x="295" y="264"/>
      <point x="296" y="268"/>
      <point x="302" y="443" type="curve"/>
      <point x="285" y="449" type="line"/>
      <point x="89" y="381" type="line"/>
      <point x="97" y="346" type="line"/>
      <point x="261" y="369" type="line"/>
      <point x="221" y="389" type="line"/>
      <point x="225" y="236"/>
      <point x="227" y="127"/>
      <point x="224" y="89" type="curve" smooth="yes"/>
      <point x="219" y="25"/>
      <point x="203" y="39"/>
      <point x="141" y="20" type="curve"/>
    </contour>
  </outline>
</glyph>
<glyph name="four" format="2">
  <advance width="540"/>
  <unicode hex="0034"/>
  <guideline x="348" y="-171" angle="0"/>
  <outline>
    <contour>
      <point x="311" y="-171" type="curve"/>
      <point x="391" y="-171" type="line"/>
      <point x="391" y="460" type="line"/>
      <point x="294" y="435" type="line"/>
      <point x="27" y="0" type="line"/>
      <point x="504" y="0" type="line"/>
      <point x="504" y="60" type="line"/>
      <point x="83" y="60" type="line"/>
      <point x="94" y="44" type="line"/>
      <point x="331" y="418" type="line"/>
      <point x="319" y="420" type="line"/>
      <point x="313" y="257"/>
      <point x="313" y="-149"/>
    </contour>
  </outline>
</glyph>
<glyph name="six" format="2">
  <advance width="504"/>
  <unicode hex="0036"/>
  <outline>
    <contour>
      <point x="241" y="-11" type="curve" smooth="yes"/>
      <point x="374" y="-11"/>
      <point x="468" y="81"/>
      <point x="468" y="210" type="curve" smooth="yes"/>
      <point x="468" y="318"/>
      <point x="388" y="395"/>
      <point x="274" y="395" type="curve" smooth="yes"/>
      <point x="163" y="395"/>
      <point x="84" y="310"/>
      <point x="84" y="190" type="curve"/>
      <point x="122" y="208" type="line"/>
      <point x="122" y="294"/>
      <point x="179" y="354"/>
      <point x="257" y="354" type="curve" smooth="yes"/>
      <point x="328" y="354"/>
      <point x="380" y="291"/>
      <point x="380" y="201" type="curve" smooth="yes"/>
      <point x="380" y="100"/>
      <point x="328" y="29"/>
      <point x="257" y="29" type="curve" smooth="yes"/>
      <point x="179" y="29"/>
      <point x="122" y="103"/>
      <point x="122" y="208" type="curve" smooth="yes"/>
      <point x="122" y="373"/>
      <point x="234" y="534"/>
      <point x="391" y="597" type="curve"/>
      <point x="373" y="642" type="line"/>
      <point x="175" y="563"/>
      <point x="36" y="383"/>
      <point x="36" y="208" type="curve" smooth="yes"/>
      <point x="36" y="80"/>
      <point x="120" y="-11"/>
    </contour>
  </outline>
</glyph>
<glyph name="eight" format="2">
  <advance width="531"/>
  <unicode hex="0038"/>
  <outline>
    <contour>
      <point x="258" y="-11" type="curve" smooth="yes"/>
      <point x="386" y="-11"/>
      <point x="477" y="66"/>
      <point x="477" y="176" type="curve" smooth="yes"/>
      <point x="477" y="270"/>
      <point x="388" y="337"/>
      <point x="263" y="337" type="curve" smooth="yes"/>
      <point x="140" y="337"/>
      <point x="54" y="268"/>
      <point x="54" y="171" type="curve" smooth="yes"/>
      <point x="54" y="64"/>
      <point x="138" y="-11"/>
    </contour>
    <contour>
      <point x="270" y="29" type="curve" smooth="yes"/>
      <point x="196" y="29"/>
      <point x="142" y="89"/>
      <point x="142" y="174" type="curve" smooth="yes"/>
      <point x="142" y="247"/>
      <point x="193" y="299"/>
      <point x="263" y="299" type="curve" smooth="yes"/>
      <point x="335" y="299"/>
      <point x="389" y="246"/>
      <point x="389" y="170" type="curve" smooth="yes"/>
      <point x="389" y="87"/>
      <point x="338" y="29"/>
    </contour>
    <contour>
      <point x="267" y="303" type="curve" smooth="yes"/>
      <point x="373" y="303"/>
      <point x="449" y="375"/>
      <point x="449" y="476" type="curve" smooth="yes"/>
      <point x="449" y="564"/>
      <point x="372" y="626"/>
      <point x="264" y="626" type="curve" smooth="yes"/>
      <point x="153" y="626"/>
      <point x="76" y="560"/>
      <point x="76" y="466" type="curve" smooth="yes"/>
      <point x="76" y="371"/>
      <point x="155" y="303"/>
    </contour>
    <contour>
      <point x="259" y="340" type="curve" smooth="yes"/>
      <point x="198" y="340"/>
      <point x="156" y="394"/>
      <point x="156" y="470" type="curve" smooth="yes"/>
      <point x="156" y="538"/>
      <point x="196" y="586"/>
      <point x="254" y="586" type="curve" smooth="yes"/>
      <point x="321" y="586"/>
      <point x="369" y="538"/>
      <point x="369" y="470" type="curve" smooth="yes"/>
      <point x="369" y="394"/>
      <point x="323" y="340"/>
    </contour>
  </outline>
</glyph>
<glyph name="colon" format="2">
  <advance width="239"/>
  <unicode hex="003A"/>
  <outline>
    <contour>
      <point x="128" y="213" type="curve" smooth="yes"/>
      <point x="159" y="213"/>
      <point x="185" y="234"/>
      <point x="185" y="259" type="curve" smooth="yes"/>
      <point x="185" y="284"/>
      <point x="159" y="305"/>
      <point x="128" y="305" type="curve" smooth="yes"/>
      <point x="97" y="305"/>
      <point x="73" y="284"/>
      <point x="73" y="259" type="curve" smooth="yes"/>
      <point x="73" y="234"/>
      <point x="97" y="213"/>
    </contour>
    <contour>
      <point x="111" y="-5" type="curve" smooth="yes"/>
      <point x="143" y="-5"/>
      <point x="166" y="16"/>
      <point x="166" y="41" type="curve" smooth="yes"/>
      <point x="166" y="66"/>
      <point x="143" y="87"/>
      <point x="111" y="87" type="curve" smooth="yes"/>
      <point x="80" y="87"/>
      <point x="54" y="66"/>
      <point x="54" y="41" type="curve" smooth="yes"/>
      <point x="54" y="16"/>
      <point x="80" y="-5"/>
    </contour>
  </outline>
</glyph>
<glyph name="semicolon" format="2">
  <advance width="245"/>
  <unicode hex="003B"/>
  <outline>
    <contour>
      <point x="63" y="-147" type="curve"/>
      <point x="72" y="-176" type="line"/>
      <point x="138" y="-146"/>
      <point x="185" y="-68"/>
      <point x="185" y="12" type="curve" smooth="yes"/>
      <point x="185" y="59"/>
      <point x="155" y="92"/>
      <point x="113" y="92" type="curve" smooth="yes"/>
      <point x="79" y="92"/>
      <point x="54" y="73"/>
      <point x="54" y="44" type="curve" smooth="yes"/>
      <point x="54" y="17"/>
      <point x="67" y="-3"/>
      <point x="86" y="-3" type="curve" smooth="yes"/>
      <point x="103" y="-3"/>
      <point x="106" y="5"/>
      <point x="121" y="5" type="curve" smooth="yes"/>
      <point x="134" y="5"/>
      <point x="142" y="-12"/>
      <point x="142" y="-37" type="curve" smooth="yes"/>
      <point x="142" y="-88"/>
      <point x="109" y="-134"/>
    </contour>
    <contour>
      <point x="138" y="213" type="curve" smooth="yes"/>
      <point x="169" y="213"/>
      <point x="191" y="233"/>
      <point x="191" y="258" type="curve" smooth="yes"/>
      <point x="191" y="281"/>
      <point x="169" y="300"/>
      <point x="138" y="300" type="curve" smooth="yes"/>
      <point x="109" y="300"/>
      <point x="84" y="281"/>
      <point x="84" y="258" type="curve" smooth="yes"/>
      <point x="84" y="233"/>
      <point x="109" y="213"/>
    </contour>
  </outline>
</glyph>
<glyph name="less" format="2">
  <advance width="575"/>
  <unicode hex="003C"/>
  <outline>
    <contour>
      <point x="498" y="65" type="line"/>
      <point x="521" y="110" type="line"/>
      <point x="100" y="278" type="line"/>
      <point x="520" y="448" type="line"/>
      <point x="499" y="494" type="line"/>
      <point x="54" y="310" type="line"/>
      <point x="54" y="247" type="line"/>
    </contour>
  </outline>
</glyph>
<glyph name="equal" format="2">
  <advance width="568"/>
  <unicode hex="003D"/>
  <outline>
    <contour>
      <point x="54" y="366" type="line"/>
      <point x="514" y="366" type="line"/>
      <point x="514" y="416" type="line"/>
      <point x="54" y="416" type="line"/>
    </contour>
    <contour>
      <point x="54" y="145" type="line"/>
      <point x="514" y="145" type="line"/>
      <point x="514" y="195" type="line"/>
      <point x="54" y="195" type="line"/>
    </contour>
  </outline>
</glyph>
<glyph name="greater" format="2">
  <advance width="575"/>
  <unicode hex="003E"/>
  <outline>
    <contour>
      <point x="77" y="65" type="line"/>
      <point x="521" y="247" type="line"/>
      <point x="521" y="310" type="line"/>
      <point x="76" y="494" type="line"/>
      <point x="55" y="448" type="line"/>
      <point x="475" y="278" type="line"/>
      <point x="54" y="110" type="line"/>
    </contour>
  </outline>
</glyph>
<glyph name="question" format="2">
  <advance width="374"/>
  <unicode hex="003F"/>
  <outline>
    <contour>
      <point x="185" y="170" type="curve" smooth="yes"/>
      <point x="194" y="170"/>
      <point x="227" y="184"/>
      <point x="266" y="203" type="curve"/>
      <point x="264" y="216" type="line"/>
      <point x="232" y="217" type="line" smooth="yes"/>
      <point x="207" y="218"/>
      <point x="189" y="236"/>
      <point x="189" y="260" type="curve" smooth="yes"/>
      <point x="189" y="347"/>
      <point x="327" y="346"/>
      <point x="329" y="466" type="curve"/>
      <point x="329" y="527"/>
      <point x="286" y="571"/>
      <point x="225" y="571" type="curve" smooth="yes"/>
      <point x="196" y="571"/>
      <point x="156" y="554"/>
      <point x="117" y="530" type="curve" smooth="yes"/>
      <point x="85" y="508"/>
      <point x="63" y="471"/>
      <point x="63" y="440" type="curve" smooth="yes"/>
      <point x="63" y="409"/>
      <point x="135" y="423"/>
      <point x="135" y="454" type="curve" smooth="yes"/>
      <point x="135" y="470"/>
      <point x="128" y="466"/>
      <point x="128" y="481" type="curve" smooth="yes"/>
      <point x="128" y="508"/>
      <point x="151" y="527"/>
      <point x="179" y="527" type="curve" smooth="yes"/>
      <point x="229" y="527"/>
      <point x="258" y="500"/>
      <point x="257" y="460" type="curve" smooth="yes"/>
      <point x="252" y="317"/>
      <point x="117" y="317"/>
      <point x="117" y="233" type="curve" smooth="yes"/>
      <point x="117" y="196"/>
      <point x="149" y="170"/>
    </contour>
    <contour>
      <point x="194" y="-6" type="curve" smooth="yes"/>
      <point x="216" y="-6"/>
      <point x="234" y="12"/>
      <point x="234" y="34" type="curve" smooth="yes"/>
      <point x="234" y="56"/>
      <point x="216" y="74"/>
      <point x="194" y="74" type="curve" smooth="yes"/>
      <point x="172" y="74"/>
      <point x="154" y="56"/>
      <point x="154" y="34" type="curve" smooth="yes"/>
      <point x="154" y="12"/>
      <point x="172" y="-6"/>
    </contour>
  </outline>
</glyph>
<glyph name="at" format="2">
  <advance width="759"/>
  <unicode hex="0040"/>
  <outline>
    <contour>
      <point x="401" y="-118" type="curve" smooth="yes"/>
      <point x="497" y="-118"/>
      <point x="606" y="-72"/>
      <point x="663" y="-7" type="curve"/>
      <point x="646" y="14" type="line"/>
      <point x="594" y="-46"/>
      <point x="493" y="-88"/>
      <point x="401" y="-88" type="curve" smooth="yes"/>
      <point x="210" y="-88"/>
      <point x="75" y="47"/>
      <point x="75" y="238" type="curve" smooth="yes"/>
      <point x="75" y="437"/>
      <point x="210" y="578"/>
      <point x="401" y="578" type="curve" smooth="yes"/>
      <point x="567" y="578"/>
      <point x="684" y="466"/>
      <point x="684" y="308" type="curve" smooth="yes"/>
      <point x="684" y="183"/>
      <point x="628" y="95"/>
      <point x="549" y="95" type="curve" smooth="yes"/>
      <point x="511" y="95"/>
      <point x="487" y="110"/>
      <point x="491" y="130" type="curve" smooth="yes"/>
      <point x="546" y="393" type="line"/>
      <point x="532" y="416"/>
      <point x="478" y="432"/>
      <point x="416" y="432" type="curve" smooth="yes"/>
      <point x="287" y="432"/>
      <point x="196" y="333"/>
      <point x="196" y="193" type="curve" smooth="yes"/>
      <point x="196" y="114"/>
      <point x="254" y="58"/>
      <point x="336" y="58" type="curve" smooth="yes"/>
      <point x="365" y="58"/>
      <point x="405" y="79"/>
      <point x="433" y="109" type="curve"/>
      <point x="440" y="82"/>
      <point x="481" y="63"/>
      <point x="533" y="63" type="curve" smooth="yes"/>
      <point x="639" y="63"/>
      <point x="714" y="165"/>
      <point x="714" y="308" type="curve" smooth="yes"/>
      <point x="714" y="484"/>
      <point x="584" y="608"/>
      <point x="401" y="608" type="curve" smooth="yes"/>
      <point x="192" y="608"/>
      <point x="45" y="455"/>
      <point x="45" y="238" type="curve" smooth="yes"/>
      <point x="45" y="29"/>
      <point x="192" y="-118"/>
    </contour>
    <contour>
      <point x="269" y="211" type="curve" smooth="yes"/>
      <point x="269" y="319"/>
      <point x="322" y="396"/>
      <point x="396" y="396" type="curve" smooth="yes"/>
      <point x="426" y="396"/>
      <point x="459" y="387"/>
      <point x="476" y="374" type="curve"/>
      <point x="427" y="140" type="line"/>
      <point x="399" y="117"/>
      <point x="369" y="100"/>
      <point x="354" y="100" type="curve" smooth="yes"/>
      <point x="304" y="100"/>
      <point x="269" y="146"/>
    </contour>
  </outline>
</glyph>
<glyph name="A" format="2">
  <advance width="711"/>
  <unicode hex="0041"/>
  <anchor x="354" y="0" name="bottom"/>
  <anchor x="636" y="10" name="ogonek"/>
  <anchor x="354" y="616" name="top"/>
  <outline>
    <contour>
      <point x="421" y="24" type="curve"/>
      <point x="421" y="-1" type="line"/>
      <point x="693" y="-2" type="line"/>
      <point x="693" y="23" type="line"/>
      <point x="623" y="37"/>
      <point x="602" y="63"/>
      <point x="572" y="134" type="curve" smooth="yes"/>
      <point x="504" y="305"/>
      <point x="436" y="476"/>
      <point x="368" y="647" type="curve"/>
      <point x="322" y="575" type="line"/>
      <point x="319" y="554" type="line"/>
      <point x="483" y="140" type="line" smooth="yes"/>
      <point x="521" y="43"/>
      <point x="505" y="42"/>
    </contour>
    <contour>
      <point x="18" y="25" type="curve"/>
      <point x="18" y="0" type="line"/>
      <point x="266" y="0" type="line"/>
      <point x="266" y="25" type="line"/>
      <point x="195" y="31"/>
      <point x="166" y="57"/>
      <point x="194" y="130" type="curve" smooth="yes"/>
      <point x="361" y="563" type="line"/>
      <point x="322" y="575" type="line"/>
      <point x="257" y="403"/>
      <point x="187" y="198"/>
      <point x="125" y="83" type="curve" smooth="yes"/>
      <point x="106" y="49"/>
      <point x="62" y="25"/>
    </contour>
    <contour>
      <point x="214" y="258" type="line"/>
      <point x="477" y="257" type="line"/>
      <point x="463" y="297" type="line"/>
      <point x="231" y="298" type="line"/>
    </contour>
  </outline>
</glyph>
<glyph name="C" format="2">
  <advance width="723"/>
  <unicode hex="0043"/>
  <anchor x="358" y="0" name="bottom"/>
  <anchor x="358" y="616" name="top"/>
  <outline>
    <contour>
      <point x="407" y="-11" type="curve" smooth="yes"/>
      <point x="482" y="-11"/>
      <point x="575" y="9"/>
      <point x="631" y="38" type="curve"/>
      <point x="649" y="106"/>
      <point x="665" y="174"/>
      <point x="669" y="201" type="curve"/>
      <point x="633" y="200" type="line"/>
      <point x="609" y="102"/>
      <point x="523" y="33"/>
      <point x="425" y="33" type="curve" smooth="yes"/>
      <point x="271" y="33"/>
      <point x="162" y="158"/>
      <point x="162" y="335" type="curve" smooth="yes"/>
      <point x="162" y="482"/>
      <point x="268" y="586"/>
      <point x="417" y="586" type="curve" smooth="yes"/>
      <point x="509" y="586"/>
      <point x="585" y="522"/>
      <point x="600" y="432" type="curve"/>
      <point x="640" y="432" type="line"/>
      <point x="637" y="599" type="line"/>
      <point x="587" y="573" type="line"/>
      <point x="554" y="605"/>
      <point x="480" y="627"/>
      <point x="407" y="627" type="curve" smooth="yes"/>
      <point x="200" y="627"/>
      <point x="54" y="496"/>
      <point x="54" y="312" type="curve" smooth="yes"/>
      <point x="54" y="123"/>
      <point x="200" y="-11"/>
    </contour>
  </outline>
</glyph>
<glyph name="E" format="2">
  <advance width="580"/>
  <unicode hex="0045"/>
  <anchor x="288" y="0" name="bottom"/>
  <anchor x="522" y="10" name="ogonek"/>
  <anchor x="288" y="616" name="top"/>
  <anchor x="16" y="616" name="topleft"/>
  <outline>
    <contour>
      <point x="20" y="-2" type="line"/>
      <point x="45" y="-1"/>
      <point x="93" y="0"/>
      <point x="138" y="0" type="curve"/>
      <point x="285" y="0"/>
      <point x="443" y="-1"/>
      <point x="520" y="-3" type="curve"/>
      <point x="532" y="44"/>
      <point x="542" y="110"/>
      <point x="544" y="157" type="curve"/>
      <point x="515" y="157" type="line"/>
      <point x="503" y="90"/>
      <point x="464" y="45"/>
      <point x="421" y="42" type="curve" smooth="yes"/>
      <point x="389" y="40"/>
      <point x="325" y="39"/>
      <point x="268" y="39" type="curve" smooth="yes"/>
      <point x="234" y="39"/>
      <point x="214" y="44"/>
      <point x="203" y="54" type="curve" smooth="yes"/>
      <point x="193" y="64"/>
      <point x="190" y="78"/>
      <point x="190" y="98" type="curve" smooth="yes"/>
      <point x="190" y="267"/>
      <point x="189" y="414"/>
      <point x="191" y="574" type="curve"/>
      <point x="228" y="576"/>
      <point x="261" y="576"/>
      <point x="283" y="576" type="curve" smooth="yes"/>
      <point x="311" y="576"/>
      <point x="338" y="576"/>
      <point x="370" y="574" type="curve" smooth="yes"/>
      <point x="395" y="572"/>
      <point x="418" y="544"/>
      <point x="426" y="499" type="curve"/>
      <point x="460" y="499" type="line"/>
      <point x="461" y="536"/>
      <point x="466" y="586"/>
      <point x="473" y="619" type="curve"/>
      <point x="408" y="617"/>
      <point x="273" y="616"/>
      <point x="148" y="616" type="curve"/>
      <point x="99" y="616"/>
      <point x="47" y="617"/>
      <point x="20" y="618" type="curve"/>
      <point x="20" y="593" type="line"/>
      <point x="53" y="588"/>
      <point x="77" y="585"/>
      <point x="92" y="571" type="curve" smooth="yes"/>
      <point x="101" y="562"/>
      <point x="107" y="548"/>
      <point x="107" y="525" type="curve" smooth="yes"/>
      <point x="109" y="380"/>
      <point x="109" y="236"/>
      <point x="107" y="91" type="curve" smooth="yes"/>
      <point x="107" y="67"/>
      <point x="102" y="52"/>
      <point x="92" y="42" type="curve" smooth="yes"/>
      <point x="78" y="29"/>
      <point x="55" y="26"/>
      <point x="20" y="23" type="curve"/>
    </contour>
    <contour>
      <point x="382" y="206" type="line"/>
      <point x="407" y="206" type="line"/>
      <point x="402" y="272"/>
      <point x="402" y="364"/>
      <point x="407" y="430" type="curve"/>
      <point x="381" y="430" type="line"/>
      <point x="380" y="424"/>
      <point x="375" y="410"/>
      <point x="370" y="396" type="curve"/>
      <point x="353" y="360"/>
      <point x="330" y="336"/>
      <point x="270" y="336" type="curve" smooth="yes"/>
      <point x="131" y="336" type="line"/>
      <point x="131" y="296" type="line"/>
      <point x="270" y="296" type="line" smooth="yes"/>
      <point x="337" y="296"/>
      <point x="359" y="274"/>
      <point x="371" y="242" type="curve" smooth="yes"/>
    </contour>
  </outline>
</glyph>
<glyph name="G" format="2">
  <advance width="711"/>
  <unicode hex="0047"/>
  <anchor x="354" y="0" name="bottom"/>
  <anchor x="354" y="616" name="top"/>
  <outline>
    <contour>
      <point x="395" y="-11" type="curve" smooth="yes"/>
      <point x="479" y="-11"/>
      <point x="580" y="11"/>
      <point x="635" y="43" type="curve"/>
      <point x="631" y="56" type="line"/>
      <point x="613" y="57"/>
      <point x="603" y="67"/>
      <point x="603" y="79" type="curve"/>
      <point x="603" y="208" type="line"/>
      <point x="603" y="233"/>
      <point x="616" y="255"/>
      <point x="639" y="260" type="curve"/>
      <point x="667" y="266" type="line"/>
      <point x="667" y="295" type="line"/>
      <point x="419" y="295" type="line"/>
      <point x="419" y="261" type="line"/>
      <point x="476" y="252"/>
      <point x="520" y="233"/>
      <point x="520" y="196" type="curve"/>
      <point x="520" y="76" type="line"/>
      <point x="520" y="55"/>
      <point x="485" y="33"/>
      <point x="440" y="33" type="curve" smooth="yes"/>
      <point x="258" y="33"/>
      <point x="148" y="141"/>
      <point x="148" y="333" type="curve" smooth="yes"/>
      <point x="148" y="482"/>
      <point x="254" y="588"/>
      <point x="409" y="588" type="curve" smooth="yes"/>
      <point x="505" y="588"/>
      <point x="575" y="528"/>
      <point x="580" y="444" type="curve"/>
      <point x="611" y="444" type="line"/>
      <point x="613" y="495"/>
      <point x="620" y="558"/>
      <point x="627" y="595" type="curve"/>
      <point x="577" y="614"/>
      <point x="483" y="627"/>
      <point x="401" y="627" type="curve" smooth="yes"/>
      <point x="196" y="627"/>
      <point x="54" y="495"/>
      <point x="54" y="308" type="curve" smooth="yes"/>
      <point x="54" y="121"/>
      <point x="194" y="-11"/>
    </contour>
  </outline>
</glyph>
<glyph name="H" format="2">
  <advance width="752"/>
  <unicode hex="0048"/>
  <note>
H
</note>
  <anchor x="376" y="0" name="bottom"/>
  <anchor x="376" y="462" name="center"/>
  <anchor x="376" y="616" name="top"/>
  <anchor x="16" y="616" name="topleft"/>
  <outline>
    <contour>
      <point x="12" y="0" type="line"/>
      <point x="284" y="0" type="line"/>
      <point x="284" y="25" type="line"/>
      <point x="257" y="33"/>
      <point x="214" y="39"/>
      <point x="203" y="51" type="curve" smooth="yes"/>
      <point x="193" y="61"/>
      <point x="188" y="77"/>
      <point x="188" y="104" type="curve" smooth="yes"/>
      <point x="187" y="178"/>
      <point x="187" y="252"/>
      <point x="186" y="326" type="curve" smooth="yes"/>
      <point x="185" y="388"/>
      <point x="187" y="450"/>
      <point x="188" y="512" type="curve" smooth="yes"/>
      <point x="188" y="539"/>
      <point x="194" y="556"/>
      <point x="203" y="565" type="curve" smooth="yes"/>
      <point x="214" y="577"/>
      <point x="257" y="583"/>
      <point x="284" y="591" type="curve"/>
      <point x="284" y="616" type="line"/>
      <point x="12" y="616" type="line"/>
      <point x="12" y="591" type="line"/>
      <point x="40" y="583"/>
      <point x="83" y="576"/>
      <point x="94" y="564" type="curve" smooth="yes"/>
      <point x="103" y="553"/>
      <point x="107" y="538"/>
      <point x="107" y="512" type="curve" smooth="yes"/>
      <point x="108" y="450"/>
      <point x="109" y="389"/>
      <point x="109" y="327" type="curve" smooth="yes"/>
      <point x="109" y="253"/>
      <point x="108" y="178"/>
      <point x="107" y="104" type="curve" smooth="yes"/>
      <point x="107" y="78"/>
      <point x="103" y="63"/>
      <point x="94" y="52" type="curve" smooth="yes"/>
      <point x="83" y="40"/>
      <point x="40" y="33"/>
      <point x="12" y="25" type="curve"/>
    </contour>
    <contour>
      <point x="468" y="0" type="line"/>
      <point x="740" y="0" type="line"/>
      <point x="740" y="25" type="line"/>
      <point x="713" y="33"/>
      <point x="671" y="39"/>
      <point x="660" y="51" type="curve" smooth="yes"/>
      <point x="650" y="61"/>
      <point x="645" y="77"/>
      <point x="645" y="104" type="curve" smooth="yes"/>
      <point x="644" y="179"/>
      <point x="644" y="255"/>
      <point x="643" y="330" type="curve" smooth="yes"/>
      <point x="642" y="391"/>
      <point x="644" y="451"/>
      <point x="645" y="512" type="curve" smooth="yes"/>
      <point x="645" y="539"/>
      <point x="649" y="554"/>
      <point x="660" y="565" type="curve" smooth="yes"/>
      <point x="671" y="577"/>
      <point x="713" y="583"/>
      <point x="740" y="591" type="curve"/>
      <point x="740" y="616" type="line"/>
      <point x="468" y="616" type="line"/>
      <point x="468" y="591" type="line"/>
      <point x="496" y="583"/>
      <point x="540" y="576"/>
      <point x="551" y="564" type="curve" smooth="yes"/>
      <point x="560" y="553"/>
      <point x="564" y="538"/>
      <point x="564" y="512" type="curve" smooth="yes"/>
      <point x="565" y="451"/>
      <point x="566" y="390"/>
      <point x="566" y="329" type="curve" smooth="yes"/>
      <point x="566" y="254"/>
      <point x="565" y="179"/>
      <point x="564" y="104" type="curve" smooth="yes"/>
      <point x="564" y="78"/>
      <point x="560" y="63"/>
      <point x="551" y="52" type="curve" smooth="yes"/>
      <point x="540" y="40"/>
      <point x="496" y="33"/>
      <point x="468" y="25" type="curve"/>
    </contour>
    <contour>
      <point x="154" y="304" type="line"/>
      <point x="597" y="304" type="line"/>
      <point x="597" y="349" type="line"/>
      <point x="154" y="349" type="line"/>
    </contour>
  </outline>
</glyph>
<glyph name="I" format="2">
  <advance width="297"/>
  <unicode hex="0049"/>
  <note>
I
</note>
  <anchor x="148" y="0" name="bottom"/>
  <anchor x="270" y="10" name="ogonek"/>
  <anchor x="148" y="616" name="top"/>
  <anchor x="16" y="616" name="topleft"/>
  <outline>
    <contour>
      <point x="12" y="25" type="curve"/>
      <point x="12" y="0" type="line"/>
      <point x="285" y="0" type="line"/>
      <point x="285" y="25" type="line"/>
      <point x="240" y="31"/>
      <point x="217" y="32"/>
      <point x="205" y="41" type="curve" smooth="yes"/>
      <point x="194" y="49"/>
      <point x="190" y="63"/>
      <point x="190" y="91" type="curve" smooth="yes"/>
      <point x="188" y="217"/>
      <point x="190" y="327"/>
      <point x="190" y="525" type="curve" smooth="yes"/>
      <point x="190" y="555"/>
      <point x="199" y="570"/>
      <point x="214" y="577" type="curve" smooth="yes"/>
      <point x="231" y="586"/>
      <point x="255" y="586"/>
      <point x="285" y="591" type="curve"/>
      <point x="285" y="616" type="line"/>
      <point x="20" y="616" type="line"/>
      <point x="20" y="593" type="line"/>
      <point x="55" y="587"/>
      <point x="79" y="586"/>
      <point x="92" y="575" type="curve" smooth="yes"/>
      <point x="102" y="566"/>
      <point x="107" y="552"/>
      <point x="107" y="525" type="curve" smooth="yes"/>
      <point x="109" y="382"/>
      <point x="109" y="234"/>
      <point x="107" y="91" type="curve" smooth="yes"/>
      <point x="107" y="62"/>
      <point x="103" y="47"/>
      <point x="93" y="39" type="curve" smooth="yes"/>
      <point x="78" y="27"/>
      <point x="53" y="30"/>
    </contour>
  </outline>
</glyph>
<glyph name="J" format="2">
  <advance width="279"/>
  <unicode hex="004A"/>
  <anchor x="136" y="0" name="bottom"/>
  <anchor x="136" y="616" name="top"/>
  <outline>
    <contour>
      <point x="-4" y="-232" type="curve" smooth="yes"/>
      <point x="30" y="-232"/>
      <point x="82" y="-192"/>
      <point x="101" y="-166" type="curve" smooth="yes"/>
      <point x="153" y="-98"/>
      <point x="183" y="29"/>
      <point x="181" y="148" type="curve" smooth="yes"/>
      <point x="179" y="341"/>
      <point x="179" y="332"/>
      <point x="181" y="525" type="curve" smooth="yes"/>
      <point x="181" y="555"/>
      <point x="186" y="569"/>
      <point x="199" y="577" type="curve" smooth="yes"/>
      <point x="213" y="584"/>
      <point x="236" y="585"/>
      <point x="271" y="591" type="curve"/>
      <point x="271" y="616" type="line"/>
      <point x="20" y="616" type="line"/>
      <point x="20" y="591" type="line"/>
      <point x="53" y="587"/>
      <point x="77" y="586"/>
      <point x="92" y="574" type="curve" smooth="yes"/>
      <point x="103" y="565"/>
      <point x="108" y="551"/>
      <point x="108" y="525" type="curve" smooth="yes"/>
      <point x="108" y="81" type="line" smooth="yes"/>
      <point x="108" y="33"/>
      <point x="108" y="-90"/>
      <point x="77" y="-138" type="curve" smooth="yes"/>
      <point x="70" y="-150"/>
      <point x="60" y="-157"/>
      <point x="48" y="-157" type="curve" smooth="yes"/>
      <point x="29" y="-158"/>
      <point x="27" y="-135"/>
      <point x="8" y="-134" type="curve" smooth="yes"/>
      <point x="-25" y="-134"/>
      <point x="-48" y="-163"/>
      <point x="-48" y="-203" type="curve" smooth="yes"/>
      <point x="-48" y="-220"/>
      <point x="-30" y="-232"/>
    </contour>
  </outline>
</glyph>
<glyph name="L" format="2">
  <advance width="621"/>
  <unicode hex="004C"/>
  <anchor x="304" y="0" name="bottom"/>
  <anchor x="304" y="308" name="center"/>
  <anchor x="304" y="616" name="top"/>
  <anchor x="592" y="616" name="topright"/>
  <outline>
    <contour>
      <point x="20" y="23" type="curve"/>
      <point x="20" y="-3" type="line"/>
      <point x="108" y="-1"/>
      <point x="188" y="0"/>
      <point x="268" y="0" type="curve"/>
      <point x="268" y="43" type="line"/>
      <point x="206" y="45"/>
      <point x="189" y="43"/>
      <point x="189" y="105" type="curve" smooth="yes"/>
      <point x="187" y="234"/>
      <point x="186" y="318"/>
      <point x="189" y="517" type="curve" smooth="yes"/>
      <point x="189" y="553"/>
      <point x="191" y="567"/>
      <point x="212" y="577" type="curve" smooth="yes"/>
      <point x="223" y="582"/>
      <point x="241" y="585"/>
      <point x="276" y="588" type="curve"/>
      <point x="276" y="616" type="line"/>
      <point x="20" y="616" type="line"/>
      <point x="20" y="592" type="line"/>
      <point x="55" y="587"/>
      <point x="78" y="585"/>
      <point x="91" y="576" type="curve" smooth="yes"/>
      <point x="102" y="568"/>
      <point x="106" y="554"/>
      <point x="107" y="525" type="curve" smooth="yes"/>
      <point x="110" y="382"/>
      <point x="109" y="234"/>
      <point x="106" y="91" type="curve" smooth="yes"/>
      <point x="105" y="63"/>
      <point x="102" y="49"/>
      <point x="92" y="40" type="curve" smooth="yes"/>
      <point x="79" y="30"/>
      <point x="57" y="29"/>
    </contour>
    <contour>
      <point x="268" y="43" type="curve"/>
      <point x="268" y="0" type="line"/>
      <point x="347" y="3"/>
      <point x="453" y="2"/>
      <point x="525" y="-2" type="curve"/>
      <point x="563" y="108"/>
      <point x="585" y="187"/>
      <point x="585" y="187" type="curve"/>
      <point x="556" y="200" type="line"/>
      <point x="513" y="104"/>
      <point x="439" y="48"/>
      <point x="373" y="43" type="curve"/>
      <point x="329" y="42"/>
      <point x="289" y="43"/>
    </contour>
  </outline>
</glyph>
<glyph name="M" format="2">
  <advance width="864"/>
  <unicode hex="004D"/>
  <anchor x="428" y="0" name="bottom"/>
  <anchor x="428" y="616" name="top"/>
  <outline>
    <contour>
      <point x="154" y="540" type="curve" smooth="yes"/>
      <point x="409" y="-16" type="line"/>
      <point x="702" y="586" type="line"/>
      <point x="672" y="616" type="line"/>
      <point x="423" y="107" type="line"/>
      <point x="441" y="117" type="line"/>
      <point x="213" y="616" type="line"/>
      <point x="44" y="616" type="line"/>
      <point x="44" y="591" type="line"/>
      <point x="84" y="587" type="line" smooth="yes"/>
      <point x="113" y="584"/>
      <point x="142" y="565"/>
    </contour>
    <contour>
      <point x="12" y="26" type="curve"/>
      <point x="12" y="1" type="line"/>
      <point x="244" y="1" type="line"/>
      <point x="244" y="26" type="line"/>
      <point x="216" y="34"/>
      <point x="168" y="41"/>
      <point x="157" y="53" type="curve" smooth="yes"/>
      <point x="148" y="64"/>
      <point x="143" y="79"/>
      <point x="144" y="105" type="curve" smooth="yes"/>
      <point x="164" y="561" type="line"/>
      <point x="124" y="591" type="line"/>
      <point x="104" y="105" type="line" smooth="yes"/>
      <point x="103" y="78"/>
      <point x="98" y="61"/>
      <point x="89" y="52" type="curve" smooth="yes"/>
      <point x="78" y="40"/>
      <point x="41" y="34"/>
    </contour>
    <contour>
      <point x="589" y="25" type="curve"/>
      <point x="590" y="0" type="line"/>
      <point x="840" y="0" type="line"/>
      <point x="840" y="25" type="line"/>
      <point x="806" y="33"/>
      <point x="782" y="41"/>
      <point x="772" y="51" type="curve" smooth="yes"/>
      <point x="758" y="65"/>
      <point x="757" y="82"/>
      <point x="757" y="104" type="curve" smooth="yes"/>
      <point x="755" y="216"/>
      <point x="753" y="401"/>
      <point x="753" y="529" type="curve" smooth="yes"/>
      <point x="753" y="544"/>
      <point x="759" y="556"/>
      <point x="768" y="566" type="curve" smooth="yes"/>
      <point x="780" y="578"/>
      <point x="798" y="586"/>
      <point x="816" y="591" type="curve"/>
      <point x="816" y="616" type="line"/>
      <point x="672" y="616" type="line"/>
      <point x="679" y="104" type="line" smooth="yes"/>
      <point x="679" y="80"/>
      <point x="679" y="63"/>
      <point x="666" y="50" type="curve" smooth="yes"/>
      <point x="650" y="34"/>
      <point x="612" y="27"/>
    </contour>
  </outline>
</glyph>
<glyph name="N" format="2">
  <advance width="756"/>
  <unicode hex="004E"/>
  <anchor x="376" y="0" name="bottom"/>
  <anchor x="376" y="616" name="top"/>
  <outline>
    <contour>
      <point x="129" y="514" type="curve"/>
      <point x="631" y="-11" type="line"/>
      <point x="657" y="-11" type="line"/>
      <point x="657" y="157"/>
      <point x="657" y="443"/>
      <point x="657" y="512" type="curve"/>
      <point x="617" y="512" type="line"/>
      <point x="617" y="97" type="line"/>
      <point x="637" y="106" type="line"/>
      <point x="149" y="616" type="line"/>
      <point x="12" y="616" type="line"/>
      <point x="12" y="591" type="line"/>
      <point x="41" y="587"/>
      <point x="62" y="579"/>
      <point x="76" y="566" type="curve" smooth="yes"/>
      <point x="95" y="548"/>
      <point x="129" y="514"/>
    </contour>
    <contour>
      <point x="12" y="25" type="curve"/>
      <point x="12" y="0" type="line"/>
      <point x="244" y="0" type="line"/>
      <point x="244" y="25" type="line"/>
      <point x="216" y="33"/>
      <point x="175" y="35"/>
      <point x="161" y="52" type="curve" smooth="yes"/>
      <point x="148" y="68"/>
      <point x="148" y="78"/>
      <point x="148" y="104" type="curve"/>
      <point x="108" y="104" type="line"/>
      <point x="108" y="77"/>
      <point x="107" y="65"/>
      <point x="93" y="51" type="curve" smooth="yes"/>
      <point x="76" y="34"/>
      <point x="39" y="33"/>
    </contour>
    <contour>
      <point x="108" y="104" type="line"/>
      <point x="148" y="104" type="line"/>
      <point x="148" y="561" type="line"/>
      <point x="108" y="591" type="line"/>
    </contour>
    <contour>
      <point x="617" y="512" type="curve"/>
      <point x="657" y="512" type="line"/>
      <point x="657" y="542"/>
      <point x="662" y="558"/>
      <point x="674" y="567" type="curve" smooth="yes"/>
      <point x="686" y="577"/>
      <point x="706" y="581"/>
      <point x="737" y="588" type="curve"/>
      <point x="737" y="616" type="line"/>
      <point x="521" y="616" type="line"/>
      <point x="521" y="591" type="line"/>
      <point x="559" y="584"/>
      <point x="586" y="582"/>
      <point x="601" y="568" type="curve" smooth="yes"/>
      <point x="612" y="557"/>
      <point x="617" y="541"/>
    </contour>
  </outline>
</glyph>
<glyph name="O" format="2">
  <advance width="756"/>
  <unicode hex="004F"/>
  <note>
O
</note>
  <anchor x="378" y="0" name="bottom"/>
  <anchor x="378" y="308" name="center"/>
  <anchor x="682" y="10" name="ogonek"/>
  <anchor x="378" y="616" name="top"/>
  <anchor x="18" y="616" name="topleft"/>
  <anchor x="738" y="616" name="topright"/>
  <outline>
    <contour>
      <point x="376" y="-11" type="curve" smooth="yes"/>
      <point x="567" y="-11"/>
      <point x="702" y="121"/>
      <point x="702" y="308" type="curve" smooth="yes"/>
      <point x="702" y="494"/>
      <point x="567" y="626"/>
      <point x="376" y="626" type="curve" smooth="yes"/>
      <point x="187" y="626"/>
      <point x="54" y="494"/>
      <point x="54" y="308" type="curve" smooth="yes"/>
      <point x="54" y="121"/>
      <point x="187" y="-11"/>
    </contour>
    <contour>
      <point x="150" y="318" type="curve" smooth="yes"/>
      <point x="150" y="471"/>
      <point x="237" y="585"/>
      <point x="359" y="585" type="curve" smooth="yes"/>
      <point x="504" y="585"/>
      <point x="606" y="463"/>
      <point x="606" y="298" type="curve" smooth="yes"/>
      <point x="606" y="144"/>
      <point x="518" y="30"/>
      <point x="393" y="30" type="curve" smooth="yes"/>
      <point x="251" y="30"/>
      <point x="150" y="152"/>
    </contour>
  </outline>
</glyph>
<glyph name="P" format="2">
  <advance width="495"/>
  <unicode hex="0050"/>
  <anchor x="240" y="0" name="bottom"/>
  <anchor x="240" y="616" name="top"/>
  <outline>
    <contour>
      <point x="211" y="295" type="curve"/>
      <point x="211" y="272" type="line"/>
      <point x="222" y="271"/>
      <point x="232" y="271"/>
      <point x="242" y="271" type="curve" smooth="yes"/>
      <point x="371" y="271"/>
      <point x="459" y="337"/>
      <point x="459" y="448" type="curve" smooth="yes"/>
      <point x="459" y="552"/>
      <point x="382" y="620"/>
      <point x="270" y="618" type="curve"/>
      <point x="251" y="584" type="line"/>
      <point x="325" y="584"/>
      <point x="373" y="528"/>
      <point x="373" y="436" type="curve" smooth="yes"/>
      <point x="373" y="346"/>
      <point x="310" y="295"/>
    </contour>
    <contour>
      <point x="12" y="25" type="curve"/>
      <point x="12" y="0" type="line"/>
      <point x="275" y="0" type="line"/>
      <point x="275" y="25" type="line"/>
      <point x="236" y="36"/>
      <point x="215" y="39"/>
      <point x="203" y="51" type="curve" smooth="yes"/>
      <point x="193" y="61"/>
      <point x="191" y="78"/>
      <point x="190" y="111" type="curve" smooth="yes"/>
      <point x="188" y="188"/>
      <point x="188" y="379"/>
      <point x="191" y="583" type="curve"/>
      <point x="251" y="584" type="line"/>
      <point x="270" y="618" type="line"/>
      <point x="231" y="617"/>
      <point x="179" y="616"/>
      <point x="147" y="616" type="curve"/>
      <point x="108" y="616"/>
      <point x="43" y="617"/>
      <point x="4" y="618" type="curve"/>
      <point x="4" y="591" type="line"/>
      <point x="45" y="584"/>
      <point x="75" y="578"/>
      <point x="92" y="558" type="curve" smooth="yes"/>
      <point x="102" y="547"/>
      <point x="107" y="531"/>
      <point x="107" y="507" type="curve" smooth="yes"/>
      <point x="109" y="369"/>
      <point x="109" y="235"/>
      <point x="107" y="101" type="curve" smooth="yes"/>
      <point x="107" y="75"/>
      <point x="103" y="60"/>
      <point x="94" y="49" type="curve" smooth="yes"/>
      <point x="83" y="35"/>
      <point x="41" y="30"/>
    </contour>
  </outline>
</glyph>
<glyph name="Q" format="2">
  <advance width="756"/>
  <unicode hex="0051"/>
  <anchor x="378" y="0" name="bottom"/>
  <anchor x="378" y="616" name="top"/>
  <outline>
    <contour>
      <point x="458" y="29" type="curve"/>
      <point x="331" y="11" type="line"/>
      <point x="430" y="-144"/>
      <point x="630" y="-232"/>
      <point x="813" y="-232" type="curve" smooth="yes"/>
      <point x="939" y="-232"/>
      <point x="1057" y="-202"/>
      <point x="1131" y="-153" type="curve"/>
      <point x="1120" y="-133" type="line"/>
      <point x="1046" y="-163"/>
      <point x="957" y="-179"/>
      <point x="869" y="-179" type="curve" smooth="yes"/>
      <point x="703" y="-179"/>
      <point x="537" y="-98"/>
    </contour>
    <component base="O"/>
  </outline>
</glyph>
<glyph name="S" format="2">
  <advance width="486"/>
  <unicode hex="0053"/>
  <anchor x="241" y="0" name="bottom"/>
  <anchor x="237" y="616" name="top"/>
  <outline>
    <contour>
      <point x="216" y="-9" type="curve" smooth="yes"/>
      <point x="343" y="-9"/>
      <point x="432" y="67"/>
      <point x="432" y="174" type="curve" smooth="yes"/>
      <point x="432" y="339"/>
      <point x="117" y="352"/>
      <point x="120" y="490" type="curve" smooth="yes"/>
      <point x="121" y="543"/>
      <point x="171" y="581"/>
      <point x="240" y="581" type="curve" smooth="yes"/>
      <point x="316" y="581"/>
      <point x="365" y="535"/>
      <point x="359" y="471" type="curve"/>
      <point x="392" y="471" type="line"/>
      <point x="391" y="526"/>
      <point x="393" y="576"/>
      <point x="397" y="593" type="curve"/>
      <point x="347" y="611"/>
      <point x="282" y="624"/>
      <point x="240" y="624" type="curve" smooth="yes"/>
      <point x="126" y="624"/>
      <point x="45" y="550"/>
      <point x="45" y="446" type="curve" smooth="yes"/>
      <point x="45" y="272"/>
      <point x="354" y="279"/>
      <point x="354" y="136" type="curve" smooth="yes"/>
      <point x="354" y="75"/>
      <point x="297" y="33"/>
      <point x="216" y="35" type="curve" smooth="yes"/>
      <point x="133" y="37"/>
      <point x="76" y="103"/>
      <point x="78" y="193" type="curve"/>
      <point x="46" y="193" type="line"/>
      <point x="51" y="166"/>
      <point x="52" y="99"/>
      <point x="49" y="32" type="curve"/>
      <point x="108" y="8"/>
      <point x="177" y="-9"/>
    </contour>
  </outline>
</glyph>
<glyph name="T" format="2">
  <advance width="648"/>
  <unicode hex="0054"/>
  <anchor x="325" y="0" name="bottom"/>
  <anchor x="325" y="308" name="center"/>
  <anchor x="325" y="616" name="top"/>
  <outline>
    <contour>
      <point x="177" y="28" type="curve"/>
      <point x="177" y="0" type="line"/>
      <point x="487" y="0" type="line"/>
      <point x="487" y="28" type="line"/>
      <point x="415" y="42"/>
      <point x="369" y="46"/>
      <point x="367" y="100" type="curve" smooth="yes"/>
      <point x="362" y="262"/>
      <point x="362" y="428"/>
      <point x="367" y="590" type="curve"/>
      <point x="345" y="566" type="line"/>
      <point x="409" y="566"/>
      <point x="483" y="566"/>
      <point x="512" y="566" type="curve" smooth="yes"/>
      <point x="548" y="566"/>
      <point x="595" y="559"/>
      <point x="600" y="447" type="curve"/>
      <point x="639" y="451" type="line"/>
      <point x="638" y="515"/>
      <point x="633" y="579"/>
      <point x="622" y="643" type="curve"/>
      <point x="610" y="643" type="line"/>
      <point x="555" y="616" type="line"/>
      <point x="398" y="613"/>
      <point x="240" y="613"/>
      <point x="85" y="616" type="curve"/>
      <point x="37" y="653" type="line"/>
      <point x="29" y="648" type="line"/>
      <point x="17" y="581"/>
      <point x="11" y="515"/>
      <point x="9" y="448" type="curve"/>
      <point x="48" y="446" type="line"/>
      <point x="53" y="561"/>
      <point x="103" y="566"/>
      <point x="167" y="566" type="curve" smooth="yes"/>
      <point x="315" y="566" type="line"/>
      <point x="287" y="590" type="line"/>
      <point x="289" y="462"/>
      <point x="289" y="146"/>
      <point x="287" y="100" type="curve" smooth="yes"/>
      <point x="285" y="54"/>
      <point x="242" y="41"/>
    </contour>
  </outline>
</glyph>
<glyph name="U" format="2">
  <advance width="660"/>
  <unicode hex="0055"/>
  <anchor x="322" y="0" name="bottom"/>
  <anchor x="591" y="10" name="ogonek"/>
  <anchor x="346" y="616" name="top"/>
  <anchor x="638" y="616" name="topright"/>
  <outline>
    <contour>
      <point x="315" y="-11" type="curve" smooth="yes"/>
      <point x="466" y="-11"/>
      <point x="568" y="76"/>
      <point x="570" y="199" type="curve" smooth="yes"/>
      <point x="572" y="334"/>
      <point x="569" y="431"/>
      <point x="570" y="514" type="curve" smooth="yes"/>
      <point x="571" y="578"/>
      <point x="594" y="588"/>
      <point x="650" y="588" type="curve"/>
      <point x="650" y="616" type="line"/>
      <point x="442" y="616" type="line"/>
      <point x="442" y="592" type="line"/>
      <point x="495" y="582"/>
      <point x="527" y="553"/>
      <point x="528" y="481" type="curve" smooth="yes"/>
      <point x="529" y="387"/>
      <point x="530" y="298"/>
      <point x="528" y="203" type="curve" smooth="yes"/>
      <point x="526" y="108"/>
      <point x="465" y="42"/>
      <point x="354" y="42" type="curve" smooth="yes"/>
      <point x="249" y="42"/>
      <point x="180" y="92"/>
      <point x="173" y="173" type="curve" smooth="yes"/>
      <point x="167" y="244"/>
      <point x="170" y="448"/>
      <point x="170" y="503" type="curve" smooth="yes"/>
      <point x="170" y="570"/>
      <point x="203" y="588"/>
      <point x="250" y="592" type="curve"/>
      <point x="250" y="616" type="line"/>
      <point x="10" y="616" type="line"/>
      <point x="10" y="588" type="line"/>
      <point x="48" y="582"/>
      <point x="90" y="570"/>
      <point x="90" y="514" type="curve" smooth="yes"/>
      <point x="90" y="489"/>
      <point x="90" y="362"/>
      <point x="90" y="197" type="curve" smooth="yes"/>
      <point x="90" y="75"/>
      <point x="186" y="-11"/>
    </contour>
  </outline>
</glyph>
<glyph name="V" format="2">
  <advance width="729"/>
  <unicode hex="0056"/>
  <anchor x="365" y="0" name="bottom"/>
  <anchor x="365" y="616" name="top"/>
  <outline>
    <contour>
      <point x="137" y="489" type="curve" smooth="yes"/>
      <point x="347" y="-24" type="line"/>
      <point x="360" y="-24" type="line"/>
      <point x="439" y="153"/>
      <point x="568" y="444"/>
      <point x="595" y="505" type="curve" smooth="yes"/>
      <point x="622" y="566"/>
      <point x="658" y="579"/>
      <point x="720" y="588" type="curve"/>
      <point x="720" y="616" type="line"/>
      <point x="472" y="616" type="line"/>
      <point x="472" y="593" type="line"/>
      <point x="521" y="586"/>
      <point x="556" y="573"/>
      <point x="556" y="543" type="curve" smooth="yes"/>
      <point x="556" y="521"/>
      <point x="544" y="488"/>
      <point x="528" y="452" type="curve" smooth="yes"/>
      <point x="358" y="70" type="line"/>
      <point x="393" y="90" type="line"/>
      <point x="334" y="224"/>
      <point x="232" y="480"/>
      <point x="225" y="496" type="curve" smooth="yes"/>
      <point x="218" y="512"/>
      <point x="213" y="528"/>
      <point x="213" y="543" type="curve" smooth="yes"/>
      <point x="213" y="558"/>
      <point x="211" y="582"/>
      <point x="297" y="591" type="curve"/>
      <point x="297" y="616" type="line"/>
      <point x="9" y="616" type="line"/>
      <point x="9" y="588" type="line"/>
      <point x="57" y="580"/>
      <point x="103" y="571"/>
    </contour>
  </outline>
</glyph>
<glyph name="W" format="2">
  <advance width="963"/>
  <unicode hex="0057"/>
  <anchor x="485" y="0" name="bottom"/>
  <anchor x="485" y="616" name="top"/>
  <outline>
    <contour>
      <point x="523" y="420" type="curve"/>
      <point x="500" y="469" type="line"/>
      <point x="344" y="75" type="line"/>
      <point x="376" y="98" type="line"/>
      <point x="221" y="496" type="line" smooth="yes"/>
      <point x="195" y="563"/>
      <point x="177" y="582"/>
      <point x="257" y="591" type="curve"/>
      <point x="257" y="616" type="line"/>
      <point x="9" y="616" type="line"/>
      <point x="9" y="588" type="line"/>
      <point x="57" y="579"/>
      <point x="104" y="572"/>
      <point x="137" y="489" type="curve" smooth="yes"/>
      <point x="340" y="-24" type="line"/>
      <point x="353" y="-24" type="line"/>
      <point x="395" y="108"/>
      <point x="481" y="303"/>
    </contour>
    <contour>
      <point x="470" y="489" type="curve" smooth="yes"/>
      <point x="652" y="-24" type="line"/>
      <point x="665" y="-24" type="line"/>
      <point x="732" y="153"/>
      <point x="843" y="444"/>
      <point x="866" y="505" type="curve" smooth="yes"/>
      <point x="889" y="566"/>
      <point x="889" y="576"/>
      <point x="954" y="588" type="curve"/>
      <point x="954" y="616" type="line"/>
      <point x="754" y="616" type="line"/>
      <point x="754" y="591" type="line"/>
      <point x="840" y="570"/>
      <point x="834" y="533"/>
      <point x="803" y="452" type="curve" smooth="yes"/>
      <point x="658" y="70" type="line"/>
      <point x="693" y="99" type="line"/>
      <point x="644" y="233"/>
      <point x="557" y="480"/>
      <point x="552" y="496" type="curve" smooth="yes"/>
      <point x="528" y="572"/>
      <point x="530" y="582"/>
      <point x="604" y="591" type="curve"/>
      <point x="604" y="616" type="line"/>
      <point x="364" y="616" type="line"/>
      <point x="364" y="591" type="line"/>
      <point x="409" y="579"/>
      <point x="441" y="572"/>
    </contour>
  </outline>
</glyph>
<glyph name="X" format="2">
  <advance width="620"/>
  <unicode hex="0058"/>
  <anchor x="306" y="0" name="bottom"/>
  <anchor x="306" y="616" name="top"/>
  <outline>
    <contour>
      <point x="362" y="0" type="line"/>
      <point x="602" y="0" type="line"/>
      <point x="602" y="28" type="line"/>
      <point x="561" y="33"/>
      <point x="558" y="25"/>
      <point x="495" y="114" type="curve" smooth="yes"/>
      <point x="331" y="346"/>
      <point x="331" y="346"/>
      <point x="218" y="512" type="curve" smooth="yes"/>
      <point x="199" y="540"/>
      <point x="190" y="557"/>
      <point x="190" y="568" type="curve" smooth="yes"/>
      <point x="190" y="583"/>
      <point x="209" y="586"/>
      <point x="242" y="591" type="curve"/>
      <point x="242" y="616" type="line"/>
      <point x="18" y="616" type="line"/>
      <point x="18" y="588" type="line"/>
      <point x="52" y="588"/>
      <point x="69" y="586"/>
      <point x="133" y="494" type="curve" smooth="yes"/>
      <point x="282" y="281"/>
      <point x="282" y="281"/>
      <point x="404" y="105" type="curve" smooth="yes"/>
      <point x="425" y="76"/>
      <point x="435" y="58"/>
      <point x="435" y="47" type="curve" smooth="yes"/>
      <point x="435" y="30"/>
      <point x="411" y="29"/>
      <point x="362" y="25" type="curve"/>
    </contour>
    <contour>
      <point x="26" y="0" type="line"/>
      <point x="218" y="0" type="line"/>
      <point x="218" y="25" type="line"/>
      <point x="186" y="28"/>
      <point x="157" y="25"/>
      <point x="157" y="47" type="curve" smooth="yes"/>
      <point x="157" y="60"/>
      <point x="165" y="79"/>
      <point x="187" y="112" type="curve" smooth="yes"/>
      <point x="316" y="305" type="line"/>
      <point x="290" y="330" type="line"/>
      <point x="133" y="109" type="line" smooth="yes"/>
      <point x="71" y="22"/>
      <point x="57" y="30"/>
      <point x="26" y="28" type="curve"/>
    </contour>
    <contour>
      <point x="331" y="312" type="line"/>
      <point x="468" y="503" type="line" smooth="yes"/>
      <point x="525" y="583"/>
      <point x="548" y="585"/>
      <point x="586" y="588" type="curve"/>
      <point x="586" y="616" type="line"/>
      <point x="394" y="616" type="line"/>
      <point x="394" y="591" type="line"/>
      <point x="421" y="588"/>
      <point x="442" y="588"/>
      <point x="442" y="569" type="curve" smooth="yes"/>
      <point x="442" y="552"/>
      <point x="427" y="522"/>
      <point x="388" y="463" type="curve" smooth="yes"/>
      <point x="304" y="337" type="line"/>
    </contour>
  </outline>
</glyph>
<glyph name="Y" format="2">
  <advance width="554"/>
  <unicode hex="0059"/>
  <anchor x="277" y="0" name="bottom"/>
  <anchor x="277" y="616" name="top"/>
  <anchor x="21" y="616" name="topleft"/>
  <outline>
    <contour>
      <point x="137" y="0" type="line"/>
      <point x="409" y="0" type="line"/>
      <point x="409" y="28" type="line"/>
      <point x="366" y="33"/>
      <point x="320" y="30"/>
      <point x="320" y="93" type="curve" smooth="yes"/>
      <point x="320" y="318" type="line"/>
      <point x="307" y="257" type="line"/>
      <point x="440" y="509" type="line" smooth="yes"/>
      <point x="483" y="591"/>
      <point x="532" y="588"/>
      <point x="545" y="588" type="curve"/>
      <point x="545" y="616" type="line"/>
      <point x="353" y="616" type="line"/>
      <point x="353" y="591" type="line"/>
      <point x="419" y="581"/>
      <point x="424" y="565"/>
      <point x="392" y="505" type="curve"/>
      <point x="289" y="306" type="line"/>
      <point x="307" y="307" type="line"/>
      <point x="271" y="380"/>
      <point x="208" y="494"/>
      <point x="193" y="525" type="curve" smooth="yes"/>
      <point x="164" y="586"/>
      <point x="175" y="585"/>
      <point x="241" y="591" type="curve"/>
      <point x="241" y="616" type="line"/>
      <point x="9" y="616" type="line"/>
      <point x="9" y="588" type="line"/>
      <point x="35" y="585"/>
      <point x="80" y="575"/>
      <point x="95" y="545" type="curve" smooth="yes"/>
      <point x="250" y="239" type="line"/>
      <point x="242" y="293" type="line"/>
      <point x="242" y="93" type="line" smooth="yes"/>
      <point x="242" y="38"/>
      <point x="181" y="33"/>
      <point x="137" y="28" type="curve"/>
    </contour>
  </outline>
</glyph>
<glyph name="Z" format="2">
  <advance width="648"/>
  <unicode hex="005A"/>
  <anchor x="324" y="0" name="bottom"/>
  <anchor x="324" y="308" name="center"/>
  <anchor x="324" y="616" name="top"/>
  <outline>
    <contour>
      <point x="44" y="0" type="line"/>
      <point x="171" y="0"/>
      <point x="375" y="1"/>
      <point x="404" y="1" type="curve" smooth="yes"/>
      <point x="434" y="1"/>
      <point x="504" y="1"/>
      <point x="545" y="-2" type="curve"/>
      <point x="571" y="57"/>
      <point x="593" y="143"/>
      <point x="603" y="210" type="curve"/>
      <point x="569" y="210" type="line"/>
      <point x="558" y="154"/>
      <point x="515" y="43"/>
      <point x="368" y="41" type="curve" smooth="yes"/>
      <point x="146" y="38" type="line"/>
      <point x="151" y="24" type="line"/>
      <point x="576" y="594" type="line"/>
      <point x="564" y="621" type="line"/>
      <point x="487" y="616"/>
      <point x="333" y="615"/>
      <point x="275" y="615" type="curve" smooth="yes"/>
      <point x="217" y="615"/>
      <point x="117" y="611"/>
      <point x="76" y="617" type="curve"/>
      <point x="67" y="554"/>
      <point x="61" y="490"/>
      <point x="60" y="427" type="curve"/>
      <point x="88" y="427" type="line"/>
      <point x="98" y="479"/>
      <point x="87" y="576"/>
      <point x="222" y="576" type="curve" smooth="yes"/>
      <point x="297" y="576"/>
      <point x="423" y="574"/>
      <point x="481" y="572" type="curve"/>
      <point x="471" y="596" type="line"/>
      <point x="36" y="12" type="line"/>
    </contour>
  </outline>
</glyph>
<glyph name="bracketleft" format="2">
  <advance width="318"/>
  <unicode hex="005B"/>
  <outline>
    <contour>
      <point x="160" y="656" type="line"/>
      <point x="291" y="656" type="line"/>
      <point x="291" y="692" type="line"/>
      <point x="88" y="692" type="line"/>
      <point x="103" y="416"/>
      <point x="103" y="140"/>
      <point x="88" y="-136" type="curve"/>
      <point x="291" y="-136" type="line"/>
      <point x="291" y="-100" type="line"/>
      <point x="160" y="-100" type="line"/>
    </contour>
  </outline>
</glyph>
<glyph name="backslash" format="2">
  <advance width="386"/>
  <unicode hex="005C"/>
  <outline>
    <contour>
      <point x="303" y="-102" type="line"/>
      <point x="350" y="-85" type="line"/>
      <point x="84" y="887" type="line"/>
      <point x="36" y="872" type="line"/>
    </contour>
  </outline>
</glyph>
<glyph name="bracketright" format="2">
  <advance width="327"/>
  <unicode hex="005D"/>
  <outline>
    <contour>
      <point x="158" y="656" type="line"/>
      <point x="158" y="-100" type="line"/>
      <point x="27" y="-100" type="line"/>
      <point x="27" y="-136" type="line"/>
      <point x="230" y="-136" type="line"/>
      <point x="215" y="140"/>
      <point x="215" y="416"/>
      <point x="230" y="692" type="curve"/>
      <point x="27" y="692" type="line"/>
      <point x="27" y="656" type="line"/>
    </contour>
  </outline>
</glyph>
<glyph name="asciicircum" format="2">
  <advance width="412"/>
  <unicode hex="005E"/>
  <outline>
    <contour>
      <point x="92" y="327" type="line"/>
      <point x="206" y="538" type="line"/>
      <point x="320" y="327" type="line"/>
      <point x="367" y="345" type="line"/>
      <point x="222" y="616" type="line"/>
      <point x="190" y="616" type="line"/>
      <point x="45" y="345" type="line"/>
    </contour>
  </outline>
</glyph>
<glyph name="underscore" format="2">
  <advance width="600"/>
  <unicode hex="005F"/>
  <outline>
    <contour>
      <point x="0" y="-50" type="line"/>
      <point x="0" y="-90" type="line"/>
      <point x="600" y="-90" type="line"/>
      <point x="600" y="-50" type="line"/>
    </contour>
  </outline>
</glyph>
<glyph name="d" format="2">
  <advance width="495"/>
  <unicode hex="0064"/>
  <anchor x="248" y="0" name="bottom"/>
  <anchor x="370" y="555" name="center"/>
  <anchor x="248" y="384" name="top"/>
  <anchor x="472" y="694" name="topright"/>
  <outline>
    <contour>
      <point x="113" y="220" type="curve"/>
      <point x="36" y="189" type="line"/>
      <point x="36" y="72"/>
      <point x="105" y="-11"/>
      <point x="200" y="-11" type="curve" smooth="yes"/>
      <point x="245" y="-11"/>
      <point x="317" y="22"/>
      <point x="374" y="69" type="curve"/>
      <point x="374" y="88" type="line"/>
      <point x="336" y="65"/>
      <point x="283" y="49"/>
      <point x="245" y="49" type="curve" smooth="yes"/>
      <point x="168" y="49"/>
      <point x="113" y="120"/>
    </contour>
    <contour>
      <point x="414" y="85" type="curve"/>
      <point x="342" y="58" type="line"/>
      <point x="343" y="58" type="line"/>
      <point x="342" y="-6" type="line"/>
      <point x="355" y="-12" type="line"/>
      <point x="476" y="21" type="line"/>
      <point x="476" y="42" type="line"/>
      <point x="440" y="57"/>
      <point x="414" y="75"/>
    </contour>
    <contour>
      <point x="36" y="189" type="curve"/>
      <point x="113" y="220" type="line"/>
      <point x="113" y="301"/>
      <point x="165" y="358"/>
      <point x="236" y="358" type="curve" smooth="yes"/>
      <point x="286" y="358"/>
      <point x="339" y="320"/>
      <point x="364" y="267" type="curve"/>
      <point x="390" y="356" type="line"/>
      <point x="358" y="379"/>
      <point x="304" y="395"/>
      <point x="257" y="395" type="curve" smooth="yes"/>
      <point x="128" y="395"/>
      <point x="36" y="310"/>
    </contour>
    <contour>
      <point x="342" y="563" type="curve" smooth="yes"/>
      <point x="342" y="58" type="line"/>
      <point x="414" y="85" type="line"/>
      <point x="414" y="557" type="line"/>
      <point x="416" y="658" type="line"/>
      <point x="401" y="668" type="line"/>
      <point x="272" y="637" type="line"/>
      <point x="272" y="616" type="line"/>
      <point x="313" y="599"/>
      <point x="342" y="577"/>
    </contour>
  </outline>
</glyph>
<glyph name="h" format="2">
  <advance width="495"/>
  <unicode hex="0068"/>
  <anchor x="245" y="0" name="bottom"/>
  <anchor x="123" y="555" name="center"/>
  <anchor x="245" y="694" name="top"/>
  <outline>
    <contour>
      <point x="16" y="18" type="curve"/>
      <point x="16" y="0" type="line"/>
      <point x="219" y="0" type="line"/>
      <point x="219" y="18" type="line"/>
      <point x="178" y="32"/>
      <point x="153" y="39"/>
      <point x="153" y="68" type="curve" smooth="yes"/>
      <point x="153" y="557" type="line"/>
      <point x="155" y="658" type="line"/>
      <point x="140" y="668" type="line"/>
      <point x="11" y="637" type="line"/>
      <point x="11" y="616" type="line"/>
      <point x="30" y="608"/>
      <point x="81" y="595"/>
      <point x="81" y="563" type="curve" smooth="yes"/>
      <point x="81" y="68" type="line" smooth="yes"/>
      <point x="81" y="39"/>
      <point x="57" y="32"/>
    </contour>
    <contour>
      <point x="274" y="18" type="curve"/>
      <point x="274" y="0" type="line"/>
      <point x="479" y="0" type="line"/>
      <point x="479" y="18" type="line"/>
      <point x="440" y="32"/>
      <point x="414" y="37"/>
      <point x="414" y="68" type="curve" smooth="yes"/>
      <point x="414" y="273" type="line" smooth="yes"/>
      <point x="414" y="355"/>
      <point x="380" y="395"/>
      <point x="307" y="395" type="curve" smooth="yes"/>
      <point x="257" y="395"/>
      <point x="198" y="365"/>
      <point x="132" y="305" type="curve"/>
      <point x="132" y="286" type="line"/>
      <point x="192" y="329"/>
      <point x="228" y="335"/>
      <point x="263" y="335" type="curve" smooth="yes"/>
      <point x="314" y="335"/>
      <point x="338" y="306"/>
      <point x="342" y="246" type="curve" smooth="yes"/>
      <point x="346" y="187"/>
      <point x="346" y="127"/>
      <point x="342" y="68" type="curve" smooth="yes"/>
      <point x="340" y="38"/>
      <point x="312" y="32"/>
    </contour>
  </outline>
</glyph>
<glyph name="j" format="2">
  <advance width="225"/>
  <unicode hex="006A"/>
  <outline>
    <contour>
      <point x="28" y="-224" type="curve" smooth="yes"/>
      <point x="30" y="-223"/>
      <point x="32" y="-222"/>
      <point x="33" y="-222" type="curve"/>
      <point x="43" y="-218"/>
      <point x="56" y="-209"/>
      <point x="66" y="-201" type="curve" smooth="yes"/>
      <point x="116" y="-164"/>
      <point x="153" y="-51"/>
      <point x="153" y="68" type="curve" smooth="yes"/>
      <point x="153" y="314" type="line"/>
      <point x="155" y="393" type="line"/>
      <point x="140" y="403" type="line"/>
      <point x="19" y="362" type="line"/>
      <point x="19" y="341" type="line"/>
      <point x="54" y="326"/>
      <point x="79" y="309"/>
      <point x="79" y="298" type="curve" smooth="yes"/>
      <point x="81" y="254"/>
      <point x="82" y="128"/>
      <point x="82" y="1" type="curve" smooth="yes"/>
      <point x="82" y="-87"/>
      <point x="66" y="-160"/>
      <point x="43" y="-178" type="curve"/>
      <point x="40" y="-179"/>
      <point x="36" y="-179"/>
      <point x="32" y="-179" type="curve" smooth="yes"/>
      <point x="28" y="-179"/>
      <point x="24" y="-179"/>
      <point x="21" y="-178" type="curve" smooth="yes"/>
      <point x="7" y="-174"/>
      <point x="12" y="-168"/>
      <point x="-3" y="-164" type="curve" smooth="yes"/>
      <point x="-24" y="-158"/>
      <point x="-47" y="-191"/>
      <point x="-47" y="-212" type="curve" smooth="yes"/>
      <point x="-47" y="-221"/>
      <point x="-44" y="-228"/>
      <point x="-35" y="-230" type="curve" smooth="yes"/>
      <point x="-29" y="-231"/>
      <point x="-23" y="-232"/>
      <point x="-16" y="-232" type="curve" smooth="yes"/>
      <point x="-1" y="-232"/>
      <point x="15" y="-229"/>
    </contour>
    <contour>
      <point x="112" y="515" type="curve" smooth="yes"/>
      <point x="142" y="515"/>
      <point x="163" y="535"/>
      <point x="163" y="564" type="curve" smooth="yes"/>
      <point x="163" y="594"/>
      <point x="142" y="615"/>
      <point x="112" y="615" type="curve" smooth="yes"/>
      <point x="83" y="615"/>
      <point x="63" y="594"/>
      <point x="63" y="564" type="curve" smooth="yes"/>
      <point x="63" y="535"/>
      <point x="83" y="515"/>
    </contour>
  </outline>
</glyph>
<glyph name="k" format="2">
  <advance width="477"/>
  <unicode hex="006B"/>
  <anchor x="237" y="0" name="bottom"/>
  <anchor x="237" y="694" name="top"/>
  <outline>
    <contour>
      <point x="16" y="18" type="curve"/>
      <point x="16" y="0" type="line"/>
      <point x="223" y="0" type="line"/>
      <point x="223" y="18" type="line"/>
      <point x="182" y="32"/>
      <point x="153" y="39"/>
      <point x="153" y="68" type="curve" smooth="yes"/>
      <point x="153" y="557" type="line"/>
      <point x="155" y="658" type="line"/>
      <point x="140" y="665" type="line"/>
      <point x="11" y="637" type="line"/>
      <point x="11" y="616" type="line"/>
      <point x="30" y="608"/>
      <point x="81" y="595"/>
      <point x="81" y="563" type="curve" smooth="yes"/>
      <point x="81" y="68" type="line" smooth="yes"/>
      <point x="81" y="39"/>
      <point x="57" y="32"/>
    </contour>
    <contour>
      <point x="263" y="304" type="curve" smooth="yes"/>
      <point x="120" y="178" type="line"/>
      <point x="132" y="145" type="line"/>
      <point x="334" y="326" type="line" smooth="yes"/>
      <point x="350" y="341"/>
      <point x="391" y="354"/>
      <point x="436" y="361" type="curve"/>
      <point x="436" y="384" type="line"/>
      <point x="259" y="384" type="line"/>
      <point x="259" y="361" type="line"/>
      <point x="310" y="353"/>
      <point x="309" y="344"/>
    </contour>
    <contour>
      <point x="408" y="55" type="curve" smooth="yes"/>
      <point x="261" y="278" type="line"/>
      <point x="198" y="229" type="line"/>
      <point x="316" y="54" type="line" smooth="yes"/>
      <point x="325" y="40"/>
      <point x="322" y="26"/>
      <point x="287" y="23" type="curve"/>
      <point x="287" y="0" type="line"/>
      <point x="477" y="0" type="line"/>
      <point x="477" y="23" type="line"/>
      <point x="447" y="26"/>
      <point x="419" y="38"/>
    </contour>
  </outline>
</glyph>
<glyph name="m" format="2">
  <advance width="738"/>
  <unicode hex="006D"/>
  <note>
m
</note>
  <anchor x="370" y="0" name="bottom"/>
  <anchor x="370" y="384" name="top"/>
  <outline>
    <contour>
      <point x="273" y="18" type="curve"/>
      <point x="273" y="0" type="line"/>
      <point x="473" y="0" type="line"/>
      <point x="473" y="18" type="line"/>
      <point x="434" y="32"/>
      <point x="408" y="37"/>
      <point x="408" y="68" type="curve" smooth="yes"/>
      <point x="408" y="273" type="line" smooth="yes"/>
      <point x="408" y="355"/>
      <point x="374" y="395"/>
      <point x="304" y="395" type="curve" smooth="yes"/>
      <point x="254" y="395"/>
      <point x="198" y="365"/>
      <point x="132" y="305" type="curve"/>
      <point x="132" y="286" type="line"/>
      <point x="192" y="329"/>
      <point x="225" y="335"/>
      <point x="260" y="335" type="curve" smooth="yes"/>
      <point x="311" y="335"/>
      <point x="333" y="306"/>
      <point x="336" y="246" type="curve" smooth="yes"/>
      <point x="339" y="187"/>
      <point x="339" y="127"/>
      <point x="336" y="68" type="curve" smooth="yes"/>
      <point x="334" y="38"/>
      <point x="309" y="24"/>
    </contour>
    <contour>
      <point x="23" y="18" type="curve"/>
      <point x="23" y="0" type="line"/>
      <point x="226" y="0" type="line"/>
      <point x="226" y="18" type="line"/>
      <point x="187" y="32"/>
      <point x="160" y="38"/>
      <point x="160" y="68" type="curve" smooth="yes"/>
      <point x="160" y="315" type="line"/>
      <point x="159" y="315" type="line"/>
      <point x="160" y="394" type="line"/>
      <point x="149" y="403" type="line"/>
      <point x="28" y="362" type="line"/>
      <point x="28" y="341" type="line"/>
      <point x="47" y="333"/>
      <point x="87" y="319"/>
      <point x="88" y="298" type="curve" smooth="yes"/>
      <point x="91" y="223"/>
      <point x="91" y="143"/>
      <point x="88" y="68" type="curve" smooth="yes"/>
      <point x="87" y="37"/>
      <point x="62" y="32"/>
    </contour>
    <contour>
      <point x="521" y="18" type="curve"/>
      <point x="521" y="0" type="line"/>
      <point x="721" y="0" type="line"/>
      <point x="721" y="18" type="line"/>
      <point x="683" y="32"/>
      <point x="657" y="37"/>
      <point x="657" y="68" type="curve" smooth="yes"/>
      <point x="657" y="273" type="line" smooth="yes"/>
      <point x="657" y="355"/>
      <point x="623" y="395"/>
      <point x="553" y="395" type="curve" smooth="yes"/>
      <point x="503" y="395"/>
      <point x="446" y="365"/>
      <point x="380" y="305" type="curve"/>
      <point x="380" y="286" type="line"/>
      <point x="440" y="329"/>
      <point x="473" y="335"/>
      <point x="508" y="335" type="curve" smooth="yes"/>
      <point x="560" y="335"/>
      <point x="580" y="306"/>
      <point x="584" y="246" type="curve" smooth="yes"/>
      <point x="588" y="187"/>
      <point x="588" y="127"/>
      <point x="584" y="68" type="curve" smooth="yes"/>
      <point x="582" y="38"/>
      <point x="568" y="24"/>
    </contour>
  </outline>
</glyph>
<glyph name="n" format="2">
  <advance width="495"/>
  <unicode hex="006E"/>
  <note>
n
</note>
  <anchor x="246" y="0" name="bottom"/>
  <anchor x="246" y="384" name="top"/>
  <outline>
    <contour>
      <point x="276" y="0" type="line"/>
      <point x="479" y="0" type="line"/>
      <point x="479" y="18" type="line"/>
      <point x="440" y="32"/>
      <point x="414" y="37"/>
      <point x="414" y="68" type="curve" smooth="yes"/>
      <point x="414" y="273" type="line" smooth="yes"/>
      <point x="414" y="355"/>
      <point x="380" y="395"/>
      <point x="310" y="395" type="curve" smooth="yes"/>
      <point x="260" y="395"/>
      <point x="199" y="365"/>
      <point x="133" y="305" type="curve"/>
      <point x="133" y="286" type="line"/>
      <point x="193" y="329"/>
      <point x="230" y="335"/>
      <point x="265" y="335" type="curve" smooth="yes"/>
      <point x="317" y="335"/>
      <point x="338" y="306"/>
      <point x="342" y="246" type="curve" smooth="yes"/>
      <point x="346" y="189"/>
      <point x="346" y="125"/>
      <point x="342" y="68" type="curve" smooth="yes"/>
      <point x="340" y="38"/>
      <point x="314" y="24"/>
      <point x="276" y="18" type="curve"/>
    </contour>
    <contour>
      <point x="24" y="0" type="line"/>
      <point x="227" y="0" type="line"/>
      <point x="227" y="18" type="line"/>
      <point x="188" y="32"/>
      <point x="161" y="38"/>
      <point x="161" y="68" type="curve" smooth="yes"/>
      <point x="161" y="315" type="line"/>
      <point x="162" y="315" type="line"/>
      <point x="163" y="397" type="line"/>
      <point x="148" y="403" type="line"/>
      <point x="29" y="362" type="line"/>
      <point x="29" y="341" type="line"/>
      <point x="48" y="333"/>
      <point x="88" y="319"/>
      <point x="89" y="298" type="curve" smooth="yes"/>
      <point x="90" y="284"/>
      <point x="91" y="129"/>
      <point x="89" y="68" type="curve" smooth="yes"/>
      <point x="88" y="37"/>
      <point x="63" y="32"/>
      <point x="24" y="18" type="curve"/>
    </contour>
  </outline>
</glyph>
<glyph name="o" format="2">
  <advance width="495"/>
  <unicode hex="006F"/>
  <note>
o
</note>
  <anchor x="248" y="0" name="bottom"/>
  <anchor x="248" y="192" name="center"/>
  <anchor x="443" y="10" name="ogonek"/>
  <anchor x="248" y="384" name="top"/>
  <anchor x="472" y="384" name="topright"/>
  <outline>
    <contour>
      <point x="244" y="-11" type="curve" smooth="yes"/>
      <point x="370" y="-11"/>
      <point x="459" y="75"/>
      <point x="459" y="196" type="curve" smooth="yes"/>
      <point x="459" y="313"/>
      <point x="370" y="395"/>
      <point x="244" y="395" type="curve" smooth="yes"/>
      <point x="122" y="395"/>
      <point x="36" y="308"/>
      <point x="36" y="185" type="curve" smooth="yes"/>
      <point x="36" y="70"/>
      <point x="122" y="-11"/>
    </contour>
    <contour>
      <point x="124" y="208" type="curve" smooth="yes"/>
      <point x="124" y="296"/>
      <point x="170" y="359"/>
      <point x="236" y="359" type="curve" smooth="yes"/>
      <point x="315" y="359"/>
      <point x="371" y="282"/>
      <point x="371" y="174" type="curve" smooth="yes"/>
      <point x="371" y="87"/>
      <point x="321" y="25"/>
      <point x="252" y="25" type="curve" smooth="yes"/>
      <point x="177" y="25"/>
      <point x="124" y="101"/>
    </contour>
  </outline>
</glyph>
<glyph name="p" format="2">
  <advance width="495"/>
  <unicode hex="0070"/>
  <note>
p
</note>
  <anchor x="245" y="0" name="bottom"/>
  <anchor x="245" y="384" name="top"/>
  <outline>
    <contour>
      <point x="380" y="174" type="curve"/>
      <point x="459" y="205" type="line"/>
      <point x="459" y="316"/>
      <point x="390" y="395"/>
      <point x="292" y="395" type="curve" smooth="yes"/>
      <point x="247" y="395"/>
      <point x="174" y="362"/>
      <point x="117" y="315" type="curve"/>
      <point x="117" y="296" type="line"/>
      <point x="155" y="319"/>
      <point x="209" y="335"/>
      <point x="246" y="335" type="curve" smooth="yes"/>
      <point x="325" y="335"/>
      <point x="380" y="268"/>
    </contour>
    <contour>
      <point x="16" y="-232" type="line"/>
      <point x="239" y="-232" type="line"/>
      <point x="239" y="-214" type="line"/>
      <point x="189" y="-204"/>
      <point x="153" y="-183"/>
      <point x="153" y="-164" type="curve" smooth="yes"/>
      <point x="153" y="316" type="line"/>
      <point x="152" y="316" type="line"/>
      <point x="153" y="395" type="line"/>
      <point x="140" y="403" type="line"/>
      <point x="21" y="363" type="line"/>
      <point x="21" y="342" type="line"/>
      <point x="56" y="327"/>
      <point x="81" y="310"/>
      <point x="81" y="299" type="curve" smooth="yes"/>
      <point x="81" y="-164" type="line" smooth="yes"/>
      <point x="81" y="-179"/>
      <point x="54" y="-200"/>
      <point x="16" y="-214" type="curve"/>
    </contour>
    <contour>
      <point x="459" y="205" type="curve"/>
      <point x="380" y="174" type="line"/>
      <point x="380" y="87"/>
      <point x="324" y="26"/>
      <point x="245" y="26" type="curve" smooth="yes"/>
      <point x="202" y="26"/>
      <point x="152" y="64"/>
      <point x="127" y="117" type="curve"/>
      <point x="101" y="28" type="line"/>
      <point x="133" y="5"/>
      <point x="184" y="-11"/>
      <point x="224" y="-11" type="curve" smooth="yes"/>
      <point x="362" y="-11"/>
      <point x="459" y="78"/>
    </contour>
  </outline>
</glyph>
<glyph name="q" format="2">
  <advance width="495"/>
  <unicode hex="0071"/>
  <anchor x="248" y="0" name="bottom"/>
  <anchor x="248" y="384" name="top"/>
  <outline>
    <contour>
      <point x="352" y="377" type="curve"/>
      <point x="350" y="-164" type="line"/>
      <point x="424" y="-164" type="line"/>
      <point x="423" y="-39"/>
      <point x="423" y="269"/>
      <point x="424" y="394" type="curve"/>
      <point x="400" y="383"/>
      <point x="376" y="371"/>
    </contour>
    <contour>
      <point x="36" y="168" type="curve"/>
      <point x="110" y="201" type="line"/>
      <point x="111" y="288"/>
      <point x="167" y="358"/>
      <point x="236" y="358" type="curve" smooth="yes"/>
      <point x="288" y="358"/>
      <point x="346" y="314"/>
      <point x="369" y="259" type="curve"/>
      <point x="415" y="344" type="line"/>
      <point x="380" y="372"/>
      <point x="311" y="395"/>
      <point x="257" y="395" type="curve" smooth="yes"/>
      <point x="134" y="395"/>
      <point x="36" y="294"/>
    </contour>
    <contour>
      <point x="110" y="201" type="curve"/>
      <point x="36" y="168" type="line"/>
      <point x="36" y="68"/>
      <point x="109" y="-11"/>
      <point x="200" y="-11" type="curve" smooth="yes"/>
      <point x="250" y="-11"/>
      <point x="329" y="27"/>
      <point x="375" y="74" type="curve"/>
      <point x="375" y="93" type="line"/>
      <point x="347" y="68"/>
      <point x="290" y="49"/>
      <point x="245" y="49" type="curve" smooth="yes"/>
      <point x="170" y="49"/>
      <point x="110" y="116"/>
    </contour>
    <contour>
      <point x="350" y="-164" type="line"/>
      <point x="350" y="-201"/>
      <point x="325" y="-202"/>
      <point x="263" y="-214" type="curve"/>
      <point x="263" y="-232" type="line"/>
      <point x="479" y="-232" type="line"/>
      <point x="479" y="-214" type="line"/>
      <point x="447" y="-202"/>
      <point x="424" y="-201"/>
      <point x="424" y="-164" type="curve"/>
    </contour>
  </outline>
</glyph>
<glyph name="r" format="2">
  <advance width="324"/>
  <unicode hex="0072"/>
  <note>
r
</note>
  <guideline x="326" y="376" angle="46"/>
  <anchor x="162" y="0" name="bottom"/>
  <anchor x="162" y="384" name="top"/>
  <outline>
    <contour>
      <point x="130" y="267" type="curve"/>
      <point x="132" y="228" type="line"/>
      <point x="180" y="287"/>
      <point x="196" y="321"/>
      <point x="227" y="321" type="curve" smooth="yes"/>
      <point x="238" y="321"/>
      <point x="248" y="308"/>
      <point x="260" y="296" type="curve" smooth="yes"/>
      <point x="281" y="275"/>
      <point x="341" y="350"/>
      <point x="320" y="371" type="curve" smooth="yes"/>
      <point x="309" y="382"/>
      <point x="291" y="390"/>
      <point x="270" y="390" type="curve" smooth="yes"/>
      <point x="232" y="390"/>
      <point x="206" y="362"/>
    </contour>
    <contour>
      <point x="23" y="18" type="curve"/>
      <point x="23" y="0" type="line"/>
      <point x="257" y="0" type="line"/>
      <point x="257" y="18" type="line"/>
      <point x="188" y="32"/>
      <point x="160" y="38"/>
      <point x="160" y="68" type="curve" smooth="yes"/>
      <point x="160" y="295" type="line"/>
      <point x="159" y="295" type="line"/>
      <point x="162" y="394" type="line"/>
      <point x="147" y="403" type="line"/>
      <point x="28" y="362" type="line"/>
      <point x="28" y="341" type="line"/>
      <point x="47" y="333"/>
      <point x="86" y="319"/>
      <point x="87" y="298" type="curve" smooth="yes"/>
      <point x="91" y="223"/>
      <point x="91" y="143"/>
      <point x="89" y="68" type="curve" smooth="yes"/>
      <point x="88" y="37"/>
      <point x="62" y="32"/>
    </contour>
  </outline>
</glyph>
<glyph name="t" format="2">
  <advance width="297"/>
  <unicode hex="0074"/>
  <note>
t
</note>
  <guideline x="285" y="39" angle="11.5"/>
  <anchor x="148" y="0" name="bottom"/>
  <anchor x="148" y="192" name="center"/>
  <anchor x="148" y="474" name="top"/>
  <anchor x="276" y="694" name="topright"/>
  <outline>
    <contour>
      <point x="158" y="-11" type="curve" smooth="yes"/>
      <point x="198" y="-11"/>
      <point x="253" y="5"/>
      <point x="288" y="27" type="curve"/>
      <point x="278" y="48" type="line"/>
      <point x="259" y="40"/>
      <point x="230" y="34"/>
      <point x="210" y="34" type="curve" smooth="yes"/>
      <point x="177" y="34"/>
      <point x="151" y="52"/>
      <point x="149" y="78" type="curve" smooth="yes"/>
      <point x="147" y="108"/>
      <point x="146" y="153"/>
      <point x="146" y="186" type="curve" smooth="yes"/>
      <point x="146" y="316"/>
      <point x="154" y="433"/>
      <point x="159" y="468" type="curve"/>
      <point x="140" y="474" type="line"/>
      <point x="78" y="381" type="line"/>
      <point x="72" y="237"/>
      <point x="68" y="98"/>
      <point x="74" y="46" type="curve" smooth="yes"/>
      <point x="78" y="13"/>
      <point x="113" y="-11"/>
    </contour>
    <contour>
      <point x="6" y="349" type="line"/>
      <point x="282" y="334" type="line"/>
      <point x="282" y="389" type="line"/>
      <point x="82" y="384" type="line"/>
      <point x="6" y="359" type="line"/>
    </contour>
    <contour>
      <point x="6" y="359" type="curve"/>
      <point x="114" y="361" type="line"/>
      <point x="140" y="474" type="line"/>
      <point x="104" y="423"/>
      <point x="48" y="375"/>
    </contour>
  </outline>
</glyph>
<glyph name="w" format="2">
  <advance width="612"/>
  <unicode hex="0077"/>
  <anchor x="308" y="0" name="bottom"/>
  <anchor x="308" y="384" name="top"/>
  <outline>
    <contour>
      <point x="271" y="308" type="curve" smooth="yes"/>
      <point x="388" y="0" type="line"/>
      <point x="416" y="0" type="line"/>
      <point x="546" y="302" type="line" smooth="yes"/>
      <point x="555" y="322"/>
      <point x="564" y="335"/>
      <point x="575" y="345" type="curve" smooth="yes"/>
      <point x="585" y="353"/>
      <point x="597" y="358"/>
      <point x="612" y="361" type="curve"/>
      <point x="612" y="384" type="line"/>
      <point x="466" y="384" type="line"/>
      <point x="466" y="361" type="line"/>
      <point x="479" y="359"/>
      <point x="498" y="358"/>
      <point x="509" y="351" type="curve" smooth="yes"/>
      <point x="515" y="348"/>
      <point x="519" y="343"/>
      <point x="519" y="336" type="curve" smooth="yes"/>
      <point x="519" y="330"/>
      <point x="516" y="319"/>
      <point x="510" y="304" type="curve" smooth="yes"/>
      <point x="417" y="72" type="line"/>
      <point x="438" y="72" type="line"/>
      <point x="348" y="318" type="line" smooth="yes"/>
      <point x="345" y="327"/>
      <point x="343" y="333"/>
      <point x="343" y="337" type="curve" smooth="yes"/>
      <point x="343" y="344"/>
      <point x="347" y="349"/>
      <point x="354" y="353" type="curve" smooth="yes"/>
      <point x="367" y="359"/>
      <point x="386" y="360"/>
      <point x="400" y="361" type="curve"/>
      <point x="400" y="384" type="line"/>
      <point x="223" y="384" type="line"/>
      <point x="223" y="361" type="line"/>
      <point x="238" y="359"/>
      <point x="239" y="356"/>
      <point x="248" y="348" type="curve" smooth="yes"/>
      <point x="256" y="340"/>
      <point x="263" y="328"/>
    </contour>
    <contour>
      <point x="330" y="241" type="line"/>
      <point x="311" y="279" type="line"/>
      <point x="220" y="72" type="line"/>
      <point x="241" y="72" type="line"/>
      <point x="145" y="318" type="line" smooth="yes"/>
      <point x="141" y="327"/>
      <point x="140" y="333"/>
      <point x="140" y="337" type="curve" smooth="yes"/>
      <point x="140" y="344"/>
      <point x="144" y="349"/>
      <point x="151" y="353" type="curve" smooth="yes"/>
      <point x="164" y="359"/>
      <point x="166" y="360"/>
      <point x="180" y="361" type="curve"/>
      <point x="180" y="384" type="line"/>
      <point x="0" y="384" type="line"/>
      <point x="0" y="361" type="line"/>
      <point x="15" y="359"/>
      <point x="36" y="356"/>
      <point x="45" y="348" type="curve" smooth="yes"/>
      <point x="53" y="340"/>
      <point x="60" y="328"/>
      <point x="68" y="308" type="curve" smooth="yes"/>
      <point x="191" y="0" type="line"/>
      <point x="219" y="0" type="line"/>
    </contour>
  </outline>
</glyph>
<glyph name="x" format="2">
  <advance width="423"/>
  <unicode hex="0078"/>
  <anchor x="208" y="0" name="bottom"/>
  <anchor x="208" y="384" name="top"/>
  <outline>
    <contour>
      <point x="69" y="328" type="curve" smooth="yes"/>
      <point x="195" y="159" type="line"/>
      <point x="209" y="154" type="line"/>
      <point x="341" y="322" type="line" smooth="yes"/>
      <point x="354" y="339"/>
      <point x="381" y="356"/>
      <point x="407" y="361" type="curve"/>
      <point x="407" y="384" type="line"/>
      <point x="262" y="384" type="line"/>
      <point x="262" y="365" type="line"/>
      <point x="293" y="360"/>
      <point x="307" y="344"/>
      <point x="292" y="324" type="curve" smooth="yes"/>
      <point x="218" y="226" type="line"/>
      <point x="239" y="221" type="line"/>
      <point x="157" y="338" type="line" smooth="yes"/>
      <point x="142" y="359"/>
      <point x="170" y="364"/>
      <point x="185" y="365" type="curve"/>
      <point x="185" y="384" type="line"/>
      <point x="8" y="384" type="line"/>
      <point x="8" y="361" type="line"/>
      <point x="33" y="358"/>
      <point x="55" y="346"/>
    </contour>
    <contour>
      <point x="368" y="56" type="curve" smooth="yes"/>
      <point x="239" y="223" type="line"/>
      <point x="212" y="238" type="line"/>
      <point x="73" y="62" type="line" smooth="yes"/>
      <point x="54" y="38"/>
      <point x="36" y="30"/>
      <point x="0" y="23" type="curve"/>
      <point x="0" y="0" type="line"/>
      <point x="169" y="0" type="line"/>
      <point x="169" y="19" type="line"/>
      <point x="138" y="24"/>
      <point x="105" y="30"/>
      <point x="120" y="50" type="curve" smooth="yes"/>
      <point x="206" y="170" type="line"/>
      <point x="195" y="161" type="line"/>
      <point x="280" y="46" type="line" smooth="yes"/>
      <point x="292" y="30"/>
      <point x="263" y="21"/>
      <point x="238" y="19" type="curve"/>
      <point x="238" y="0" type="line"/>
      <point x="423" y="0" type="line"/>
      <point x="423" y="23" type="line"/>
      <point x="398" y="26"/>
      <point x="383" y="36"/>
    </contour>
  </outline>
</glyph>
<glyph name="y" format="2">
  <advance width="423"/>
  <unicode hex="0079"/>
  <anchor x="208" y="0" name="bottom"/>
  <anchor x="208" y="384" name="top"/>
  <outline>
    <contour>
      <point x="196" y="-61" type="line"/>
      <point x="238" y="0" type="line"/>
      <point x="357" y="302" type="line" smooth="yes"/>
      <point x="365" y="322"/>
      <point x="375" y="335"/>
      <point x="386" y="345" type="curve" smooth="yes"/>
      <point x="396" y="353"/>
      <point x="408" y="358"/>
      <point x="423" y="361" type="curve"/>
      <point x="423" y="384" type="line"/>
      <point x="276" y="384" type="line"/>
      <point x="276" y="361" type="line"/>
      <point x="289" y="359"/>
      <point x="306" y="358"/>
      <point x="317" y="351" type="curve" smooth="yes"/>
      <point x="323" y="348"/>
      <point x="327" y="343"/>
      <point x="327" y="336" type="curve" smooth="yes"/>
      <point x="327" y="330"/>
      <point x="324" y="319"/>
      <point x="318" y="304" type="curve" smooth="yes"/>
      <point x="212" y="27" type="line"/>
      <point x="235" y="55" type="line"/>
      <point x="147" y="318" type="line" smooth="yes"/>
      <point x="144" y="327"/>
      <point x="142" y="333"/>
      <point x="142" y="337" type="curve" smooth="yes"/>
      <point x="142" y="344"/>
      <point x="146" y="349"/>
      <point x="153" y="353" type="curve" smooth="yes"/>
      <point x="166" y="359"/>
      <point x="188" y="360"/>
      <point x="202" y="361" type="curve"/>
      <point x="202" y="384" type="line"/>
      <point x="0" y="384" type="line"/>
      <point x="0" y="361" type="line"/>
      <point x="15" y="359"/>
      <point x="36" y="356"/>
      <point x="45" y="348" type="curve" smooth="yes"/>
      <point x="53" y="340"/>
      <point x="61" y="328"/>
      <point x="68" y="308" type="curve" smooth="yes"/>
    </contour>
    <contour>
      <point x="48" y="-232" type="curve" smooth="yes"/>
      <point x="121" y="-232"/>
      <point x="175" y="-139"/>
      <point x="203" y="-75" type="curve" smooth="yes"/>
      <point x="232" y="-17"/>
      <point x="218" y="-46"/>
      <point x="238" y="0" type="curve"/>
      <point x="213" y="25" type="line"/>
      <point x="152" y="-116" type="line"/>
      <point x="136" y="-142"/>
      <point x="128" y="-161"/>
      <point x="99" y="-161" type="curve" smooth="yes"/>
      <point x="80" y="-161"/>
      <point x="78" y="-141"/>
      <point x="56" y="-141" type="curve" smooth="yes"/>
      <point x="32" y="-141"/>
      <point x="8" y="-170"/>
      <point x="8" y="-202" type="curve" smooth="yes"/>
      <point x="8" y="-226"/>
      <point x="24" y="-232"/>
    </contour>
  </outline>
</glyph>
<glyph name="z" format="2">
  <advance width="405"/>
  <unicode hex="007A"/>
  <anchor x="200" y="0" name="bottom"/>
  <anchor x="200" y="192" name="center"/>
  <anchor x="200" y="384" name="top"/>
  <outline>
    <contour>
      <point x="39" y="-5" type="line"/>
      <point x="150" y="1"/>
      <point x="258" y="0"/>
      <point x="369" y="0" type="curve"/>
      <point x="369" y="157" type="line"/>
      <point x="341" y="157" type="line"/>
      <point x="332" y="102"/>
      <point x="324" y="62"/>
      <point x="299" y="62" type="curve" smooth="yes"/>
      <point x="83" y="62" type="line"/>
      <point x="93" y="46" type="line"/>
      <point x="363" y="354" type="line"/>
      <point x="363" y="391" type="line"/>
      <point x="272" y="386"/>
      <point x="220" y="384"/>
      <point x="137" y="384" type="curve" smooth="yes"/>
      <point x="125" y="384"/>
      <point x="105" y="388"/>
      <point x="109" y="403" type="curve"/>
      <point x="79" y="412" type="line"/>
      <point x="36" y="264" type="line"/>
      <point x="66" y="255" type="line"/>
      <point x="79" y="307"/>
      <point x="98" y="323"/>
      <point x="119" y="323" type="curve" smooth="yes"/>
      <point x="313" y="323" type="line"/>
      <point x="313" y="359" type="line"/>
      <point x="39" y="44" type="line"/>
    </contour>
  </outline>
</glyph>
<glyph name="braceleft" format="2">
  <advance width="371"/>
  <unicode hex="007B"/>
  <outline>
    <contour>
      <point x="335" y="-144" type="curve"/>
      <point x="335" y="-108" type="line"/>
      <point x="279" y="-108"/>
      <point x="239" y="-70"/>
      <point x="239" y="-16" type="curve" smooth="yes"/>
      <point x="239" y="157" type="line" smooth="yes"/>
      <point x="239" y="201"/>
      <point x="204" y="252"/>
      <point x="155" y="279" type="curve"/>
      <point x="204" y="306"/>
      <point x="239" y="357"/>
      <point x="239" y="401" type="curve" smooth="yes"/>
      <point x="239" y="574" type="line" smooth="yes"/>
      <point x="239" y="628"/>
      <point x="279" y="666"/>
      <point x="335" y="666" type="curve"/>
      <point x="335" y="702" type="line"/>
      <point x="244" y="702"/>
      <point x="180" y="649"/>
      <point x="180" y="574" type="curve" smooth="yes"/>
      <point x="180" y="385" type="line" smooth="yes"/>
      <point x="180" y="329"/>
      <point x="128" y="289"/>
      <point x="54" y="289" type="curve"/>
      <point x="54" y="269" type="line"/>
      <point x="128" y="269"/>
      <point x="180" y="229"/>
      <point x="180" y="173" type="curve" smooth="yes"/>
      <point x="180" y="-16" type="line" smooth="yes"/>
      <point x="180" y="-91"/>
      <point x="244" y="-144"/>
    </contour>
  </outline>
</glyph>
<glyph name="bar" format="2">
  <advance width="210"/>
  <unicode hex="007C"/>
  <outline>
    <contour>
      <point x="90" y="-216" type="line"/>
      <point x="120" y="-166" type="line"/>
      <point x="120" y="717" type="line"/>
      <point x="90" y="667" type="line"/>
    </contour>
  </outline>
</glyph>
<glyph name="braceright" format="2">
  <advance width="371"/>
  <unicode hex="007D"/>
  <outline>
    <contour>
      <point x="36" y="-144" type="line"/>
      <point x="127" y="-144"/>
      <point x="191" y="-91"/>
      <point x="191" y="-16" type="curve" smooth="yes"/>
      <point x="191" y="173" type="line" smooth="yes"/>
      <point x="191" y="229"/>
      <point x="243" y="269"/>
      <point x="317" y="269" type="curve"/>
      <point x="317" y="289" type="line"/>
      <point x="243" y="289"/>
      <point x="191" y="329"/>
      <point x="191" y="385" type="curve" smooth="yes"/>
      <point x="191" y="574" type="line" smooth="yes"/>
      <point x="191" y="649"/>
      <point x="127" y="702"/>
      <point x="36" y="702" type="curve"/>
      <point x="36" y="666" type="line"/>
      <point x="92" y="666"/>
      <point x="132" y="628"/>
      <point x="132" y="574" type="curve" smooth="yes"/>
      <point x="132" y="401" type="line" smooth="yes"/>
      <point x="132" y="357"/>
      <point x="167" y="306"/>
      <point x="216" y="279" type="curve"/>
      <point x="167" y="252"/>
      <point x="132" y="201"/>
      <point x="132" y="157" type="curve" smooth="yes"/>
      <point x="132" y="-16" type="line" smooth="yes"/>
      <point x="132" y="-70"/>
      <point x="92" y="-108"/>
      <point x="36" y="-108" type="curve"/>
    </contour>
  </outline>
</glyph>
<glyph name="asciitilde" format="2">
  <advance width="629"/>
  <unicode hex="007E"/>
  <outline>
    <contour>
      <point x="414" y="212" type="curve" smooth="yes"/>
      <point x="476" y="212"/>
      <point x="533" y="265"/>
      <point x="548" y="341" type="curve"/>
      <point x="500" y="347" type="line"/>
      <point x="488" y="296"/>
      <point x="453" y="258"/>
      <point x="420" y="258" type="curve" smooth="yes"/>
      <point x="386" y="258"/>
      <point x="358" y="282"/>
      <point x="329" y="308" type="curve" smooth="yes"/>
      <point x="297" y="337"/>
      <point x="262" y="368"/>
      <point x="215" y="368" type="curve" smooth="yes"/>
      <point x="153" y="368"/>
      <point x="96" y="315"/>
      <point x="81" y="239" type="curve"/>
      <point x="129" y="233" type="line"/>
      <point x="141" y="284"/>
      <point x="176" y="322"/>
      <point x="209" y="322" type="curve" smooth="yes"/>
      <point x="243" y="322"/>
      <point x="271" y="298"/>
      <point x="300" y="272" type="curve" smooth="yes"/>
      <point x="332" y="243"/>
      <point x="367" y="212"/>
    </contour>
  </outline>
</glyph>
<glyph name="exclamdown" format="2">
  <advance width="212"/>
  <unicode hex="00A1"/>
  <outline>
    <contour>
      <point x="103" y="459" type="curve" smooth="yes"/>
      <point x="81" y="459"/>
      <point x="67" y="441"/>
      <point x="63" y="419" type="curve" smooth="yes"/>
      <point x="59" y="397"/>
      <point x="77" y="379"/>
      <point x="103" y="379" type="curve" smooth="yes"/>
      <point x="125" y="379"/>
      <point x="143" y="397"/>
      <point x="143" y="419" type="curve" smooth="yes"/>
      <point x="143" y="441"/>
      <point x="125" y="459"/>
    </contour>
    <contour>
      <point x="133" y="277" type="curve"/>
      <point x="77" y="263" type="line"/>
      <point x="83" y="128"/>
      <point x="80" y="-48"/>
      <point x="54" y="-183" type="curve"/>
      <point x="158" y="-165" type="line"/>
      <point x="126" y="-34"/>
      <point x="133" y="146"/>
    </contour>
  </outline>
</glyph>
<glyph name="cent" format="2">
  <advance width="531"/>
  <unicode hex="00A2"/>
  <outline>
    <contour>
      <point x="288" y="-100" type="line"/>
      <point x="328" y="-100" type="line"/>
      <point x="328" y="92" type="line"/>
      <point x="373" y="96"/>
      <point x="432" y="114"/>
      <point x="477" y="138" type="curve"/>
      <point x="477" y="243" type="line"/>
      <point x="440" y="243" type="line"/>
      <point x="440" y="172"/>
      <point x="394" y="121"/>
      <point x="328" y="118" type="curve"/>
      <point x="328" y="579" type="line"/>
      <point x="395" y="567"/>
      <point x="440" y="520"/>
      <point x="440" y="457" type="curve"/>
      <point x="477" y="457" type="line"/>
      <point x="477" y="562" type="line"/>
      <point x="432" y="586"/>
      <point x="373" y="604"/>
      <point x="328" y="608" type="curve"/>
      <point x="328" y="800" type="line"/>
      <point x="288" y="800" type="line"/>
      <point x="288" y="608" type="line"/>
      <point x="156" y="598"/>
      <point x="63" y="493"/>
      <point x="63" y="348" type="curve" smooth="yes"/>
      <point x="63" y="204"/>
      <point x="156" y="101"/>
      <point x="288" y="92" type="curve"/>
    </contour>
    <contour>
      <point x="288" y="123" type="line"/>
      <point x="206" y="146"/>
      <point x="151" y="253"/>
      <point x="151" y="396" type="curve" smooth="yes"/>
      <point x="151" y="502"/>
      <point x="207" y="578"/>
      <point x="288" y="582" type="curve"/>
    </contour>
  </outline>
</glyph>
<glyph name="sterling" format="2">
  <advance width="517"/>
  <unicode hex="00A3"/>
  <outline>
    <contour>
      <point x="39" y="0" type="line"/>
      <point x="455" y="0" type="line"/>
      <point x="490" y="189" type="line"/>
      <point x="463" y="196" type="line"/>
      <point x="439" y="148"/>
      <point x="429" y="70"/>
      <point x="360" y="60" type="curve" smooth="yes"/>
      <point x="304" y="52"/>
      <point x="254" y="52"/>
      <point x="198" y="60" type="curve"/>
      <point x="198" y="263" type="line"/>
      <point x="291" y="263" type="line"/>
      <point x="291" y="323" type="line"/>
      <point x="198" y="323" type="line"/>
      <point x="198" y="454" type="line" smooth="yes"/>
      <point x="198" y="537"/>
      <point x="238" y="595"/>
      <point x="293" y="595" type="curve" smooth="yes"/>
      <point x="348" y="595"/>
      <point x="402" y="544"/>
      <point x="416" y="471" type="curve"/>
      <point x="445" y="471" type="line"/>
      <point x="438" y="516"/>
      <point x="434" y="552"/>
      <point x="437" y="597" type="curve"/>
      <point x="418" y="610"/>
      <point x="369" y="627"/>
      <point x="306" y="627" type="curve" smooth="yes"/>
      <point x="201" y="627"/>
      <point x="126" y="547"/>
      <point x="126" y="433" type="curve" smooth="yes"/>
      <point x="126" y="323" type="line"/>
      <point x="18" y="323" type="line"/>
      <point x="18" y="263" type="line"/>
      <point x="126" y="263" type="line"/>
      <point x="126" y="70" type="line" smooth="yes"/>
      <point x="126" y="45"/>
      <point x="67" y="37"/>
      <point x="39" y="28" type="curve"/>
    </contour>
  </outline>
</glyph>
<glyph name="currency" format="2">
  <advance width="497"/>
  <unicode hex="00A4"/>
  <outline>
    <contour>
      <point x="71" y="97" type="line"/>
      <point x="134" y="159" type="line"/>
      <point x="201" y="107"/>
      <point x="296" y="108"/>
      <point x="364" y="160" type="curve"/>
      <point x="426" y="98" type="line"/>
      <point x="461" y="133" type="line"/>
      <point x="399" y="195" type="line"/>
      <point x="451" y="262"/>
      <point x="451" y="357"/>
      <point x="399" y="426" type="curve"/>
      <point x="461" y="488" type="line"/>
      <point x="426" y="523" type="line"/>
      <point x="364" y="461" type="line"/>
      <point x="296" y="514"/>
      <point x="200" y="514"/>
      <point x="132" y="461" type="curve"/>
      <point x="71" y="522" type="line"/>
      <point x="36" y="487" type="line"/>
      <point x="98" y="426" type="line"/>
      <point x="45" y="357"/>
      <point x="45" y="262"/>
      <point x="98" y="194" type="curve"/>
      <point x="36" y="132" type="line"/>
    </contour>
    <contour>
      <point x="149" y="211" type="curve" smooth="yes"/>
      <point x="95" y="266"/>
      <point x="95" y="353"/>
      <point x="150" y="409" type="curve" smooth="yes"/>
      <point x="204" y="463"/>
      <point x="293" y="464"/>
      <point x="347" y="409" type="curve" smooth="yes"/>
      <point x="402" y="354"/>
      <point x="402" y="266"/>
      <point x="347" y="211" type="curve" smooth="yes"/>
      <point x="292" y="156"/>
      <point x="204" y="156"/>
    </contour>
  </outline>
</glyph>
<glyph name="yen" format="2">
  <advance width="578"/>
  <unicode hex="00A5"/>
  <outline>
    <contour>
      <point x="166" y="0" type="line"/>
      <point x="412" y="0" type="line"/>
      <point x="412" y="17" type="line"/>
      <point x="330" y="44" type="line"/>
      <point x="330" y="159" type="line"/>
      <point x="506" y="159" type="line"/>
      <point x="506" y="216" type="line"/>
      <point x="330" y="216" type="line"/>
      <point x="330" y="267" type="line"/>
      <point x="506" y="267" type="line"/>
      <point x="506" y="324" type="line"/>
      <point x="341" y="324" type="line"/>
      <point x="494" y="571" type="line"/>
      <point x="578" y="599" type="line"/>
      <point x="578" y="616" type="line"/>
      <point x="359" y="616" type="line"/>
      <point x="359" y="598" type="line"/>
      <point x="439" y="571" type="line"/>
      <point x="307" y="343" type="line"/>
      <point x="181" y="571" type="line"/>
      <point x="263" y="599" type="line"/>
      <point x="263" y="616" type="line"/>
      <point x="0" y="616" type="line"/>
      <point x="0" y="598" type="line"/>
      <point x="80" y="571" type="line"/>
      <point x="217" y="324" type="line"/>
      <point x="68" y="324" type="line"/>
      <point x="68" y="267" type="line"/>
      <point x="246" y="267" type="line"/>
      <point x="246" y="216" type="line"/>
      <point x="68" y="216" type="line"/>
      <point x="68" y="159" type="line"/>
      <point x="246" y="159" type="line"/>
      <point x="246" y="44" type="line"/>
      <point x="166" y="18" type="line"/>
    </contour>
  </outline>
</glyph>
<glyph name="brokenbar" format="2">
  <advance width="204"/>
  <unicode hex="00A6"/>
  <outline>
    <contour>
      <point x="44" y="284" type="line"/>
      <point x="114" y="334" type="line"/>
      <point x="114" y="717" type="line"/>
      <point x="44" y="667" type="line"/>
    </contour>
    <contour>
      <point x="44" y="-216" type="line"/>
      <point x="114" y="-166" type="line"/>
      <point x="114" y="217" type="line"/>
      <point x="44" y="167" type="line"/>
    </contour>
  </outline>
</glyph>
<glyph name="section" format="2">
  <advance width="498"/>
  <unicode hex="00A7"/>
  <outline>
    <contour>
      <point x="250" y="89" type="line"/>
      <point x="369" y="89"/>
      <point x="453" y="165"/>
      <point x="453" y="273" type="curve" smooth="yes"/>
      <point x="453" y="424"/>
      <point x="160" y="429"/>
      <point x="162" y="555" type="curve" smooth="yes"/>
      <point x="163" y="602"/>
      <point x="210" y="636"/>
      <point x="276" y="636" type="curve" smooth="yes"/>
      <point x="330" y="636"/>
      <point x="365" y="594"/>
      <point x="360" y="535" type="curve"/>
      <point x="391" y="535" type="line"/>
      <point x="390" y="572"/>
      <point x="392" y="618"/>
      <point x="395" y="646" type="curve"/>
      <point x="353" y="663"/>
      <point x="304" y="675"/>
      <point x="276" y="675" type="curve" smooth="yes"/>
      <point x="170" y="675"/>
      <point x="95" y="607"/>
      <point x="95" y="510" type="curve" smooth="yes"/>
      <point x="95" y="351"/>
      <point x="384" y="366"/>
      <point x="384" y="235" type="curve" smooth="yes"/>
      <point x="384" y="166"/>
      <point x="324" y="122"/>
      <point x="240" y="129" type="curve"/>
    </contour>
    <contour>
      <point x="249" y="404" type="line"/>
      <point x="130" y="404"/>
      <point x="45" y="327"/>
      <point x="45" y="219" type="curve" smooth="yes"/>
      <point x="45" y="68"/>
      <point x="339" y="63"/>
      <point x="336" y="-63" type="curve" smooth="yes"/>
      <point x="335" y="-111"/>
      <point x="288" y="-145"/>
      <point x="223" y="-145" type="curve" smooth="yes"/>
      <point x="168" y="-145"/>
      <point x="133" y="-103"/>
      <point x="139" y="-44" type="curve"/>
      <point x="108" y="-44" type="line"/>
      <point x="109" y="-103"/>
      <point x="108" y="-149"/>
      <point x="105" y="-155" type="curve"/>
      <point x="147" y="-172"/>
      <point x="196" y="-184"/>
      <point x="223" y="-184" type="curve" smooth="yes"/>
      <point x="330" y="-184"/>
      <point x="405" y="-116"/>
      <point x="405" y="-19" type="curve" smooth="yes"/>
      <point x="405" y="140"/>
      <point x="116" y="125"/>
      <point x="116" y="257" type="curve" smooth="yes"/>
      <point x="116" y="326"/>
      <point x="176" y="369"/>
      <point x="260" y="362" type="curve"/>
    </contour>
  </outline>
</glyph>
<glyph name="copyright" format="2">
  <advance width="842"/>
  <unicode hex="00A9"/>
  <outline>
    <contour>
      <point x="421" y="-84" type="curve" smooth="yes"/>
      <point x="634" y="-84"/>
      <point x="806" y="88"/>
      <point x="806" y="301" type="curve" smooth="yes"/>
      <point x="806" y="514"/>
      <point x="634" y="686"/>
      <point x="421" y="686" type="curve" smooth="yes"/>
      <point x="208" y="686"/>
      <point x="36" y="514"/>
      <point x="36" y="301" type="curve" smooth="yes"/>
      <point x="36" y="88"/>
      <point x="208" y="-84"/>
    </contour>
    <contour>
      <point x="72" y="301" type="curve" smooth="yes"/>
      <point x="72" y="494"/>
      <point x="228" y="650"/>
      <point x="421" y="650" type="curve" smooth="yes"/>
      <point x="614" y="650"/>
      <point x="770" y="494"/>
      <point x="770" y="301" type="curve" smooth="yes"/>
      <point x="770" y="108"/>
      <point x="614" y="-48"/>
      <point x="421" y="-48" type="curve" smooth="yes"/>
      <point x="228" y="-48"/>
      <point x="72" y="108"/>
    </contour>
    <contour>
      <point x="198" y="290" type="curve" smooth="yes"/>
      <point x="198" y="155"/>
      <point x="295" y="60"/>
      <point x="433" y="60" type="curve" smooth="yes"/>
      <point x="471" y="60"/>
      <point x="531" y="78"/>
      <point x="578" y="104" type="curve"/>
      <point x="578" y="201" type="line"/>
      <point x="543" y="201" type="line"/>
      <point x="543" y="140"/>
      <point x="503" y="96"/>
      <point x="446" y="96" type="curve" smooth="yes"/>
      <point x="345" y="96"/>
      <point x="273" y="181"/>
      <point x="273" y="302" type="curve" smooth="yes"/>
      <point x="273" y="420"/>
      <point x="333" y="503"/>
      <point x="419" y="503" type="curve" smooth="yes"/>
      <point x="492" y="503"/>
      <point x="543" y="459"/>
      <point x="543" y="398" type="curve"/>
      <point x="578" y="398" type="line"/>
      <point x="578" y="495" type="line"/>
      <point x="531" y="521"/>
      <point x="471" y="539"/>
      <point x="433" y="539" type="curve" smooth="yes"/>
      <point x="295" y="538"/>
      <point x="198" y="435"/>
    </contour>
  </outline>
</glyph>
<glyph name="guillemetleft" format="2">
  <advance width="520"/>
  <unicode hex="00AB"/>
  <outline>
    <contour>
      <point x="426" y="354" type="line"/>
      <point x="250" y="204" type="line"/>
      <point x="421" y="50" type="line"/>
      <point x="461" y="80" type="line"/>
      <point x="351" y="204" type="line"/>
      <point x="454" y="333" type="line"/>
    </contour>
    <contour>
      <point x="234" y="354" type="line"/>
      <point x="58" y="204" type="line"/>
      <point x="229" y="50" type="line"/>
      <point x="269" y="80" type="line"/>
      <point x="159" y="204" type="line"/>
      <point x="262" y="333" type="line"/>
    </contour>
  </outline>
</glyph>
<glyph name="logicalnot" format="2">
  <advance width="543"/>
  <unicode hex="00AC"/>
  <outline>
    <contour>
      <point x="439" y="39" type="line"/>
      <point x="489" y="39" type="line"/>
      <point x="489" y="310" type="line"/>
      <point x="54" y="310" type="line"/>
      <point x="54" y="260" type="line"/>
      <point x="439" y="260" type="line"/>
    </contour>
  </outline>
</glyph>
<glyph name="registered" format="2">
  <advance width="532"/>
  <unicode hex="00AE"/>
  <outline>
    <contour>
      <point x="266" y="292" type="curve" smooth="yes"/>
      <point x="393" y="292"/>
      <point x="496" y="395"/>
      <point x="496" y="522" type="curve" smooth="yes"/>
      <point x="496" y="649"/>
      <point x="393" y="752"/>
      <point x="266" y="752" type="curve" smooth="yes"/>
      <point x="139" y="752"/>
      <point x="36" y="649"/>
      <point x="36" y="522" type="curve" smooth="yes"/>
      <point x="36" y="395"/>
      <point x="139" y="292"/>
    </contour>
    <contour>
      <point x="68" y="522" type="curve" smooth="yes"/>
      <point x="68" y="632"/>
      <point x="156" y="720"/>
      <point x="266" y="720" type="curve" smooth="yes"/>
      <point x="376" y="720"/>
      <point x="464" y="632"/>
      <point x="464" y="522" type="curve" smooth="yes"/>
      <point x="464" y="412"/>
      <point x="376" y="324"/>
      <point x="266" y="324" type="curve" smooth="yes"/>
      <point x="156" y="324"/>
      <point x="68" y="412"/>
    </contour>
    <contour>
      <point x="150" y="416" type="line"/>
      <point x="270" y="416" type="line"/>
      <point x="270" y="425" type="line"/>
      <point x="234" y="435" type="line"/>
      <point x="234" y="511" type="line"/>
      <point x="271" y="511" type="line"/>
      <point x="318" y="416" type="line"/>
      <point x="397" y="416" type="line"/>
      <point x="397" y="425" type="line"/>
      <point x="380" y="430" type="line" smooth="yes"/>
      <point x="367" y="434"/>
      <point x="353" y="441"/>
      <point x="350" y="447" type="curve" smooth="yes"/>
      <point x="312" y="518" type="line"/>
      <point x="341" y="527"/>
      <point x="354" y="547"/>
      <point x="354" y="575" type="curve" smooth="yes"/>
      <point x="354" y="607"/>
      <point x="326" y="637"/>
      <point x="274" y="637" type="curve" smooth="yes"/>
      <point x="150" y="637" type="line"/>
      <point x="150" y="628" type="line"/>
      <point x="181" y="619" type="line"/>
      <point x="181" y="435" type="line"/>
      <point x="150" y="425" type="line"/>
    </contour>
    <contour>
      <point x="231" y="525" type="line"/>
      <point x="231" y="619" type="line"/>
      <point x="260" y="619" type="line" smooth="yes"/>
      <point x="290" y="619"/>
      <point x="301" y="601"/>
      <point x="301" y="572" type="curve" smooth="yes"/>
      <point x="301" y="544"/>
      <point x="284" y="525"/>
      <point x="261" y="525" type="curve" smooth="yes"/>
    </contour>
  </outline>
</glyph>
<glyph name="degree" format="2">
  <advance width="344"/>
  <unicode hex="00B0"/>
  <outline>
    <contour>
      <point x="172" y="421" type="curve" smooth="yes"/>
      <point x="252" y="421"/>
      <point x="308" y="478"/>
      <point x="308" y="558" type="curve" smooth="yes"/>
      <point x="308" y="638"/>
      <point x="252" y="694"/>
      <point x="172" y="694" type="curve" smooth="yes"/>
      <point x="92" y="694"/>
      <point x="36" y="638"/>
      <point x="36" y="558" type="curve" smooth="yes"/>
      <point x="36" y="478"/>
      <point x="92" y="421"/>
    </contour>
    <contour>
      <point x="172" y="461" type="curve" smooth="yes"/>
      <point x="116" y="461"/>
      <point x="76" y="501"/>
      <point x="76" y="558" type="curve" smooth="yes"/>
      <point x="76" y="614"/>
      <point x="116" y="654"/>
      <point x="172" y="654" type="curve" smooth="yes"/>
      <point x="228" y="654"/>
      <point x="268" y="614"/>
      <point x="268" y="558" type="curve" smooth="yes"/>
      <point x="268" y="501"/>
      <point x="228" y="461"/>
    </contour>
  </outline>
</glyph>
<glyph name="micro" format="2">
  <advance width="600"/>
  <unicode hex="00B5"/>
  <outline>
    <contour>
      <point x="176" y="500" type="line"/>
      <point x="96" y="500" type="line"/>
      <point x="96" y="-177" type="line"/>
      <point x="156" y="-177" type="line"/>
      <point x="156" y="66" type="line"/>
      <point x="190" y="23"/>
      <point x="249" y="-7"/>
      <point x="300" y="-7" type="curve" smooth="yes"/>
      <point x="351" y="-7"/>
      <point x="405" y="29"/>
      <point x="430" y="81" type="curve"/>
      <point x="434" y="81" type="line"/>
      <point x="442" y="32"/>
      <point x="483" y="-2"/>
      <point x="533" y="-2" type="curve" smooth="yes"/>
      <point x="572" y="-2" type="line"/>
      <point x="572" y="31" type="line"/>
      <point x="557" y="31" type="line" smooth="yes"/>
      <point x="529" y="31"/>
      <point x="510" y="52"/>
      <point x="510" y="81" type="curve" smooth="yes"/>
      <point x="510" y="500" type="line"/>
      <point x="430" y="500" type="line"/>
      <point x="430" y="206" type="line" smooth="yes"/>
      <point x="430" y="105"/>
      <point x="377" y="53"/>
      <point x="300" y="53" type="curve" smooth="yes"/>
      <point x="227" y="53"/>
      <point x="176" y="98"/>
      <point x="176" y="190" type="curve" smooth="yes"/>
    </contour>
  </outline>
</glyph>
<glyph name="paragraph" format="2">
  <advance width="521"/>
  <unicode hex="00B6"/>
  <outline>
    <contour>
      <point x="205" y="-232" type="curve" smooth="yes"/>
      <point x="227" y="-232"/>
      <point x="263" y="-213"/>
      <point x="291" y="-187" type="curve" smooth="yes"/>
      <point x="354" y="-127"/>
      <point x="397" y="15"/>
      <point x="395" y="148" type="curve" smooth="yes"/>
      <point x="393" y="310" type="line"/>
      <point x="395" y="519" type="line" smooth="yes"/>
      <point x="395" y="547"/>
      <point x="406" y="569"/>
      <point x="422" y="577" type="curve" smooth="yes"/>
      <point x="429" y="581"/>
      <point x="447" y="585"/>
      <point x="485" y="590" type="curve"/>
      <point x="485" y="616" type="line"/>
      <point x="229" y="584" type="line"/>
      <point x="229" y="566" type="line"/>
      <point x="271" y="556"/>
      <point x="302" y="548"/>
      <point x="310" y="533" type="curve" smooth="yes"/>
      <point x="314" y="525"/>
      <point x="317" y="509"/>
      <point x="317" y="493" type="curve" smooth="yes"/>
      <point x="317" y="81" type="line" smooth="yes"/>
      <point x="317" y="4"/>
      <point x="311" y="-74"/>
      <point x="303" y="-101" type="curve"/>
      <point x="303" y="-100" type="line"/>
      <point x="293" y="-133"/>
      <point x="274" y="-157"/>
      <point x="257" y="-157" type="curve" smooth="yes"/>
      <point x="238" y="-158"/>
      <point x="236" y="-135"/>
      <point x="217" y="-134" type="curve" smooth="yes"/>
      <point x="184" y="-134"/>
      <point x="161" y="-163"/>
      <point x="161" y="-203" type="curve" smooth="yes"/>
      <point x="161" y="-220"/>
      <point x="179" y="-232"/>
    </contour>
    <contour>
      <point x="353" y="140" type="line"/>
      <point x="353" y="580" type="line"/>
      <point x="485" y="616" type="line"/>
      <point x="446" y="620"/>
      <point x="393" y="623"/>
      <point x="357" y="623" type="curve" smooth="yes"/>
      <point x="174" y="623"/>
      <point x="45" y="533"/>
      <point x="45" y="383" type="curve" smooth="yes"/>
      <point x="45" y="251"/>
      <point x="164" y="141"/>
      <point x="333" y="141" type="curve" smooth="yes"/>
    </contour>
  </outline>
</glyph>
<glyph name="periodcentered" format="2">
  <advance width="222"/>
  <unicode hex="00B7"/>
  <outline>
    <contour>
      <point x="111" y="202" type="curve" smooth="yes"/>
      <point x="142" y="202"/>
      <point x="168" y="228"/>
      <point x="168" y="259" type="curve" smooth="yes"/>
      <point x="168" y="290"/>
      <point x="142" y="316"/>
      <point x="111" y="316" type="curve" smooth="yes"/>
      <point x="80" y="316"/>
      <point x="54" y="290"/>
      <point x="54" y="259" type="curve" smooth="yes"/>
      <point x="54" y="228"/>
      <point x="80" y="202"/>
    </contour>
  </outline>
</glyph>
<glyph name="guillemetright" format="2">
  <advance width="520"/>
  <unicode hex="00BB"/>
  <outline>
    <contour>
      <point x="101" y="50" type="line"/>
      <point x="277" y="200" type="line"/>
      <point x="106" y="354" type="line"/>
      <point x="66" y="325" type="line"/>
      <point x="176" y="200" type="line"/>
      <point x="73" y="71" type="line"/>
    </contour>
    <contour>
      <point x="293" y="50" type="line"/>
      <point x="469" y="200" type="line"/>
      <point x="298" y="354" type="line"/>
      <point x="258" y="325" type="line"/>
      <point x="368" y="200" type="line"/>
      <point x="265" y="71" type="line"/>
    </contour>
  </outline>
</glyph>
<glyph name="questiondown" format="2">
  <advance width="374"/>
  <unicode hex="00BF"/>
  <outline>
    <contour>
      <point x="189" y="284" type="curve" smooth="yes"/>
      <point x="180" y="284"/>
      <point x="147" y="270"/>
      <point x="108" y="251" type="curve"/>
      <point x="110" y="238" type="line"/>
      <point x="142" y="237" type="line" smooth="yes"/>
      <point x="167" y="236"/>
      <point x="185" y="218"/>
      <point x="185" y="194" type="curve" smooth="yes"/>
      <point x="185" y="107"/>
      <point x="47" y="108"/>
      <point x="45" y="-12" type="curve"/>
      <point x="45" y="-73"/>
      <point x="88" y="-117"/>
      <point x="149" y="-117" type="curve" smooth="yes"/>
      <point x="178" y="-117"/>
      <point x="218" y="-100"/>
      <point x="257" y="-76" type="curve" smooth="yes"/>
      <point x="289" y="-54"/>
      <point x="311" y="-17"/>
      <point x="311" y="14" type="curve" smooth="yes"/>
      <point x="311" y="45"/>
      <point x="239" y="31"/>
      <point x="239" y="0" type="curve" smooth="yes"/>
      <point x="239" y="-16"/>
      <point x="246" y="-12"/>
      <point x="246" y="-27" type="curve" smooth="yes"/>
      <point x="246" y="-54"/>
      <point x="223" y="-73"/>
      <point x="195" y="-73" type="curve" smooth="yes"/>
      <point x="145" y="-73"/>
      <point x="116" y="-46"/>
      <point x="117" y="-6" type="curve" smooth="yes"/>
      <point x="122" y="137"/>
      <point x="257" y="137"/>
      <point x="257" y="221" type="curve" smooth="yes"/>
      <point x="257" y="258"/>
      <point x="225" y="284"/>
    </contour>
    <contour>
      <point x="180" y="460" type="curve" smooth="yes"/>
      <point x="158" y="460"/>
      <point x="140" y="442"/>
      <point x="140" y="420" type="curve" smooth="yes"/>
      <point x="140" y="398"/>
      <point x="158" y="380"/>
      <point x="180" y="380" type="curve" smooth="yes"/>
      <point x="202" y="380"/>
      <point x="220" y="398"/>
      <point x="220" y="420" type="curve" smooth="yes"/>
      <point x="220" y="442"/>
      <point x="202" y="460"/>
    </contour>
  </outline>
</glyph>
<glyph name="AE" format="2">
  <advance width="904"/>
  <unicode hex="00C6"/>
  <outline>
    <contour>
      <point x="16" y="25" type="curve"/>
      <point x="16" y="0" type="line"/>
      <point x="267" y="0" type="line"/>
      <point x="267" y="23" type="line"/>
      <point x="193" y="23"/>
      <point x="156" y="60"/>
      <point x="195" y="130" type="curve" smooth="yes"/>
      <point x="457" y="596" type="line"/>
      <point x="406" y="619" type="line"/>
      <point x="341" y="447"/>
      <point x="185" y="198"/>
      <point x="123" y="83" type="curve" smooth="yes"/>
      <point x="104" y="49"/>
      <point x="60" y="25"/>
    </contour>
    <contour>
      <point x="236" y="274" type="line"/>
      <point x="528" y="274" type="line"/>
      <point x="514" y="314" type="line"/>
      <point x="253" y="314" type="line"/>
    </contour>
    <contour>
      <point x="379" y="18" type="curve"/>
      <point x="379" y="-3" type="line"/>
      <point x="401" y="-1"/>
      <point x="449" y="0"/>
      <point x="494" y="0" type="curve"/>
      <point x="641" y="0"/>
      <point x="767" y="-1"/>
      <point x="844" y="-3" type="curve"/>
      <point x="858" y="44"/>
      <point x="868" y="110"/>
      <point x="868" y="157" type="curve"/>
      <point x="839" y="157" type="line"/>
      <point x="827" y="90"/>
      <point x="788" y="45"/>
      <point x="745" y="42" type="curve" smooth="yes"/>
      <point x="713" y="40"/>
      <point x="681" y="39"/>
      <point x="624" y="39" type="curve" smooth="yes"/>
      <point x="586" y="39"/>
      <point x="554" y="51"/>
      <point x="546" y="68" type="curve" smooth="yes"/>
      <point x="543" y="74"/>
      <point x="541" y="90"/>
      <point x="541" y="107" type="curve" smooth="yes"/>
      <point x="539" y="309" type="line" smooth="yes"/>
      <point x="539" y="328"/>
      <point x="540" y="407"/>
      <point x="541" y="509" type="curve" smooth="yes"/>
      <point x="541" y="537"/>
      <point x="552" y="561"/>
      <point x="568" y="569" type="curve" smooth="yes"/>
      <point x="578" y="574"/>
      <point x="602" y="577"/>
      <point x="624" y="577" type="curve" smooth="yes"/>
      <point x="652" y="577"/>
      <point x="662" y="576"/>
      <point x="694" y="574" type="curve" smooth="yes"/>
      <point x="719" y="572"/>
      <point x="742" y="544"/>
      <point x="750" y="499" type="curve"/>
      <point x="784" y="499" type="line"/>
      <point x="785" y="536"/>
      <point x="790" y="586"/>
      <point x="797" y="619" type="curve"/>
      <point x="732" y="617"/>
      <point x="629" y="616"/>
      <point x="504" y="616" type="curve"/>
      <point x="455" y="616"/>
      <point x="431" y="617"/>
      <point x="406" y="619" type="curve"/>
      <point x="403" y="598" type="line"/>
      <point x="445" y="586"/>
      <point x="453" y="572"/>
      <point x="457" y="565" type="curve" smooth="yes"/>
      <point x="461" y="557"/>
      <point x="463" y="541"/>
      <point x="463" y="525" type="curve" smooth="yes"/>
      <point x="465" y="312" type="line"/>
      <point x="463" y="91" type="line" smooth="yes"/>
      <point x="463" y="64"/>
      <point x="451" y="40"/>
      <point x="435" y="32" type="curve" smooth="yes"/>
      <point x="437" y="33"/>
      <point x="413" y="27"/>
    </contour>
    <contour>
      <point x="695" y="220" type="curve" smooth="yes"/>
      <point x="706" y="184" type="line"/>
      <point x="731" y="184" type="line"/>
      <point x="725" y="250"/>
      <point x="725" y="342"/>
      <point x="731" y="408" type="curve"/>
      <point x="705" y="408" type="line"/>
      <point x="704" y="402"/>
      <point x="699" y="388"/>
      <point x="694" y="374" type="curve"/>
      <point x="677" y="338"/>
      <point x="686" y="314"/>
      <point x="626" y="314" type="curve" smooth="yes"/>
      <point x="487" y="314" type="line"/>
      <point x="487" y="274" type="line"/>
      <point x="626" y="274" type="line" smooth="yes"/>
      <point x="693" y="274"/>
      <point x="683" y="252"/>
    </contour>
  </outline>
</glyph>
<glyph name="Eth" format="2">
  <advance width="712"/>
  <unicode hex="00D0"/>
  <outline>
    <component base="D"/>
    <contour>
      <point x="32" y="337" type="line"/>
      <point x="32" y="292" type="line"/>
      <point x="269" y="292" type="line"/>
      <point x="269" y="337" type="line"/>
    </contour>
  </outline>
</glyph>
<glyph name="multiply" format="2">
  <advance width="509"/>
  <unicode hex="00D7"/>
  <outline>
    <contour>
      <point x="105" y="93" type="line"/>
      <point x="253" y="242" type="line"/>
      <point x="406" y="89" type="line"/>
      <point x="446" y="128" type="line"/>
      <point x="293" y="281" type="line"/>
      <point x="443" y="431" type="line"/>
      <point x="403" y="470" type="line"/>
      <point x="254" y="321" type="line"/>
      <point x="102" y="472" type="line"/>
      <point x="63" y="432" type="line"/>
      <point x="214" y="281" type="line"/>
      <point x="65" y="132" type="line"/>
    </contour>
  </outline>
</glyph>
<glyph name="Oslash" format="2">
  <advance width="760"/>
  <unicode hex="00D8"/>
  <outline>
    <component base="O"/>
    <contour>
      <point x="639" y="594" type="line"/>
      <point x="85" y="39" type="line"/>
      <point x="114" y="10" type="line"/>
      <point x="668" y="565" type="line"/>
    </contour>
  </outline>
</glyph>
<glyph name="Thorn" format="2">
  <advance width="491"/>
  <unicode hex="00DE"/>
  <outline>
    <contour>
      <point x="253" y="135" type="curve" smooth="yes"/>
      <point x="377" y="135"/>
      <point x="464" y="209"/>
      <point x="464" y="314" type="curve" smooth="yes"/>
      <point x="464" y="416"/>
      <point x="377" y="487"/>
      <point x="253" y="485" type="curve" smooth="yes"/>
      <point x="214" y="484"/>
      <point x="216" y="480"/>
      <point x="184" y="480" type="curve"/>
      <point x="184" y="452" type="line"/>
      <point x="253" y="454" type="line" smooth="yes"/>
      <point x="326" y="456"/>
      <point x="378" y="398"/>
      <point x="378" y="314" type="curve" smooth="yes"/>
      <point x="378" y="244"/>
      <point x="326" y="183"/>
      <point x="253" y="166" type="curve" smooth="yes"/>
      <point x="237" y="162"/>
      <point x="208" y="159"/>
      <point x="184" y="159" type="curve"/>
      <point x="184" y="136" type="line"/>
      <point x="188" y="135"/>
      <point x="216" y="135"/>
    </contour>
    <component base="I"/>
  </outline>
</glyph>
<glyph name="ae" format="2">
  <advance width="594"/>
  <unicode hex="00E6"/>
  <outline>
    <contour>
      <point x="245" y="177" type="curve"/>
      <point x="304" y="214" type="line"/>
      <point x="304" y="181"/>
      <point x="306" y="133"/>
      <point x="308" y="290" type="curve"/>
      <point x="308" y="351"/>
      <point x="278" y="395"/>
      <point x="217" y="395" type="curve" smooth="yes"/>
      <point x="188" y="395"/>
      <point x="143" y="378"/>
      <point x="104" y="354" type="curve" smooth="yes"/>
      <point x="72" y="332"/>
      <point x="50" y="295"/>
      <point x="50" y="264" type="curve" smooth="yes"/>
      <point x="50" y="233"/>
      <point x="122" y="247"/>
      <point x="122" y="278" type="curve" smooth="yes"/>
      <point x="122" y="294"/>
      <point x="113" y="292"/>
      <point x="113" y="307" type="curve" smooth="yes"/>
      <point x="113" y="334"/>
      <point x="136" y="353"/>
      <point x="169" y="353" type="curve" smooth="yes"/>
      <point x="219" y="353"/>
      <point x="251" y="324"/>
      <point x="249" y="284" type="curve" smooth="yes"/>
      <point x="246" y="218" type="line"/>
      <point x="245" y="205"/>
      <point x="245" y="258"/>
    </contour>
    <contour>
      <point x="123" y="-6" type="curve" smooth="yes"/>
      <point x="166" y="-6"/>
      <point x="225" y="9"/>
      <point x="286" y="70" type="curve"/>
      <point x="265" y="85" type="line"/>
      <point x="234" y="61"/>
      <point x="192" y="44"/>
      <point x="164" y="44" type="curve" smooth="yes"/>
      <point x="135" y="44"/>
      <point x="114" y="71"/>
      <point x="114" y="110" type="curve"/>
      <point x="35" y="94" type="line"/>
      <point x="35" y="35"/>
      <point x="71" y="-6"/>
    </contour>
    <contour>
      <point x="36" y="94" type="curve"/>
      <point x="115" y="110" type="line"/>
      <point x="115" y="131"/>
      <point x="182" y="158"/>
      <point x="277" y="175" type="curve"/>
      <point x="278" y="206" type="line"/>
      <point x="136" y="183"/>
      <point x="36" y="137"/>
    </contour>
    <contour>
      <point x="306" y="210" type="curve" smooth="yes"/>
      <point x="306" y="302"/>
      <point x="348" y="367"/>
      <point x="408" y="367" type="curve" smooth="yes"/>
      <point x="453" y="367"/>
      <point x="487" y="325"/>
      <point x="490" y="266" type="curve"/>
      <point x="283" y="260" type="line"/>
      <point x="279" y="231" type="line"/>
      <point x="559" y="225" type="line"/>
      <point x="571" y="239" type="line"/>
      <point x="571" y="330"/>
      <point x="509" y="395"/>
      <point x="422" y="395" type="curve" smooth="yes"/>
      <point x="310" y="395"/>
      <point x="245" y="309"/>
      <point x="245" y="188" type="curve" smooth="yes"/>
      <point x="245" y="71"/>
      <point x="302" y="-11"/>
      <point x="403" y="-11" type="curve" smooth="yes"/>
      <point x="465" y="-11"/>
      <point x="534" y="33"/>
      <point x="569" y="95" type="curve"/>
      <point x="551" y="108" type="line"/>
      <point x="528" y="75"/>
      <point x="476" y="52"/>
      <point x="424" y="52" type="curve" smooth="yes"/>
      <point x="355" y="52"/>
      <point x="306" y="117"/>
    </contour>
  </outline>
</glyph>
<glyph name="eth" format="2">
  <advance width="513"/>
  <unicode hex="00F0"/>
  <outline>
    <contour>
      <point x="270" y="-11" type="curve" smooth="yes"/>
      <point x="391" y="-11"/>
      <point x="476" y="80"/>
      <point x="476" y="208" type="curve" smooth="yes"/>
      <point x="476" y="383"/>
      <point x="336" y="563"/>
      <point x="138" y="642" type="curve"/>
      <point x="120" y="597" type="line"/>
      <point x="277" y="534"/>
      <point x="390" y="373"/>
      <point x="390" y="208" type="curve" smooth="yes"/>
      <point x="390" y="103"/>
      <point x="332" y="29"/>
      <point x="254" y="29" type="curve" smooth="yes"/>
      <point x="183" y="29"/>
      <point x="131" y="100"/>
      <point x="131" y="201" type="curve" smooth="yes"/>
      <point x="131" y="291"/>
      <point x="183" y="354"/>
      <point x="254" y="354" type="curve" smooth="yes"/>
      <point x="332" y="354"/>
      <point x="390" y="294"/>
      <point x="390" y="208" type="curve"/>
      <point x="428" y="190" type="line"/>
      <point x="428" y="310"/>
      <point x="348" y="395"/>
      <point x="237" y="395" type="curve" smooth="yes"/>
      <point x="123" y="395"/>
      <point x="43" y="318"/>
      <point x="43" y="210" type="curve" smooth="yes"/>
      <point x="43" y="81"/>
      <point x="137" y="-11"/>
    </contour>
    <contour>
      <point x="160" y="471" type="line"/>
      <point x="192" y="439" type="line"/>
      <point x="359" y="606" type="line"/>
      <point x="327" y="638" type="line"/>
    </contour>
  </outline>
</glyph>
<glyph name="divide" format="2">
  <advance width="568"/>
  <unicode hex="00F7"/>
  <outline>
    <contour>
      <point x="54" y="256" type="line"/>
      <point x="514" y="256" type="line"/>
      <point x="514" y="306" type="line"/>
      <point x="54" y="306" type="line"/>
    </contour>
    <contour>
      <point x="278" y="56" type="curve" smooth="yes"/>
      <point x="311" y="56"/>
      <point x="328" y="73"/>
      <point x="328" y="107" type="curve" smooth="yes"/>
      <point x="328" y="141"/>
      <point x="311" y="158"/>
      <point x="278" y="158" type="curve" smooth="yes"/>
      <point x="243" y="158"/>
      <point x="226" y="141"/>
      <point x="226" y="107" type="curve" smooth="yes"/>
      <point x="226" y="73"/>
      <point x="243" y="56"/>
    </contour>
    <contour>
      <point x="278" y="398" type="curve" smooth="yes"/>
      <point x="311" y="398"/>
      <point x="328" y="415"/>
      <point x="328" y="449" type="curve" smooth="yes"/>
      <point x="328" y="483"/>
      <point x="311" y="500"/>
      <point x="278" y="500" type="curve" smooth="yes"/>
      <point x="243" y="500"/>
      <point x="226" y="483"/>
      <point x="226" y="449" type="curve" smooth="yes"/>
      <point x="226" y="415"/>
      <point x="243" y="398"/>
    </contour>
  </outline>
</glyph>
<glyph name="oslash" format="2">
  <advance width="495"/>
  <unicode hex="00F8"/>
  <anchor x="244" y="0" name="bottom"/>
  <anchor x="244" y="192" name="center"/>
  <anchor x="439" y="10" name="ogonek"/>
  <anchor x="244" y="384" name="top"/>
  <anchor x="468" y="384" name="topright"/>
  <outline>
    <contour>
      <point x="422" y="406" type="line"/>
      <point x="29" y="12" type="line"/>
      <point x="57" y="-16" type="line"/>
      <point x="450" y="378" type="line"/>
    </contour>
    <component base="o"/>
  </outline>
</glyph>
<glyph name="thorn" format="2">
  <advance width="495"/>
  <unicode hex="00FE"/>
  <outline>
    <contour>
      <point x="380" y="174" type="curve"/>
      <point x="459" y="205" type="line"/>
      <point x="459" y="316"/>
      <point x="390" y="395"/>
      <point x="291" y="395" type="curve" smooth="yes"/>
      <point x="246" y="395"/>
      <point x="174" y="362"/>
      <point x="117" y="315" type="curve"/>
      <point x="117" y="296" type="line"/>
      <point x="155" y="319"/>
      <point x="209" y="335"/>
      <point x="246" y="335" type="curve" smooth="yes"/>
      <point x="325" y="335"/>
      <point x="380" y="268"/>
    </contour>
    <contour>
      <point x="16" y="-232" type="line"/>
      <point x="239" y="-232" type="line"/>
      <point x="239" y="-214" type="line"/>
      <point x="189" y="-204"/>
      <point x="153" y="-183"/>
      <point x="153" y="-164" type="curve" smooth="yes"/>
      <point x="153" y="316" type="line"/>
      <point x="152" y="316" type="line"/>
      <point x="153" y="570" type="line"/>
      <point x="155" y="660" type="line"/>
      <point x="142" y="668" type="line"/>
      <point x="21" y="628" type="line"/>
      <point x="21" y="607" type="line"/>
      <point x="56" y="592"/>
      <point x="81" y="575"/>
      <point x="81" y="564" type="curve" smooth="yes"/>
      <point x="81" y="-164" type="line" smooth="yes"/>
      <point x="81" y="-179"/>
      <point x="54" y="-200"/>
      <point x="16" y="-214" type="curve"/>
    </contour>
    <contour>
      <point x="459" y="205" type="curve"/>
      <point x="380" y="174" type="line"/>
      <point x="380" y="87"/>
      <point x="324" y="26"/>
      <point x="245" y="26" type="curve" smooth="yes"/>
      <point x="202" y="26"/>
      <point x="152" y="64"/>
      <point x="127" y="117" type="curve"/>
      <point x="101" y="28" type="line"/>
      <point x="133" y="5"/>
      <point x="184" y="-11"/>
      <point x="224" y="-11" type="curve" smooth="yes"/>
      <point x="362" y="-11"/>
      <point x="459" y="78"/>
    </contour>
  </outline>
</glyph>
<glyph name="dotlessi" format="2">
  <advance width="243"/>
  <unicode hex="0131"/>
  <note>
i
</note>
  <anchor x="120" y="0" name="bottom"/>
  <anchor x="225" y="0" name="ogonek"/>
  <anchor x="120" y="384" name="top"/>
  <outline>
    <contour>
      <point x="24" y="18" type="curve"/>
      <point x="24" y="0" type="line"/>
      <point x="225" y="0" type="line"/>
      <point x="225" y="18" type="line"/>
      <point x="184" y="32"/>
      <point x="160" y="39"/>
      <point x="159" y="68" type="curve" smooth="yes"/>
      <point x="157" y="148"/>
      <point x="157" y="234"/>
      <point x="159" y="314" type="curve"/>
      <point x="161" y="393" type="line"/>
      <point x="146" y="403" type="line"/>
      <point x="24" y="362" type="line"/>
      <point x="24" y="341" type="line"/>
      <point x="46" y="333"/>
      <point x="86" y="320"/>
      <point x="87" y="298" type="curve" smooth="yes"/>
      <point x="90" y="223"/>
      <point x="90" y="143"/>
      <point x="87" y="68" type="curve" smooth="yes"/>
      <point x="86" y="39"/>
      <point x="71" y="32"/>
    </contour>
  </outline>
</glyph>
<glyph name="OE" format="2">
  <advance width="1053"/>
  <unicode hex="0152"/>
  <outline>
    <contour>
      <point x="376" y="-11" type="curve" smooth="yes"/>
      <point x="567" y="-11"/>
      <point x="654" y="121"/>
      <point x="654" y="308" type="curve" smooth="yes"/>
      <point x="654" y="494"/>
      <point x="567" y="626"/>
      <point x="376" y="626" type="curve" smooth="yes"/>
      <point x="187" y="626"/>
      <point x="56" y="494"/>
      <point x="56" y="308" type="curve" smooth="yes"/>
      <point x="56" y="121"/>
      <point x="187" y="-11"/>
    </contour>
    <contour>
      <point x="152" y="318" type="curve" smooth="yes"/>
      <point x="152" y="471"/>
      <point x="239" y="585"/>
      <point x="361" y="585" type="curve" smooth="yes"/>
      <point x="504" y="585"/>
      <point x="582" y="463"/>
      <point x="582" y="298" type="curve" smooth="yes"/>
      <point x="582" y="144"/>
      <point x="518" y="30"/>
      <point x="393" y="30" type="curve" smooth="yes"/>
      <point x="251" y="30"/>
      <point x="152" y="152"/>
    </contour>
    <contour>
      <point x="574" y="-3" type="line"/>
      <point x="588" y="-1"/>
      <point x="599" y="0"/>
      <point x="612" y="0" type="curve"/>
      <point x="759" y="0"/>
      <point x="917" y="-1"/>
      <point x="994" y="-3" type="curve"/>
      <point x="1008" y="44"/>
      <point x="1018" y="110"/>
      <point x="1018" y="157" type="curve"/>
      <point x="989" y="157" type="line"/>
      <point x="977" y="90"/>
      <point x="938" y="45"/>
      <point x="895" y="42" type="curve" smooth="yes"/>
      <point x="863" y="40"/>
      <point x="799" y="39"/>
      <point x="742" y="39" type="curve" smooth="yes"/>
      <point x="704" y="39"/>
      <point x="672" y="51"/>
      <point x="664" y="68" type="curve" smooth="yes"/>
      <point x="661" y="74"/>
      <point x="659" y="90"/>
      <point x="659" y="107" type="curve" smooth="yes"/>
      <point x="657" y="309" type="line" smooth="yes"/>
      <point x="657" y="328"/>
      <point x="658" y="407"/>
      <point x="659" y="509" type="curve" smooth="yes"/>
      <point x="659" y="537"/>
      <point x="670" y="561"/>
      <point x="686" y="569" type="curve" smooth="yes"/>
      <point x="696" y="574"/>
      <point x="720" y="577"/>
      <point x="742" y="577" type="curve" smooth="yes"/>
      <point x="770" y="577"/>
      <point x="812" y="576"/>
      <point x="844" y="574" type="curve" smooth="yes"/>
      <point x="869" y="572"/>
      <point x="892" y="544"/>
      <point x="900" y="499" type="curve"/>
      <point x="934" y="499" type="line"/>
      <point x="935" y="536"/>
      <point x="940" y="586"/>
      <point x="947" y="619" type="curve"/>
      <point x="882" y="617"/>
      <point x="747" y="616"/>
      <point x="622" y="616" type="curve"/>
      <point x="590" y="617"/>
      <point x="599" y="617"/>
      <point x="574" y="619" type="curve"/>
      <point x="582" y="529" type="line"/>
      <point x="581" y="525" type="line"/>
      <point x="583" y="312" type="line"/>
      <point x="581" y="91" type="line"/>
      <point x="582" y="88" type="line"/>
    </contour>
    <contour>
      <point x="845" y="242" type="curve" smooth="yes"/>
      <point x="856" y="206" type="line"/>
      <point x="881" y="206" type="line"/>
      <point x="875" y="272"/>
      <point x="875" y="364"/>
      <point x="881" y="430" type="curve"/>
      <point x="855" y="430" type="line"/>
      <point x="854" y="424"/>
      <point x="849" y="410"/>
      <point x="844" y="396" type="curve"/>
      <point x="827" y="360"/>
      <point x="804" y="336"/>
      <point x="744" y="336" type="curve" smooth="yes"/>
      <point x="605" y="336" type="line"/>
      <point x="605" y="296" type="line"/>
      <point x="744" y="296" type="line" smooth="yes"/>
      <point x="811" y="296"/>
      <point x="833" y="274"/>
    </contour>
  </outline>
</glyph>
<glyph name="oe" format="2">
  <advance width="747"/>
  <unicode hex="0153"/>
  <outline>
    <contour>
      <point x="241" y="-11" type="curve" smooth="yes"/>
      <point x="366" y="-11"/>
      <point x="447" y="75"/>
      <point x="447" y="196" type="curve" smooth="yes"/>
      <point x="447" y="313"/>
      <point x="366" y="395"/>
      <point x="241" y="395" type="curve" smooth="yes"/>
      <point x="119" y="395"/>
      <point x="35" y="308"/>
      <point x="35" y="185" type="curve" smooth="yes"/>
      <point x="35" y="70"/>
      <point x="119" y="-11"/>
    </contour>
    <contour>
      <point x="123" y="208" type="curve" smooth="yes"/>
      <point x="123" y="296"/>
      <point x="167" y="359"/>
      <point x="233" y="359" type="curve" smooth="yes"/>
      <point x="311" y="359"/>
      <point x="367" y="282"/>
      <point x="367" y="174" type="curve" smooth="yes"/>
      <point x="367" y="87"/>
      <point x="317" y="25"/>
      <point x="249" y="25" type="curve" smooth="yes"/>
      <point x="174" y="25"/>
      <point x="123" y="101"/>
    </contour>
    <contour>
      <point x="450" y="210" type="curve" smooth="yes"/>
      <point x="450" y="302"/>
      <point x="491" y="362"/>
      <point x="551" y="362" type="curve" smooth="yes"/>
      <point x="596" y="362"/>
      <point x="630" y="325"/>
      <point x="633" y="266" type="curve"/>
      <point x="427" y="260" type="line"/>
      <point x="423" y="231" type="line"/>
      <point x="702" y="225" type="line"/>
      <point x="714" y="239" type="line"/>
      <point x="714" y="330"/>
      <point x="652" y="395"/>
      <point x="565" y="395" type="curve" smooth="yes"/>
      <point x="453" y="395"/>
      <point x="375" y="309"/>
      <point x="375" y="188" type="curve" smooth="yes"/>
      <point x="375" y="71"/>
      <point x="445" y="-11"/>
      <point x="546" y="-11" type="curve" smooth="yes"/>
      <point x="608" y="-11"/>
      <point x="677" y="33"/>
      <point x="712" y="95" type="curve"/>
      <point x="694" y="108" type="line"/>
      <point x="671" y="75"/>
      <point x="619" y="52"/>
      <point x="567" y="52" type="curve" smooth="yes"/>
      <point x="498" y="52"/>
      <point x="450" y="117"/>
    </contour>
  </outline>
</glyph>
<glyph name="uni0237" format="2">
  <advance width="225"/>
  <unicode hex="0237"/>
  <anchor x="108" y="-232" name="bottom"/>
  <anchor x="108" y="384" name="top"/>
  <outline>
    <contour>
      <point x="27" y="-224" type="curve" smooth="yes"/>
      <point x="29" y="-223"/>
      <point x="31" y="-222"/>
      <point x="32" y="-222" type="curve"/>
      <point x="42" y="-218"/>
      <point x="55" y="-209"/>
      <point x="65" y="-201" type="curve" smooth="yes"/>
      <point x="115" y="-164"/>
      <point x="150" y="-51"/>
      <point x="150" y="68" type="curve" smooth="yes"/>
      <point x="150" y="314" type="line"/>
      <point x="152" y="393" type="line"/>
      <point x="137" y="403" type="line"/>
      <point x="18" y="362" type="line"/>
      <point x="18" y="341" type="line"/>
      <point x="53" y="326"/>
      <point x="78" y="309"/>
      <point x="78" y="298" type="curve" smooth="yes"/>
      <point x="80" y="254"/>
      <point x="81" y="128"/>
      <point x="81" y="1" type="curve" smooth="yes"/>
      <point x="81" y="-87"/>
      <point x="65" y="-160"/>
      <point x="42" y="-178" type="curve"/>
      <point x="39" y="-179"/>
      <point x="35" y="-179"/>
      <point x="31" y="-179" type="curve" smooth="yes"/>
      <point x="27" y="-179"/>
      <point x="23" y="-179"/>
      <point x="20" y="-178" type="curve" smooth="yes"/>
      <point x="6" y="-174"/>
      <point x="11" y="-168"/>
      <point x="-4" y="-164" type="curve" smooth="yes"/>
      <point x="-25" y="-158"/>
      <point x="-48" y="-191"/>
      <point x="-48" y="-212" type="curve" smooth="yes"/>
      <point x="-48" y="-221"/>
      <point x="-45" y="-228"/>
      <point x="-36" y="-230" type="curve" smooth="yes"/>
      <point x="-30" y="-231"/>
      <point x="-24" y="-232"/>
      <point x="-17" y="-232" type="curve" smooth="yes"/>
      <point x="-2" y="-232"/>
      <point x="14" y="-229"/>
    </contour>
  </outline>
</glyph>
<glyph name="gravecomb" format="2">
  <advance width="300"/>
  <unicode hex="0300"/>
  <anchor x="150" y="399" name="_top"/>
  <anchor x="150" y="622" name="top"/>
  <outline>
    <contour>
      <point x="66" y="455" type="line"/>
      <point x="81" y="444" type="line"/>
      <point x="218" y="584" type="line"/>
      <point x="224" y="591"/>
      <point x="208" y="604"/>
      <point x="192" y="617" type="curve" smooth="yes"/>
      <point x="173" y="629"/>
      <point x="157" y="632"/>
      <point x="152" y="624" type="curve"/>
    </contour>
  </outline>
</glyph>
<glyph name="circumflexcomb" format="2">
  <advance width="300"/>
  <unicode hex="0302"/>
  <anchor x="150" y="399" name="_top"/>
  <anchor x="150" y="622" name="top"/>
  <outline>
    <contour>
      <point x="257" y="450" type="line"/>
      <point x="271" y="462" type="line"/>
      <point x="178" y="609" type="line" smooth="yes"/>
      <point x="168" y="625"/>
      <point x="134" y="625"/>
      <point x="124" y="609" type="curve" smooth="yes"/>
      <point x="31" y="462" type="line"/>
      <point x="45" y="450" type="line"/>
      <point x="151" y="546" type="line"/>
    </contour>
  </outline>
</glyph>
<glyph name="tildecomb" format="2">
  <advance width="300"/>
  <unicode hex="0303"/>
  <anchor x="157" y="384" name="_top"/>
  <anchor x="157" y="633" name="top"/>
  <outline>
    <contour>
      <point x="299" y="629" type="line"/>
      <point x="266" y="565"/>
      <point x="259" y="508"/>
      <point x="189" y="508" type="curve"/>
      <point x="128" y="508" type="line"/>
      <point x="84" y="508"/>
      <point x="81" y="489"/>
      <point x="32" y="436" type="curve"/>
      <point x="15" y="448" type="line"/>
      <point x="49" y="512"/>
      <point x="55" y="569"/>
      <point x="125" y="569" type="curve"/>
      <point x="186" y="569" type="line"/>
      <point x="230" y="569"/>
      <point x="233" y="588"/>
      <point x="282" y="641" type="curve"/>
    </contour>
  </outline>
</glyph>
<glyph name="dieresiscomb" format="2">
  <advance width="300"/>
  <unicode hex="0308"/>
  <anchor x="142" y="447" name="_top"/>
  <anchor x="150" y="622" name="top"/>
  <outline>
    <contour>
      <point x="72" y="540" type="curve" smooth="yes"/>
      <point x="98" y="540"/>
      <point x="116" y="557"/>
      <point x="116" y="581" type="curve" smooth="yes"/>
      <point x="116" y="605"/>
      <point x="98" y="622"/>
      <point x="72" y="622" type="curve" smooth="yes"/>
      <point x="46" y="622"/>
      <point x="28" y="605"/>
      <point x="28" y="581" type="curve" smooth="yes"/>
      <point x="28" y="557"/>
      <point x="46" y="540"/>
    </contour>
    <contour>
      <point x="228" y="540" type="curve" smooth="yes"/>
      <point x="254" y="540"/>
      <point x="272" y="557"/>
      <point x="272" y="581" type="curve" smooth="yes"/>
      <point x="272" y="605"/>
      <point x="254" y="622"/>
      <point x="228" y="622" type="curve" smooth="yes"/>
      <point x="202" y="622"/>
      <point x="184" y="605"/>
      <point x="184" y="581" type="curve" smooth="yes"/>
      <point x="184" y="557"/>
      <point x="202" y="540"/>
    </contour>
  </outline>
</glyph>
<glyph name="ringcomb" format="2">
  <advance width="300"/>
  <unicode hex="030A"/>
  <anchor x="144" y="384" name="_top"/>
  <anchor x="144" y="0" name="top"/>
  <outline>
    <contour>
      <point x="144" y="481" type="curve" smooth="yes"/>
      <point x="189" y="481"/>
      <point x="220" y="513"/>
      <point x="220" y="558" type="curve" smooth="yes"/>
      <point x="220" y="603"/>
      <point x="189" y="634"/>
      <point x="144" y="634" type="curve" smooth="yes"/>
      <point x="99" y="634"/>
      <point x="68" y="603"/>
      <point x="68" y="558" type="curve" smooth="yes"/>
      <point x="68" y="513"/>
      <point x="99" y="481"/>
    </contour>
    <contour>
      <point x="144" y="512" type="curve" smooth="yes"/>
      <point x="118" y="512"/>
      <point x="99" y="531"/>
      <point x="99" y="558" type="curve" smooth="yes"/>
      <point x="99" y="584"/>
      <point x="118" y="603"/>
      <point x="144" y="603" type="curve" smooth="yes"/>
      <point x="170" y="603"/>
      <point x="189" y="584"/>
      <point x="189" y="558" type="curve" smooth="yes"/>
      <point x="189" y="531"/>
      <point x="170" y="512"/>
    </contour>
  </outline>
</glyph>
<glyph name="cedillacomb" format="2">
  <advance width="300"/>
  <unicode hex="0327"/>
  <anchor x="159" y="0" name="_bottom"/>
  <anchor x="159" y="-234" name="bottom"/>
  <outline>
    <contour>
      <point x="122" y="5" type="line"/>
      <point x="106" y="-39"/>
      <point x="88" y="-96"/>
      <point x="88" y="-96" type="curve" smooth="yes"/>
      <point x="85" y="-102"/>
      <point x="91" y="-107"/>
      <point x="102" y="-107" type="curve" smooth="yes"/>
      <point x="159" y="-107"/>
      <point x="199" y="-124"/>
      <point x="199" y="-149" type="curve" smooth="yes"/>
      <point x="199" y="-194"/>
      <point x="146" y="-209"/>
      <point x="72" y="-185" type="curve" smooth="yes"/>
      <point x="62" y="-182"/>
      <point x="55" y="-194"/>
      <point x="55" y="-213" type="curve" smooth="yes"/>
      <point x="55" y="-219"/>
      <point x="62" y="-224"/>
      <point x="73" y="-226" type="curve" smooth="yes"/>
      <point x="184" y="-250"/>
      <point x="262" y="-216"/>
      <point x="262" y="-145" type="curve" smooth="yes"/>
      <point x="262" y="-96"/>
      <point x="219" y="-61"/>
      <point x="158" y="-61" type="curve"/>
      <point x="184" y="6" type="line"/>
    </contour>
  </outline>
</glyph>
<glyph name="baht" format="2">
  <advance width="600"/>
  <unicode hex="0E3F"/>
  <anchor x="296" y="700" name="top"/>
  <outline>
    <contour>
      <point x="270" y="-100" type="line"/>
      <point x="310" y="-100" type="line"/>
      <point x="310" y="800" type="line"/>
      <point x="270" y="800" type="line"/>
    </contour>
    <component base="B" xOffset="8"/>
  </outline>
</glyph>
<glyph name="Germandbls" format="2">
  <advance width="584"/>
  <unicode hex="1E9E"/>
  <outline>
    <contour>
      <point x="24" y="0" type="line"/>
      <point x="193" y="0" type="line"/>
      <point x="193" y="69" type="line" smooth="yes"/>
      <point x="193" y="332"/>
      <point x="193" y="510"/>
      <point x="192" y="499" type="curve"/>
      <point x="191" y="578" type="line"/>
      <point x="294" y="578" type="line"/>
      <point x="345" y="616" type="line"/>
      <point x="152" y="616" type="line" smooth="yes"/>
      <point x="107" y="616"/>
      <point x="55" y="617"/>
      <point x="27" y="619" type="curve"/>
      <point x="27" y="598" type="line"/>
      <point x="84" y="582"/>
      <point x="110" y="585"/>
      <point x="111" y="525" type="curve" smooth="yes"/>
      <point x="113" y="373"/>
      <point x="111" y="221"/>
      <point x="111" y="69" type="curve" smooth="yes"/>
      <point x="111" y="38"/>
      <point x="75" y="33"/>
      <point x="24" y="18" type="curve"/>
    </contour>
    <contour>
      <point x="408" y="-6" type="curve" smooth="yes"/>
      <point x="497" y="-6"/>
      <point x="560" y="50"/>
      <point x="560" y="129" type="curve" smooth="yes"/>
      <point x="560" y="247"/>
      <point x="376" y="256"/>
      <point x="376" y="334" type="curve" smooth="yes"/>
      <point x="376" y="425"/>
      <point x="504" y="420"/>
      <point x="504" y="512" type="curve" smooth="yes"/>
      <point x="504" y="573"/>
      <point x="438" y="616"/>
      <point x="345" y="616" type="curve"/>
      <point x="294" y="578" type="line"/>
      <point x="370" y="578"/>
      <point x="424" y="542"/>
      <point x="424" y="491" type="curve" smooth="yes"/>
      <point x="424" y="419"/>
      <point x="304" y="420"/>
      <point x="304" y="309" type="curve" smooth="yes"/>
      <point x="304" y="189"/>
      <point x="484" y="194"/>
      <point x="484" y="103" type="curve" smooth="yes"/>
      <point x="484" y="51"/>
      <point x="453" y="18"/>
      <point x="408" y="22" type="curve" smooth="yes"/>
      <point x="368" y="25"/>
      <point x="336" y="66"/>
      <point x="330" y="122" type="curve"/>
      <point x="303" y="122" type="line"/>
      <point x="305" y="99"/>
      <point x="305" y="51"/>
      <point x="304" y="6" type="curve"/>
      <point x="330" y="-1"/>
      <point x="373" y="-6"/>
    </contour>
  </outline>
</glyph>
<glyph name="endash" format="2">
  <advance width="486"/>
  <unicode hex="2013"/>
  <outline>
    <contour>
      <point x="6" y="186" type="line"/>
      <point x="480" y="190" type="line"/>
      <point x="486" y="253" type="line"/>
      <point x="404" y="253" type="line"/>
      <point x="80" y="239" type="line"/>
      <point x="0" y="231" type="line"/>
    </contour>
  </outline>
</glyph>
<glyph name="emdash" format="2">
  <advance width="693"/>
  <unicode hex="2014"/>
  <outline>
    <contour>
      <point x="6" y="186" type="line"/>
      <point x="686" y="190" type="line"/>
      <point x="693" y="253" type="line"/>
      <point x="611" y="253" type="line"/>
      <point x="83" y="239" type="line"/>
      <point x="0" y="231" type="line"/>
    </contour>
  </outline>
</glyph>
<glyph name="quoteleft" format="2">
  <advance width="236"/>
  <unicode hex="2018"/>
  <outline>
    <contour>
      <point x="182" y="624" type="curve"/>
      <point x="172" y="651" type="line"/>
      <point x="97" y="621"/>
      <point x="45" y="549"/>
      <point x="45" y="478" type="curve" smooth="yes"/>
      <point x="45" y="432"/>
      <point x="79" y="395"/>
      <point x="129" y="395" type="curve" smooth="yes"/>
      <point x="165" y="395"/>
      <point x="191" y="419"/>
      <point x="191" y="448" type="curve" smooth="yes"/>
      <point x="191" y="470"/>
      <point x="177" y="491"/>
      <point x="157" y="491" type="curve" smooth="yes"/>
      <point x="139" y="491"/>
      <point x="136" y="484"/>
      <point x="121" y="484" type="curve" smooth="yes"/>
      <point x="107" y="484"/>
      <point x="99" y="500"/>
      <point x="99" y="523" type="curve" smooth="yes"/>
      <point x="99" y="572"/>
      <point x="134" y="611"/>
    </contour>
  </outline>
</glyph>
<glyph name="quoteright" format="2">
  <advance width="236"/>
  <unicode hex="2019"/>
  <outline>
    <contour>
      <point x="54" y="396" type="curve"/>
      <point x="64" y="369" type="line"/>
      <point x="139" y="399"/>
      <point x="191" y="471"/>
      <point x="191" y="542" type="curve" smooth="yes"/>
      <point x="191" y="588"/>
      <point x="157" y="625"/>
      <point x="107" y="625" type="curve" smooth="yes"/>
      <point x="71" y="625"/>
      <point x="45" y="601"/>
      <point x="45" y="572" type="curve" smooth="yes"/>
      <point x="45" y="550"/>
      <point x="59" y="529"/>
      <point x="79" y="529" type="curve" smooth="yes"/>
      <point x="97" y="529"/>
      <point x="100" y="536"/>
      <point x="115" y="536" type="curve" smooth="yes"/>
      <point x="129" y="536"/>
      <point x="137" y="520"/>
      <point x="137" y="497" type="curve" smooth="yes"/>
      <point x="137" y="448"/>
      <point x="102" y="409"/>
    </contour>
  </outline>
</glyph>
<glyph name="quotedblleft" format="2">
  <advance width="420"/>
  <unicode hex="201C"/>
  <outline>
    <contour>
      <point x="366" y="624" type="curve"/>
      <point x="356" y="651" type="line"/>
      <point x="281" y="621"/>
      <point x="229" y="549"/>
      <point x="229" y="478" type="curve" smooth="yes"/>
      <point x="229" y="432"/>
      <point x="263" y="395"/>
      <point x="313" y="395" type="curve" smooth="yes"/>
      <point x="349" y="395"/>
      <point x="375" y="419"/>
      <point x="375" y="448" type="curve" smooth="yes"/>
      <point x="375" y="470"/>
      <point x="361" y="491"/>
      <point x="341" y="491" type="curve" smooth="yes"/>
      <point x="323" y="491"/>
      <point x="320" y="484"/>
      <point x="305" y="484" type="curve" smooth="yes"/>
      <point x="291" y="484"/>
      <point x="283" y="500"/>
      <point x="283" y="523" type="curve" smooth="yes"/>
      <point x="283" y="572"/>
      <point x="318" y="611"/>
    </contour>
    <contour>
      <point x="182" y="624" type="curve"/>
      <point x="172" y="651" type="line"/>
      <point x="97" y="621"/>
      <point x="45" y="549"/>
      <point x="45" y="478" type="curve" smooth="yes"/>
      <point x="45" y="432"/>
      <point x="79" y="395"/>
      <point x="129" y="395" type="curve" smooth="yes"/>
      <point x="165" y="395"/>
      <point x="191" y="419"/>
      <point x="191" y="448" type="curve" smooth="yes"/>
      <point x="191" y="470"/>
      <point x="177" y="491"/>
      <point x="157" y="491" type="curve" smooth="yes"/>
      <point x="139" y="491"/>
      <point x="136" y="484"/>
      <point x="121" y="484" type="curve" smooth="yes"/>
      <point x="107" y="484"/>
      <point x="99" y="500"/>
      <point x="99" y="523" type="curve" smooth="yes"/>
      <point x="99" y="572"/>
      <point x="134" y="611"/>
    </contour>
  </outline>
</glyph>
<glyph name="quotedblright" format="2">
  <advance width="420"/>
  <unicode hex="201D"/>
  <outline>
    <contour>
      <point x="54" y="396" type="curve"/>
      <point x="64" y="369" type="line"/>
      <point x="139" y="399"/>
      <point x="191" y="471"/>
      <point x="191" y="542" type="curve" smooth="yes"/>
      <point x="191" y="588"/>
      <point x="157" y="625"/>
      <point x="107" y="625" type="curve" smooth="yes"/>
      <point x="71" y="625"/>
      <point x="45" y="601"/>
      <point x="45" y="572" type="curve" smooth="yes"/>
      <point x="45" y="550"/>
      <point x="59" y="529"/>
      <point x="79" y="529" type="curve" smooth="yes"/>
      <point x="97" y="529"/>
      <point x="100" y="536"/>
      <point x="115" y="536" type="curve" smooth="yes"/>
      <point x="129" y="536"/>
      <point x="137" y="520"/>
      <point x="137" y="497" type="curve" smooth="yes"/>
      <point x="137" y="448"/>
      <point x="102" y="409"/>
    </contour>
    <contour>
      <point x="238" y="396" type="curve"/>
      <point x="248" y="369" type="line"/>
      <point x="323" y="399"/>
      <point x="375" y="471"/>
      <point x="375" y="542" type="curve" smooth="yes"/>
      <point x="375" y="588"/>
      <point x="341" y="625"/>
      <point x="291" y="625" type="curve" smooth="yes"/>
      <point x="255" y="625"/>
      <point x="229" y="601"/>
      <point x="229" y="572" type="curve" smooth="yes"/>
      <point x="229" y="550"/>
      <point x="243" y="529"/>
      <point x="263" y="529" type="curve" smooth="yes"/>
      <point x="281" y="529"/>
      <point x="284" y="536"/>
      <point x="299" y="536" type="curve" smooth="yes"/>
      <point x="313" y="536"/>
      <point x="321" y="520"/>
      <point x="321" y="497" type="curve" smooth="yes"/>
      <point x="321" y="448"/>
      <point x="286" y="409"/>
    </contour>
  </outline>
</glyph>
<glyph name="daggerdbl" format="2">
  <advance width="397"/>
  <unicode hex="2021"/>
  <outline>
    <contour>
      <point x="160" y="331" type="line"/>
      <point x="240" y="331" type="line"/>
      <point x="240" y="417" type="line"/>
      <point x="328" y="417" type="line"/>
      <point x="361" y="477" type="line"/>
      <point x="240" y="477" type="line"/>
      <point x="240" y="584" type="line"/>
      <point x="328" y="584" type="line"/>
      <point x="361" y="644" type="line"/>
      <point x="240" y="644" type="line"/>
      <point x="240" y="733" type="line"/>
      <point x="160" y="733" type="line"/>
      <point x="160" y="644" type="line"/>
      <point x="73" y="644" type="line"/>
      <point x="36" y="584" type="line"/>
      <point x="160" y="584" type="line"/>
      <point x="160" y="477" type="line"/>
      <point x="73" y="477" type="line"/>
      <point x="36" y="417" type="line"/>
      <point x="160" y="417" type="line"/>
    </contour>
  </outline>
</glyph>
<glyph name="bullet" format="2">
  <advance width="393"/>
  <unicode hex="2022"/>
  <outline>
    <contour>
      <point x="196" y="117" type="curve" smooth="yes"/>
      <point x="274" y="117"/>
      <point x="339" y="182"/>
      <point x="339" y="259" type="curve" smooth="yes"/>
      <point x="339" y="337"/>
      <point x="274" y="402"/>
      <point x="196" y="402" type="curve" smooth="yes"/>
      <point x="119" y="402"/>
      <point x="54" y="337"/>
      <point x="54" y="259" type="curve" smooth="yes"/>
      <point x="54" y="182"/>
      <point x="119" y="117"/>
    </contour>
  </outline>
</glyph>
<glyph name="perthousand" format="2">
  <advance width="964"/>
  <unicode hex="2030"/>
  <outline>
    <contour>
      <point x="85" y="-2" type="line"/>
      <point x="134" y="-2" type="line"/>
      <point x="563" y="614" type="line"/>
      <point x="514" y="614" type="line"/>
    </contour>
    <contour>
      <point x="480" y="-16" type="curve" smooth="yes"/>
      <point x="554" y="-16"/>
      <point x="607" y="54"/>
      <point x="607" y="153" type="curve" smooth="yes"/>
      <point x="607" y="244"/>
      <point x="554" y="308"/>
      <point x="480" y="308" type="curve" smooth="yes"/>
      <point x="405" y="308"/>
      <point x="352" y="242"/>
      <point x="352" y="149" type="curve" smooth="yes"/>
      <point x="352" y="52"/>
      <point x="405" y="-16"/>
    </contour>
    <contour>
      <point x="487" y="10" type="curve" smooth="yes"/>
      <point x="444" y="10"/>
      <point x="414" y="73"/>
      <point x="414" y="161" type="curve" smooth="yes"/>
      <point x="414" y="232"/>
      <point x="439" y="282"/>
      <point x="474" y="282" type="curve" smooth="yes"/>
      <point x="516" y="282"/>
      <point x="545" y="223"/>
      <point x="545" y="139" type="curve" smooth="yes"/>
      <point x="545" y="63"/>
      <point x="521" y="10"/>
    </contour>
    <contour>
      <point x="173" y="304" type="curve" smooth="yes"/>
      <point x="247" y="304"/>
      <point x="300" y="374"/>
      <point x="300" y="473" type="curve" smooth="yes"/>
      <point x="300" y="563"/>
      <point x="247" y="627"/>
      <point x="173" y="627" type="curve" smooth="yes"/>
      <point x="98" y="627"/>
      <point x="45" y="562"/>
      <point x="45" y="469" type="curve" smooth="yes"/>
      <point x="45" y="372"/>
      <point x="98" y="304"/>
    </contour>
    <contour>
      <point x="179" y="330" type="curve" smooth="yes"/>
      <point x="137" y="330"/>
      <point x="107" y="393"/>
      <point x="107" y="481" type="curve" smooth="yes"/>
      <point x="107" y="551"/>
      <point x="132" y="601"/>
      <point x="167" y="601" type="curve" smooth="yes"/>
      <point x="209" y="601"/>
      <point x="238" y="542"/>
      <point x="238" y="459" type="curve" smooth="yes"/>
      <point x="238" y="383"/>
      <point x="214" y="330"/>
    </contour>
    <contour>
      <point x="792" y="-16" type="curve" smooth="yes"/>
      <point x="866" y="-16"/>
      <point x="919" y="54"/>
      <point x="919" y="153" type="curve" smooth="yes"/>
      <point x="919" y="244"/>
      <point x="866" y="308"/>
      <point x="792" y="308" type="curve" smooth="yes"/>
      <point x="717" y="308"/>
      <point x="664" y="242"/>
      <point x="664" y="149" type="curve" smooth="yes"/>
      <point x="664" y="52"/>
      <point x="717" y="-16"/>
    </contour>
    <contour>
      <point x="799" y="10" type="curve" smooth="yes"/>
      <point x="756" y="10"/>
      <point x="726" y="73"/>
      <point x="726" y="161" type="curve" smooth="yes"/>
      <point x="726" y="232"/>
      <point x="751" y="282"/>
      <point x="786" y="282" type="curve" smooth="yes"/>
      <point x="828" y="282"/>
      <point x="857" y="223"/>
      <point x="857" y="139" type="curve" smooth="yes"/>
      <point x="857" y="63"/>
      <point x="833" y="10"/>
    </contour>
  </outline>
</glyph>
<glyph name="guilsinglleft" format="2">
  <advance width="292"/>
  <unicode hex="2039"/>
  <outline>
    <contour>
      <point x="212" y="354" type="line"/>
      <point x="36" y="204" type="line"/>
      <point x="207" y="50" type="line"/>
      <point x="247" y="80" type="line"/>
      <point x="137" y="204" type="line"/>
      <point x="240" y="333" type="line"/>
    </contour>
  </outline>
</glyph>
<glyph name="guilsinglright" format="2">
  <advance width="292"/>
  <unicode hex="203A"/>
  <outline>
    <contour>
      <point x="80" y="50" type="line"/>
      <point x="256" y="200" type="line"/>
      <point x="85" y="354" type="line"/>
      <point x="45" y="325" type="line"/>
      <point x="155" y="200" type="line"/>
      <point x="52" y="71" type="line"/>
    </contour>
  </outline>
</glyph>
<glyph name="colonsign" format="2">
  <advance width="700"/>
  <unicode hex="20A1"/>
  <outline>
    <component base="C"/>
    <contour>
      <point x="130" y="-100" type="line"/>
      <point x="170" y="-100" type="line"/>
      <point x="470" y="800" type="line"/>
      <point x="430" y="800" type="line"/>
    </contour>
    <contour>
      <point x="240" y="-100" type="line"/>
      <point x="280" y="-100" type="line"/>
      <point x="580" y="800" type="line"/>
      <point x="540" y="800" type="line"/>
    </contour>
  </outline>
</glyph>
<glyph name="naira" format="2">
  <advance width="781"/>
  <unicode hex="20A6"/>
  <outline>
    <contour>
      <point x="28" y="304" type="line"/>
      <point x="741" y="304" type="line"/>
      <point x="741" y="369" type="line"/>
      <point x="28" y="369" type="line"/>
    </contour>
    <component base="N"/>
  </outline>
</glyph>
<glyph name="won" format="2">
  <advance width="1044"/>
  <unicode hex="20A9"/>
  <outline>
    <component base="W"/>
    <contour>
      <point x="28" y="304" type="line"/>
      <point x="1041" y="304" type="line"/>
      <point x="1041" y="369" type="line"/>
      <point x="28" y="369" type="line"/>
    </contour>
  </outline>
</glyph>
<glyph name="sheqel" format="2">
  <advance width="688"/>
  <unicode hex="20AA"/>
  <outline>
    <contour>
      <point x="378" y="4" type="curve" smooth="yes"/>
      <point x="472" y="4"/>
      <point x="573" y="12"/>
      <point x="606" y="22" type="curve"/>
      <point x="606" y="616" type="line"/>
      <point x="527" y="599" type="line"/>
      <point x="527" y="48" type="line"/>
      <point x="439" y="48" type="line" smooth="yes"/>
      <point x="365" y="48"/>
      <point x="305" y="113"/>
      <point x="304" y="193" type="curve" smooth="yes"/>
      <point x="304" y="431" type="line"/>
      <point x="235" y="414" type="line"/>
      <point x="235" y="140" type="line" smooth="yes"/>
      <point x="235" y="65"/>
      <point x="298" y="4"/>
    </contour>
    <contour>
      <point x="82" y="0" type="line"/>
      <point x="161" y="17" type="line"/>
      <point x="161" y="568" type="line"/>
      <point x="249" y="568" type="line" smooth="yes"/>
      <point x="323" y="568"/>
      <point x="382" y="503"/>
      <point x="383" y="423" type="curve" smooth="yes"/>
      <point x="383" y="185" type="line"/>
      <point x="453" y="202" type="line"/>
      <point x="453" y="476" type="line" smooth="yes"/>
      <point x="453" y="551"/>
      <point x="389" y="612"/>
      <point x="310" y="612" type="curve" smooth="yes"/>
      <point x="215" y="612"/>
      <point x="114" y="604"/>
      <point x="82" y="594" type="curve"/>
    </contour>
  </outline>
</glyph>
<glyph name="euro" format="2">
  <advance width="616"/>
  <unicode hex="20AC"/>
  <outline>
    <contour>
      <point x="0" y="223" type="line"/>
      <point x="344" y="223" type="line"/>
      <point x="344" y="275" type="line"/>
      <point x="0" y="275" type="line"/>
    </contour>
    <contour>
      <point x="0" y="351" type="line"/>
      <point x="344" y="351" type="line"/>
      <point x="344" y="403" type="line"/>
      <point x="0" y="403" type="line"/>
    </contour>
    <contour>
      <point x="361" y="-11" type="curve" smooth="yes"/>
      <point x="409" y="-11"/>
      <point x="482" y="9"/>
      <point x="537" y="38" type="curve"/>
      <point x="555" y="108"/>
      <point x="571" y="175"/>
      <point x="575" y="201" type="curve"/>
      <point x="539" y="200" type="line"/>
      <point x="515" y="102"/>
      <point x="449" y="33"/>
      <point x="379" y="33" type="curve" smooth="yes"/>
      <point x="225" y="33"/>
      <point x="164" y="158"/>
      <point x="164" y="335" type="curve" smooth="yes"/>
      <point x="164" y="482"/>
      <point x="222" y="586"/>
      <point x="371" y="586" type="curve" smooth="yes"/>
      <point x="435" y="586"/>
      <point x="491" y="522"/>
      <point x="506" y="432" type="curve"/>
      <point x="546" y="432" type="line"/>
      <point x="543" y="599" type="line"/>
      <point x="493" y="573" type="line"/>
      <point x="460" y="605"/>
      <point x="406" y="627"/>
      <point x="361" y="627" type="curve" smooth="yes"/>
      <point x="154" y="627"/>
      <point x="56" y="496"/>
      <point x="56" y="312" type="curve" smooth="yes"/>
      <point x="56" y="123"/>
      <point x="154" y="-11"/>
    </contour>
  </outline>
</glyph>
<glyph name="kip" format="2">
  <advance width="706"/>
  <unicode hex="20AD"/>
  <outline>
    <contour>
      <point x="50" y="333" type="line"/>
      <point x="550" y="333" type="line"/>
      <point x="550" y="398" type="line"/>
      <point x="50" y="398" type="line"/>
    </contour>
    <component base="K"/>
  </outline>
</glyph>
<glyph name="tugrik" format="2">
  <advance width="657"/>
  <unicode hex="20AE"/>
  <outline>
    <contour>
      <point x="154" y="101" type="line"/>
      <point x="469" y="251" type="line"/>
      <point x="469" y="316" type="line"/>
      <point x="154" y="166" type="line"/>
    </contour>
    <contour>
      <point x="154" y="224" type="line"/>
      <point x="469" y="374" type="line"/>
      <point x="469" y="439" type="line"/>
      <point x="154" y="289" type="line"/>
    </contour>
    <component base="T" xOffset="-22"/>
  </outline>
</glyph>
<glyph name="peso" format="2">
  <advance width="584"/>
  <unicode hex="20B1"/>
  <outline>
    <contour>
      <point x="45" y="419" type="line"/>
      <point x="505" y="419" type="line"/>
      <point x="505" y="471" type="line"/>
      <point x="45" y="471" type="line"/>
    </contour>
    <contour>
      <point x="45" y="517" type="line"/>
      <point x="505" y="517" type="line"/>
      <point x="505" y="568" type="line"/>
      <point x="45" y="568" type="line"/>
    </contour>
    <component base="P" xOffset="5"/>
  </outline>
</glyph>
<glyph name="hryvnia" format="2">
  <advance width="590"/>
  <unicode hex="20B4"/>
  <outline>
    <contour>
      <point x="268" y="414" type="curve"/>
      <point x="403" y="414" type="line"/>
      <point x="435" y="449"/>
      <point x="476" y="487"/>
      <point x="476" y="529" type="curve" smooth="yes"/>
      <point x="476" y="639"/>
      <point x="385" y="716"/>
      <point x="256" y="716" type="curve" smooth="yes"/>
      <point x="179" y="716"/>
      <point x="102" y="694"/>
      <point x="69" y="662" type="curve"/>
      <point x="69" y="518" type="line"/>
      <point x="97" y="518" type="line"/>
      <point x="122" y="614"/>
      <point x="188" y="682"/>
      <point x="256" y="682" type="curve" smooth="yes"/>
      <point x="331" y="682"/>
      <point x="384" y="637"/>
      <point x="384" y="574" type="curve" smooth="yes"/>
      <point x="384" y="515"/>
      <point x="295" y="466"/>
    </contour>
    <contour>
      <point x="286" y="-16" type="curve" smooth="yes"/>
      <point x="363" y="-16"/>
      <point x="440" y="6"/>
      <point x="473" y="38" type="curve"/>
      <point x="473" y="182" type="line"/>
      <point x="445" y="182" type="line"/>
      <point x="420" y="86"/>
      <point x="354" y="18"/>
      <point x="286" y="18" type="curve" smooth="yes"/>
      <point x="211" y="18"/>
      <point x="158" y="63"/>
      <point x="158" y="126" type="curve" smooth="yes"/>
      <point x="158" y="185"/>
      <point x="247" y="234"/>
      <point x="274" y="286" type="curve"/>
      <point x="139" y="286" type="line"/>
      <point x="107" y="251"/>
      <point x="66" y="213"/>
      <point x="66" y="171" type="curve" smooth="yes"/>
      <point x="66" y="61"/>
      <point x="157" y="-16"/>
    </contour>
    <contour>
      <point x="30" y="253" type="line"/>
      <point x="530" y="253" type="line"/>
      <point x="530" y="318" type="line"/>
      <point x="30" y="318" type="line"/>
    </contour>
    <contour>
      <point x="30" y="376" type="line"/>
      <point x="530" y="376" type="line"/>
      <point x="530" y="441" type="line"/>
      <point x="30" y="441" type="line"/>
    </contour>
  </outline>
</glyph>
<glyph name="cedi" format="2">
  <advance width="668"/>
  <unicode hex="20B5"/>
  <outline>
    <component base="C"/>
    <contour>
      <point x="350" y="-100" type="line"/>
      <point x="390" y="-100" type="line"/>
      <point x="390" y="800" type="line"/>
      <point x="350" y="800" type="line"/>
    </contour>
  </outline>
</glyph>
<glyph name="tenge" format="2">
  <advance width="567"/>
  <unicode hex="20B8"/>
  <outline>
    <contour>
      <point x="25" y="634" type="line"/>
      <point x="465" y="634" type="line"/>
      <point x="465" y="699" type="line"/>
      <point x="25" y="699" type="line"/>
    </contour>
    <component base="T" xScale="0.8032" yScale="0.8032" xOffset="-26"/>
  </outline>
</glyph>
<glyph name="rupeeIndian" format="2">
  <advance width="580"/>
  <unicode hex="20B9"/>
  <outline>
    <contour>
      <point x="28" y="300" type="line"/>
      <point x="142" y="300" type="line" smooth="yes"/>
      <point x="293" y="300"/>
      <point x="400" y="394"/>
      <point x="400" y="527" type="curve" smooth="yes"/>
      <point x="400" y="628"/>
      <point x="306" y="700"/>
      <point x="172" y="700" type="curve"/>
      <point x="142" y="650" type="line"/>
      <point x="229" y="650"/>
      <point x="290" y="586"/>
      <point x="290" y="495" type="curve" smooth="yes"/>
      <point x="290" y="404"/>
      <point x="241" y="340"/>
      <point x="172" y="340" type="curve" smooth="yes"/>
      <point x="28" y="340" type="line"/>
    </contour>
    <contour>
      <point x="343" y="0" type="line"/>
      <point x="514" y="0" type="line"/>
      <point x="514" y="19" type="line"/>
      <point x="465" y="35" type="line" smooth="yes"/>
      <point x="433" y="45"/>
      <point x="413" y="61"/>
      <point x="397" y="91" type="curve" smooth="yes"/>
      <point x="263" y="336" type="line"/>
      <point x="162" y="316" type="line"/>
    </contour>
    <contour>
      <point x="28" y="512" type="line"/>
      <point x="526" y="512" type="line"/>
      <point x="526" y="577" type="line"/>
      <point x="28" y="577" type="line"/>
    </contour>
    <contour>
      <point x="28" y="635" type="line"/>
      <point x="526" y="635" type="line"/>
      <point x="526" y="700" type="line"/>
      <point x="28" y="700" type="line"/>
    </contour>
  </outline>
</glyph>
<glyph name="liraTurkish" format="2">
  <advance width="560"/>
  <unicode hex="20BA"/>
  <outline>
    <contour>
      <point x="140" y="0" type="line"/>
      <point x="227" y="0" type="line"/>
      <point x="411" y="0"/>
      <point x="541" y="139"/>
      <point x="541" y="335" type="curve"/>
      <point x="451" y="295" type="line"/>
      <point x="451" y="152"/>
      <point x="358" y="50"/>
      <point x="227" y="50" type="curve"/>
      <point x="230" y="50" type="line"/>
      <point x="230" y="699" type="line"/>
      <point x="140" y="699" type="line"/>
    </contour>
    <contour>
      <point x="26" y="291" type="line"/>
      <point x="341" y="441" type="line"/>
      <point x="341" y="506" type="line"/>
      <point x="26" y="356" type="line"/>
    </contour>
    <contour>
      <point x="26" y="414" type="line"/>
      <point x="341" y="564" type="line"/>
      <point x="341" y="629" type="line"/>
      <point x="26" y="479" type="line"/>
    </contour>
  </outline>
</glyph>
<glyph name="manat" format="2">
  <advance width="668"/>
  <unicode hex="20BC"/>
  <outline>
    <contour>
      <point x="66" y="-20" type="curve"/>
      <point x="156" y="20" type="line"/>
      <point x="156" y="364" type="line" smooth="yes"/>
      <point x="156" y="489"/>
      <point x="219" y="577"/>
      <point x="309" y="577" type="curve"/>
      <point x="349" y="617" type="line"/>
      <point x="183" y="617"/>
      <point x="66" y="496"/>
      <point x="66" y="324" type="curve" smooth="yes"/>
      <point x="66" y="244"/>
      <point x="66" y="115"/>
    </contour>
    <contour>
      <point x="292" y="-15" type="line"/>
      <point x="364" y="15" type="line"/>
      <point x="364" y="728" type="line"/>
      <point x="292" y="688" type="line"/>
    </contour>
    <contour>
      <point x="502" y="-20" type="line"/>
      <point x="592" y="20" type="line"/>
      <point x="592" y="155"/>
      <point x="592" y="284"/>
      <point x="592" y="364" type="curve" smooth="yes"/>
      <point x="592" y="512"/>
      <point x="491" y="617"/>
      <point x="349" y="617" type="curve"/>
      <point x="309" y="577" type="line"/>
      <point x="422" y="577"/>
      <point x="502" y="472"/>
      <point x="502" y="324" type="curve" smooth="yes"/>
    </contour>
  </outline>
</glyph>
<glyph name="ruble" format="2">
  <advance width="594"/>
  <unicode hex="20BD"/>
  <outline>
    <contour>
      <point x="63" y="181" type="line"/>
      <point x="561" y="181" type="line"/>
      <point x="561" y="246" type="line"/>
      <point x="63" y="246" type="line"/>
    </contour>
    <contour>
      <point x="63" y="304" type="line"/>
      <point x="561" y="304" type="line"/>
      <point x="561" y="369" type="line"/>
      <point x="63" y="369" type="line"/>
    </contour>
    <component base="P" xOffset="5"/>
  </outline>
</glyph>
<glyph name="literSign" format="2">
  <advance width="496"/>
  <unicode hex="2113"/>
  <outline>
    <contour>
      <point x="280" y="-14" type="curve" smooth="yes"/>
      <point x="329" y="-14"/>
      <point x="373" y="3"/>
      <point x="408" y="26" type="curve"/>
      <point x="408" y="59" type="line"/>
      <point x="381" y="40"/>
      <point x="344" y="21"/>
      <point x="300" y="21" type="curve" smooth="yes"/>
      <point x="219" y="21"/>
      <point x="169" y="145"/>
      <point x="169" y="320" type="curve" smooth="yes"/>
      <point x="169" y="531"/>
      <point x="216" y="681"/>
      <point x="282" y="681" type="curve" smooth="yes"/>
      <point x="317" y="681"/>
      <point x="342" y="582"/>
      <point x="342" y="475" type="curve" smooth="yes"/>
      <point x="342" y="321"/>
      <point x="211" y="189"/>
      <point x="26" y="125" type="curve"/>
      <point x="6" y="90" type="line"/>
      <point x="256" y="154"/>
      <point x="432" y="313"/>
      <point x="432" y="505" type="curve" smooth="yes"/>
      <point x="432" y="615"/>
      <point x="378" y="716"/>
      <point x="302" y="716" type="curve" smooth="yes"/>
      <point x="171" y="716"/>
      <point x="79" y="535"/>
      <point x="79" y="280" type="curve" smooth="yes"/>
      <point x="79" y="108"/>
      <point x="158" y="-14"/>
    </contour>
  </outline>
</glyph>
<glyph name="numero" format="2">
  <advance width="1320"/>
  <unicode hex="2116"/>
  <outline>
    <contour>
      <point x="857" y="0" type="line"/>
      <point x="1235" y="0" type="line"/>
      <point x="1235" y="65" type="line"/>
      <point x="857" y="65" type="line"/>
    </contour>
    <component base="N" xOffset="30"/>
    <component base="o" xScale="0.8319" yScale="0.9407" xOffset="809" yOffset="230" identifier="33FAE07E"/>
  </outline>
</glyph>
<glyph name="trademark" format="2">
  <advance width="476"/>
  <unicode hex="2122"/>
  <outline>
    <contour>
      <point x="317" y="511" type="line"/>
      <point x="380" y="669" type="line"/>
      <point x="380" y="533" type="line"/>
      <point x="365" y="526" type="line"/>
      <point x="365" y="515" type="line"/>
      <point x="428" y="515" type="line"/>
      <point x="428" y="526" type="line"/>
      <point x="412" y="533" type="line"/>
      <point x="412" y="675" type="line"/>
      <point x="440" y="683" type="line"/>
      <point x="440" y="698" type="line"/>
      <point x="365" y="698" type="line"/>
      <point x="319" y="584" type="line"/>
      <point x="258" y="698" type="line"/>
      <point x="205" y="698" type="line"/>
      <point x="205" y="683" type="line"/>
      <point x="230" y="675" type="line"/>
      <point x="230" y="533" type="line"/>
      <point x="215" y="526" type="line"/>
      <point x="215" y="515" type="line"/>
      <point x="267" y="515" type="line"/>
      <point x="267" y="526" type="line"/>
      <point x="251" y="533" type="line"/>
      <point x="251" y="643" type="line"/>
    </contour>
    <contour>
      <point x="52" y="515" type="line"/>
      <point x="163" y="515" type="line"/>
      <point x="163" y="526" type="line"/>
      <point x="122" y="533" type="line"/>
      <point x="122" y="680" type="line"/>
      <point x="153" y="680" type="line"/>
      <point x="174" y="626" type="line"/>
      <point x="188" y="626" type="line"/>
      <point x="180" y="698" type="line"/>
      <point x="35" y="698" type="line"/>
      <point x="27" y="626" type="line"/>
      <point x="43" y="626" type="line"/>
      <point x="63" y="680" type="line"/>
      <point x="92" y="680" type="line"/>
      <point x="92" y="533" type="line"/>
      <point x="52" y="526" type="line"/>
    </contour>
  </outline>
</glyph>
